SplineFontDB: 3.0
FontName: SpurceSans-SemiboldItalic
FullName: Spurce Sans Beta Semibold Italic
FamilyName: Spurce Sans
Weight: Bold
Copyright: Copyright 2020 Nicholas Auler, with font name 'Spurce'.\n\nBased on Source Sans, Copyright 2010, 2012, 2014 Adobe Systems Incorporated (http://www.adobe.com/), with Reserved Font Name `Source'.
UComments: "This font is still in beta. If you find any issues, contact me at nicholas.auler@gmail.com+AAoA"
Version: 0.6
ItalicAngle: -11
UnderlinePosition: -100
UnderlineWidth: 50
Ascent: 750
Descent: 250
InvalidEm: 0
sfntRevision: 0x0000999a
LayerCount: 2
Layer: 0 1 "Back" 1
Layer: 1 1 "Fore" 0
XUID: [1021 316 771282308 28945]
StyleMap: 0x0001
FSType: 0
OS2Version: 3
OS2_WeightWidthSlopeOnly: 0
OS2_UseTypoMetrics: 0
CreationTime: 1441032400
ModificationTime: 1588188247
PfmFamily: 33
TTFWeight: 600
TTFWidth: 5
LineGap: 0
VLineGap: 0
Panose: 2 11 6 3 3 4 3 9 2 4
OS2TypoAscent: 750
OS2TypoAOffset: 0
OS2TypoDescent: -250
OS2TypoDOffset: 0
OS2TypoLinegap: 0
OS2WinAscent: 984
OS2WinAOffset: 0
OS2WinDescent: 273
OS2WinDOffset: 0
HheadAscent: 984
HheadAOffset: 0
HheadDescent: -273
HheadDOffset: 0
OS2SubXSize: 650
OS2SubYSize: 600
OS2SubXOff: -15
OS2SubYOff: 75
OS2SupXSize: 650
OS2SupYSize: 600
OS2SupXOff: 68
OS2SupYOff: 350
OS2StrikeYSize: 50
OS2StrikeYPos: 294
OS2CapHeight: 660
OS2XHeight: 491
OS2Vendor: 'ADBO'
OS2CodePages: 20000193.00000000
OS2UnicodeRanges: 20000007.00000001.00000000.00000000
Lookup: 1 0 0 "'aalt' Access All Alternates in Latin lookup 0" { "'aalt' Access All Alternates in Latin lookup 0 subtable"  } ['aalt' ('DFLT' <'dflt' > 'latn' <'dflt' > ) ]
Lookup: 3 0 0 "'aalt' Access All Alternates in Latin lookup 1" { "'aalt' Access All Alternates in Latin lookup 1 subtable"  } ['aalt' ('DFLT' <'dflt' > 'latn' <'dflt' > ) ]
Lookup: 2 0 0 "Multiple Substitution lookup 2" { "Multiple Substitution lookup 2 subtable"  } []

StartChar: .notdef
Encoding: 65536 -1 0
Width: 646
Flags: W
LayerCount: 2
Fore
SplineSet
32 0 m 1,0,-1
 162 660 l 1,1,-1
 643 660 l 1,2,-1
 513 0 l 1,3,-1
 32 0 l 1,0,-1
350 396 m 1,4,-1
 354 396 l 1,5,-1
 418 491 l 1,6,-1
 485 588 l 1,7,-1
 295 588 l 1,8,-1
 324 491 l 1,9,-1
 350 396 l 1,4,-1
184 72 m 1,10,-1
 389 72 l 1,11,-1
 356 182 l 1,12,-1
 331 281 l 1,13,-1
 327 281 l 1,14,-1
 262 182 l 1,15,-1
 184 72 l 1,10,-1
136 126 m 1,16,-1
 286 340 l 1,17,-1
 221 554 l 1,18,-1
 136 126 l 1,16,-1
460 126 m 1,19,-1
 548 554 l 1,20,-1
 396 340 l 1,21,-1
 460 126 l 1,19,-1
EndSplineSet
Validated: 1
EndChar

StartChar: A
Encoding: 65 65 2
Width: 529
GlyphClass: 2
Flags: W
AnchorPoint: "Anchor-6" 422 0 basechar 0
AnchorPoint: "Anchor-3" 230 -22 basechar 0
AnchorPoint: "Anchor-1" 366 682 basechar 0
LayerCount: 2
Fore
SplineSet
241 365 m 2,0,-1
 192 266 l 1,1,-1
 359 266 l 1,2,-1
 352 365 l 2,3,4
 349 416 349 416 345.5 465 c 128,-1,5
 342 514 342 514 340 568 c 1,6,-1
 336 568 l 1,7,8
 312 514 312 514 289.5 465 c 128,-1,9
 267 416 267 416 241 365 c 2,0,-1
-58 0 m 1,10,-1
 292 654 l 1,11,-1
 420 654 l 1,12,-1
 490 0 l 1,13,-1
 378 0 l 1,14,-1
 365 184 l 1,15,-1
 152 184 l 1,16,-1
 61 0 l 1,17,-1
 -58 0 l 1,10,-1
EndSplineSet
Validated: 1
EndChar

StartChar: B
Encoding: 66 66 3
Width: 594
GlyphClass: 2
Flags: W
AnchorPoint: "Anchor-3" 259 -22 basechar 0
AnchorPoint: "Anchor-1" 346 682 basechar 0
LayerCount: 2
Fore
SplineSet
32 0 m 1,0,-1
 162 654 l 1,1,-1
 350 654 l 2,2,3
 446 654 446 654 503.5 617.5 c 128,-1,4
 561 581 561 581 561 507 c 0,5,6
 561 476 561 476 549.5 449.5 c 128,-1,7
 538 423 538 423 518.5 402 c 128,-1,8
 499 381 499 381 473 366 c 128,-1,9
 447 351 447 351 417 344 c 1,10,-1
 416 340 l 1,11,12
 469 327 469 327 500.5 296 c 128,-1,13
 532 265 532 265 532 212 c 0,14,15
 532 156 532 156 510.5 115.5 c 128,-1,16
 489 75 489 75 451.5 49.5 c 128,-1,17
 414 24 414 24 363.5 12 c 128,-1,18
 313 0 313 0 255 0 c 2,19,-1
 32 0 l 1,0,-1
215 380 m 1,20,-1
 295 380 l 2,21,22
 376 380 376 380 413.5 410 c 128,-1,23
 451 440 451 440 451 490 c 0,24,25
 451 528 451 528 421 549 c 128,-1,26
 391 570 391 570 328 570 c 2,27,-1
 254 570 l 1,28,-1
 215 380 l 1,20,-1
156 84 m 1,29,-1
 255 84 l 2,30,31
 336 84 336 84 382 114 c 128,-1,32
 428 144 428 144 428 207 c 0,33,34
 428 252 428 252 396 278 c 128,-1,35
 364 304 364 304 301 304 c 2,36,-1
 200 304 l 1,37,-1
 156 84 l 1,29,-1
EndSplineSet
Validated: 1
EndChar

StartChar: C
Encoding: 67 67 4
Width: 559
GlyphClass: 2
Flags: W
AnchorPoint: "Anchor-3" 280 -22 basechar 0
AnchorPoint: "Anchor-2" 286 0 basechar 0
AnchorPoint: "Anchor-1" 432 682 basechar 0
LayerCount: 2
Fore
SplineSet
297 -12 m 0,0,1
 241 -12 241 -12 196.5 7 c 128,-1,2
 152 26 152 26 121 61 c 128,-1,3
 90 96 90 96 73.5 145.5 c 128,-1,4
 57 195 57 195 57 257 c 0,5,6
 57 338 57 338 82.5 412 c 128,-1,7
 108 486 108 486 153.5 542.5 c 128,-1,8
 199 599 199 599 262 632.5 c 128,-1,9
 325 666 325 666 400 666 c 0,10,11
 457 666 457 666 499 638.5 c 128,-1,12
 541 611 541 611 567 566 c 1,13,-1
 493 509 l 1,14,15
 474 539 474 539 450 556 c 128,-1,16
 426 573 426 573 394 573 c 0,17,18
 344 573 344 573 302.5 546 c 128,-1,19
 261 519 261 519 231 475.5 c 128,-1,20
 201 432 201 432 184 377 c 128,-1,21
 167 322 167 322 167 265 c 0,22,23
 167 224 167 224 175.5 190 c 128,-1,24
 184 156 184 156 202.5 132 c 128,-1,25
 221 108 221 108 249.5 94.5 c 128,-1,26
 278 81 278 81 318 81 c 0,27,28
 353 81 353 81 383.5 96 c 128,-1,29
 414 111 414 111 443 135 c 1,30,-1
 490 66 l 1,31,32
 457 37 457 37 408.5 12.5 c 128,-1,33
 360 -12 360 -12 297 -12 c 0,0,1
EndSplineSet
Validated: 1
EndChar

StartChar: D
Encoding: 68 68 5
Width: 604
GlyphClass: 2
Flags: W
AnchorPoint: "Anchor-3" 274 -22 basechar 0
AnchorPoint: "Anchor-1" 394 682 basechar 0
LayerCount: 2
Fore
SplineSet
32 0 m 1,0,-1
 162 654 l 1,1,-1
 295 654 l 2,2,3
 432 654 432 654 505 588.5 c 128,-1,4
 578 523 578 523 578 398 c 0,5,6
 578 305 578 305 552.5 231 c 128,-1,7
 527 157 527 157 480.5 106 c 128,-1,8
 434 55 434 55 368.5 27.5 c 128,-1,9
 303 0 303 0 222 0 c 2,10,-1
 32 0 l 1,0,-1
157 87 m 1,11,-1
 220 87 l 2,12,13
 275 87 275 87 320.5 107.5 c 128,-1,14
 366 128 366 128 399 167 c 128,-1,15
 432 206 432 206 450 262.5 c 128,-1,16
 468 319 468 319 468 391 c 0,17,18
 468 479 468 479 422 523 c 128,-1,19
 376 567 376 567 292 567 c 2,20,-1
 252 567 l 1,21,-1
 157 87 l 1,11,-1
EndSplineSet
Validated: 1
EndChar

StartChar: E
Encoding: 69 69 6
Width: 515
GlyphClass: 2
Flags: W
AnchorPoint: "Anchor-6" 341 0 basechar 0
AnchorPoint: "Anchor-3" 244 -22 basechar 0
AnchorPoint: "Anchor-1" 373 682 basechar 0
LayerCount: 2
Fore
SplineSet
32 0 m 1,0,-1
 162 654 l 1,1,-1
 537 654 l 1,2,-1
 519 563 l 1,3,-1
 251 563 l 1,4,-1
 216 387 l 1,5,-1
 443 387 l 1,6,-1
 425 296 l 1,7,-1
 199 296 l 1,8,-1
 157 91 l 1,9,-1
 433 91 l 1,10,-1
 415 0 l 1,11,-1
 32 0 l 1,0,-1
EndSplineSet
Validated: 1
EndChar

StartChar: F
Encoding: 70 70 7
Width: 489
GlyphClass: 2
Flags: W
AnchorPoint: "Anchor-3" 92 -22 basechar 0
AnchorPoint: "Anchor-1" 373 682 basechar 0
LayerCount: 2
Fore
SplineSet
32 0 m 1,0,-1
 162 654 l 1,1,-1
 537 654 l 1,2,-1
 519 563 l 1,3,-1
 251 563 l 1,4,-1
 213 370 l 1,5,-1
 440 370 l 1,6,-1
 422 279 l 1,7,-1
 196 279 l 1,8,-1
 140 0 l 1,9,-1
 32 0 l 1,0,-1
EndSplineSet
Validated: 1
EndChar

StartChar: G
Encoding: 71 71 8
Width: 600
GlyphClass: 2
Flags: W
AnchorPoint: "Anchor-3" 308 -22 basechar 0
AnchorPoint: "Anchor-1" 429 682 basechar 0
LayerCount: 2
Fore
SplineSet
307 -12 m 0,0,1
 187 -12 187 -12 122 60 c 128,-1,2
 57 132 57 132 57 257 c 0,3,4
 57 338 57 338 82.5 412.5 c 128,-1,5
 108 487 108 487 154.5 543 c 128,-1,6
 201 599 201 599 266 632.5 c 128,-1,7
 331 666 331 666 410 666 c 0,8,9
 471 666 471 666 514 638.5 c 128,-1,10
 557 611 557 611 583 566 c 1,11,-1
 509 509 l 1,12,13
 490 539 490 539 465 556 c 128,-1,14
 440 573 440 573 404 573 c 0,15,16
 351 573 351 573 307 546 c 128,-1,17
 263 519 263 519 232 475.5 c 128,-1,18
 201 432 201 432 184 377 c 128,-1,19
 167 322 167 322 167 265 c 0,20,21
 167 224 167 224 175.5 190.5 c 128,-1,22
 184 157 184 157 203 132 c 128,-1,23
 222 107 222 107 252 93.5 c 128,-1,24
 282 80 282 80 325 80 c 0,25,26
 353 80 353 80 376 88.5 c 128,-1,27
 399 97 399 97 416 111 c 1,28,-1
 448 265 l 1,29,-1
 327 265 l 1,30,-1
 344 353 l 1,31,-1
 561 353 l 1,32,-1
 502 55 l 1,33,34
 466 26 466 26 416.5 7 c 128,-1,35
 367 -12 367 -12 307 -12 c 0,0,1
EndSplineSet
Validated: 1
EndChar

StartChar: H
Encoding: 72 72 9
Width: 638
GlyphClass: 2
Flags: W
AnchorPoint: "Anchor-3" 280 -22 basechar 0
AnchorPoint: "Anchor-1" 407 682 basechar 0
LayerCount: 2
Fore
SplineSet
32 0 m 1,0,-1
 162 654 l 1,1,-1
 270 654 l 1,2,-1
 216 389 l 1,3,-1
 475 389 l 1,4,-1
 528 654 l 1,5,-1
 636 654 l 1,6,-1
 505 0 l 1,7,-1
 397 0 l 1,8,-1
 457 295 l 1,9,-1
 198 295 l 1,10,-1
 140 0 l 1,11,-1
 32 0 l 1,0,-1
EndSplineSet
Validated: 1
EndChar

StartChar: I
Encoding: 73 73 10
Width: 345
GlyphClass: 2
Flags: W
LayerCount: 2
Fore
SplineSet
-7 0 m 1,0,-1
 12 91 l 1,1,-1
 85 91 l 1,2,-1
 181 563 l 1,3,-1
 106 563 l 1,4,-1
 125 654 l 1,5,-1
 382 654 l 1,6,-1
 363 563 l 1,7,-1
 289 563 l 1,8,-1
 193 91 l 1,9,-1
 270 91 l 1,10,-1
 251 0 l 1,11,-1
 -7 0 l 1,0,-1
EndSplineSet
Validated: 1
Substitution2: "'ss04' Style Set 4 in Latin lookup 23 subtable" I.a
Substitution2: "'aalt' Access All Alternates in Latin lookup 0 subtable" I.a
EndChar

StartChar: J
Encoding: 74 74 11
Width: 474
GlyphClass: 2
Flags: W
AnchorPoint: "Anchor-3" 151 -30 basechar 0
AnchorPoint: "Anchor-1" 435 682 basechar 0
LayerCount: 2
Fore
SplineSet
168 -12 m 0,0,1
 110 -12 110 -12 65 14.5 c 128,-1,2
 20 41 20 41 -5 88 c 1,3,-1
 63 151 l 1,4,5
 77 120 77 120 103.5 100.5 c 128,-1,6
 130 81 130 81 168 81 c 0,7,8
 213 81 213 81 240.5 114.5 c 128,-1,9
 268 148 268 148 281 211 c 2,10,-1
 369 654 l 1,11,-1
 477 654 l 1,12,-1
 385 194 l 2,13,14
 377 150 377 150 359.5 112.5 c 128,-1,15
 342 75 342 75 315.5 47.5 c 128,-1,16
 289 20 289 20 252 4 c 128,-1,17
 215 -12 215 -12 168 -12 c 0,0,1
EndSplineSet
Validated: 1
EndChar

StartChar: K
Encoding: 75 75 12
Width: 582
GlyphClass: 2
Flags: W
AnchorPoint: "Anchor-3" 284 -22 basechar 0
AnchorPoint: "Anchor-1" 412 682 basechar 0
LayerCount: 2
Fore
SplineSet
32 0 m 1,0,-1
 162 654 l 1,1,-1
 270 654 l 1,2,-1
 211 358 l 1,3,-1
 215 358 l 1,4,-1
 501 654 l 1,5,-1
 620 654 l 1,6,-1
 379 394 l 1,7,-1
 526 0 l 1,8,-1
 414 0 l 1,9,-1
 299 326 l 1,10,-1
 181 206 l 1,11,-1
 140 0 l 1,12,-1
 32 0 l 1,0,-1
EndSplineSet
Validated: 1
EndChar

StartChar: L
Encoding: 76 76 13
Width: 481
GlyphClass: 2
Flags: W
AnchorPoint: "Anchor-3" 231 -22 basechar 0
AnchorPoint: "Anchor-1" 240 682 basechar 0
LayerCount: 2
Fore
SplineSet
32 0 m 1,0,-1
 162 654 l 1,1,-1
 270 654 l 1,2,-1
 158 91 l 1,3,-1
 419 91 l 1,4,-1
 401 0 l 1,5,-1
 32 0 l 1,0,-1
EndSplineSet
Validated: 1
EndChar

StartChar: M
Encoding: 77 77 14
Width: 723
GlyphClass: 2
Flags: W
AnchorPoint: "Anchor-3" 320 -30 basechar 0
AnchorPoint: "Anchor-1" 440 682 basechar 0
LayerCount: 2
Fore
SplineSet
32 0 m 1,0,-1
 162 654 l 1,1,-1
 282 654 l 1,2,-1
 334 327 l 1,3,-1
 353 201 l 1,4,-1
 357 201 l 1,5,-1
 422 327 l 1,6,-1
 602 654 l 1,7,-1
 721 654 l 1,8,-1
 590 0 l 1,9,-1
 488 0 l 1,10,-1
 553 314 l 2,11,12
 558 337 558 337 564.5 363.5 c 128,-1,13
 571 390 571 390 578 417 c 128,-1,14
 585 444 585 444 592 470 c 128,-1,15
 599 496 599 496 606 519 c 1,16,-1
 603 519 l 1,17,-1
 523 371 l 1,18,-1
 350 64 l 1,19,-1
 300 64 l 1,20,-1
 246 371 l 1,21,-1
 225 519 l 1,22,-1
 221 519 l 1,23,24
 216 473 216 473 209.5 416.5 c 128,-1,25
 203 360 203 360 194 314 c 2,26,-1
 131 0 l 1,27,-1
 32 0 l 1,0,-1
EndSplineSet
Validated: 1
EndChar

StartChar: N
Encoding: 78 78 15
Width: 631
GlyphClass: 2
Flags: W
AnchorPoint: "Anchor-3" 289 -30 basechar 0
AnchorPoint: "Anchor-1" 418 682 basechar 0
LayerCount: 2
Fore
SplineSet
32 0 m 1,0,-1
 162 654 l 1,1,-1
 268 654 l 1,2,-1
 396 275 l 1,3,-1
 434 134 l 1,4,-1
 438 134 l 1,5,6
 444 185 444 185 450 244 c 128,-1,7
 456 303 456 303 467 357 c 2,8,-1
 526 654 l 1,9,-1
 630 654 l 1,10,-1
 499 0 l 1,11,-1
 394 0 l 1,12,-1
 267 378 l 1,13,-1
 229 521 l 1,14,-1
 225 521 l 1,15,16
 219 468 219 468 212 411 c 128,-1,17
 205 354 205 354 194 300 c 2,18,-1
 135 0 l 1,19,-1
 32 0 l 1,0,-1
EndSplineSet
Validated: 1
EndChar

StartChar: O
Encoding: 79 79 16
Width: 647
GlyphClass: 2
Flags: W
AnchorPoint: "Anchor-6" 293 0 basechar 0
AnchorPoint: "Anchor-4" 520 646 basechar 0
AnchorPoint: "Anchor-3" 287 -22 basechar 0
AnchorPoint: "Anchor-1" 423 682 basechar 0
LayerCount: 2
Fore
SplineSet
294 -12 m 0,0,1
 239 -12 239 -12 195 7 c 128,-1,2
 151 26 151 26 120.5 62 c 128,-1,3
 90 98 90 98 74 149 c 128,-1,4
 58 200 58 200 58 263 c 0,5,6
 58 344 58 344 83.5 417 c 128,-1,7
 109 490 109 490 153 545.5 c 128,-1,8
 197 601 197 601 256.5 633.5 c 128,-1,9
 316 666 316 666 384 666 c 0,10,11
 439 666 439 666 483 647 c 128,-1,12
 527 628 527 628 557.5 592 c 128,-1,13
 588 556 588 556 604 505 c 128,-1,14
 620 454 620 454 620 391 c 0,15,16
 620 310 620 310 595 237 c 128,-1,17
 570 164 570 164 526 108.5 c 128,-1,18
 482 53 482 53 422.5 20.5 c 128,-1,19
 363 -12 363 -12 294 -12 c 0,0,1
300 81 m 0,20,21
 343 81 343 81 381.5 107 c 128,-1,22
 420 133 420 133 448.5 175 c 128,-1,23
 477 217 477 217 493.5 271.5 c 128,-1,24
 510 326 510 326 510 383 c 0,25,26
 510 471 510 471 477 522 c 128,-1,27
 444 573 444 573 378 573 c 0,28,29
 334 573 334 573 296 547 c 128,-1,30
 258 521 258 521 230 479 c 128,-1,31
 202 437 202 437 185.5 382.5 c 128,-1,32
 169 328 169 328 169 271 c 0,33,34
 169 183 169 183 201.5 132 c 128,-1,35
 234 81 234 81 300 81 c 0,20,21
EndSplineSet
Validated: 1
EndChar

StartChar: P
Encoding: 80 80 17
Width: 567
GlyphClass: 2
Flags: W
AnchorPoint: "Anchor-3" 91 -30 basechar 0
AnchorPoint: "Anchor-1" 388 682 basechar 0
LayerCount: 2
Fore
SplineSet
32 0 m 1,0,-1
 162 654 l 1,1,-1
 358 654 l 2,2,3
 405 654 405 654 444.5 645 c 128,-1,4
 484 636 484 636 512.5 615.5 c 128,-1,5
 541 595 541 595 557 563.5 c 128,-1,6
 573 532 573 532 573 487 c 0,7,8
 573 423 573 423 550.5 377 c 128,-1,9
 528 331 528 331 488.5 302 c 128,-1,10
 449 273 449 273 395 259 c 128,-1,11
 341 245 341 245 279 245 c 2,12,-1
 188 245 l 1,13,-1
 140 0 l 1,14,-1
 32 0 l 1,0,-1
206 331 m 1,15,-1
 288 331 l 2,16,17
 375 331 375 331 420.5 366.5 c 128,-1,18
 466 402 466 402 466 472 c 0,19,20
 466 523 466 523 433 545.5 c 128,-1,21
 400 568 400 568 338 568 c 2,22,-1
 252 568 l 1,23,-1
 206 331 l 1,15,-1
EndSplineSet
Validated: 1
EndChar

StartChar: Q
Encoding: 81 81 18
Width: 647
GlyphClass: 2
Flags: W
AnchorPoint: "Anchor-1" 423 682 basechar 0
LayerCount: 2
Fore
SplineSet
300 81 m 0,0,1
 343 81 343 81 381.5 107 c 128,-1,2
 420 133 420 133 448.5 175 c 128,-1,3
 477 217 477 217 493.5 271.5 c 128,-1,4
 510 326 510 326 510 383 c 0,5,6
 510 471 510 471 477 522 c 128,-1,7
 444 573 444 573 378 573 c 0,8,9
 334 573 334 573 296 547 c 128,-1,10
 258 521 258 521 230 479 c 128,-1,11
 202 437 202 437 185.5 382.5 c 128,-1,12
 169 328 169 328 169 271 c 0,13,14
 169 183 169 183 201.5 132 c 128,-1,15
 234 81 234 81 300 81 c 0,0,1
471 -169 m 0,16,17
 379 -169 379 -169 314.5 -128.5 c 128,-1,18
 250 -88 250 -88 220 -2 c 1,19,20
 143 21 143 21 100.5 89.5 c 128,-1,21
 58 158 58 158 58 263 c 0,22,23
 58 344 58 344 83.5 417 c 128,-1,24
 109 490 109 490 153 545.5 c 128,-1,25
 197 601 197 601 256.5 633.5 c 128,-1,26
 316 666 316 666 384 666 c 0,27,28
 439 666 439 666 483 647 c 128,-1,29
 527 628 527 628 557.5 592 c 128,-1,30
 588 556 588 556 604 505 c 128,-1,31
 620 454 620 454 620 391 c 0,32,33
 620 316 620 316 598 247.5 c 128,-1,34
 576 179 576 179 537.5 125 c 128,-1,35
 499 71 499 71 446.5 35.5 c 128,-1,36
 394 0 394 0 332 -9 c 1,37,38
 352 -47 352 -47 391 -64 c 128,-1,39
 430 -81 430 -81 478 -81 c 0,40,41
 495 -81 495 -81 509.5 -79 c 128,-1,42
 524 -77 524 -77 538 -73 c 1,43,-1
 544 -156 l 1,44,45
 527 -162 527 -162 507.5 -165.5 c 128,-1,46
 488 -169 488 -169 471 -169 c 0,16,17
EndSplineSet
Validated: 1
EndChar

StartChar: R
Encoding: 82 82 19
Width: 576
GlyphClass: 2
Flags: W
AnchorPoint: "Anchor-3" 273 -30 basechar 0
AnchorPoint: "Anchor-1" 386 682 basechar 0
LayerCount: 2
Fore
SplineSet
32 0 m 1,0,-1
 162 654 l 1,1,-1
 355 654 l 2,2,3
 402 654 402 654 441 645.5 c 128,-1,4
 480 637 480 637 508.5 617.5 c 128,-1,5
 537 598 537 598 553 567.5 c 128,-1,6
 569 537 569 537 569 494 c 0,7,8
 569 448 569 448 555.5 411.5 c 128,-1,9
 542 375 542 375 518 347 c 128,-1,10
 494 319 494 319 461.5 300 c 128,-1,11
 429 281 429 281 390 271 c 1,12,-1
 498 0 l 1,13,-1
 383 0 l 1,14,-1
 288 258 l 1,15,-1
 191 258 l 1,16,-1
 140 0 l 1,17,-1
 32 0 l 1,0,-1
209 344 m 1,18,-1
 292 344 l 2,19,20
 376 344 376 344 419 380.5 c 128,-1,21
 462 417 462 417 462 479 c 0,22,23
 462 527 462 527 429.5 547.5 c 128,-1,24
 397 568 397 568 334 568 c 2,25,-1
 252 568 l 1,26,-1
 209 344 l 1,18,-1
EndSplineSet
Validated: 1
EndChar

StartChar: S
Encoding: 83 83 20
Width: 518
GlyphClass: 2
Flags: W
AnchorPoint: "Anchor-3" 234 -30 basechar 0
AnchorPoint: "Anchor-2" 240 0 basechar 0
AnchorPoint: "Anchor-1" 366 687 basechar 0
LayerCount: 2
Fore
SplineSet
234 -12 m 0,0,1
 168 -12 168 -12 110.5 16 c 128,-1,2
 53 44 53 44 8 107 c 1,3,-1
 86 167 l 1,4,5
 115 127 115 127 155 103.5 c 128,-1,6
 195 80 195 80 243 80 c 0,7,8
 294 80 294 80 327 106.5 c 128,-1,9
 360 133 360 133 360 179 c 0,10,11
 360 210 360 210 338.5 230.5 c 128,-1,12
 317 251 317 251 281 273 c 2,13,-1
 212 315 l 2,14,15
 169 341 169 341 141 378.5 c 128,-1,16
 113 416 113 416 113 474 c 0,17,18
 113 513 113 513 129.5 548 c 128,-1,19
 146 583 146 583 175.5 609.5 c 128,-1,20
 205 636 205 636 244.5 651 c 128,-1,21
 284 666 284 666 330 666 c 0,22,23
 389 666 389 666 438 639.5 c 128,-1,24
 487 613 487 613 522 570 c 1,25,-1
 453 507 l 1,26,27
 428 535 428 535 396.5 554 c 128,-1,28
 365 573 365 573 324 573 c 0,29,30
 276 573 276 573 250 546 c 128,-1,31
 224 519 224 519 224 485 c 0,32,33
 224 453 224 453 246.5 433.5 c 128,-1,34
 269 414 269 414 307 391 c 2,35,-1
 377 349 l 2,36,37
 425 321 425 321 448.5 286 c 128,-1,38
 472 251 472 251 472 194 c 0,39,40
 472 150 472 150 455 112.5 c 128,-1,41
 438 75 438 75 406.5 47 c 128,-1,42
 375 19 375 19 331 3.5 c 128,-1,43
 287 -12 287 -12 234 -12 c 0,0,1
EndSplineSet
Validated: 1
EndChar

StartChar: T
Encoding: 84 84 21
Width: 521
GlyphClass: 2
Flags: W
AnchorPoint: "Anchor-3" 213 -22 basechar 0
AnchorPoint: "Anchor-2" 219 0 basechar 0
AnchorPoint: "Anchor-1" 355 682 basechar 0
LayerCount: 2
Fore
SplineSet
157 0 m 1,0,-1
 269 562 l 1,1,-1
 88 562 l 1,2,-1
 106 654 l 1,3,-1
 576 654 l 1,4,-1
 558 562 l 1,5,-1
 377 562 l 1,6,-1
 265 0 l 1,7,-1
 157 0 l 1,0,-1
EndSplineSet
Validated: 1
EndChar

StartChar: U
Encoding: 85 85 22
Width: 630
GlyphClass: 2
Flags: W
AnchorPoint: "Anchor-6" 282 0 basechar 0
AnchorPoint: "Anchor-4" 600 664 basechar 0
AnchorPoint: "Anchor-3" 273 -22 basechar 0
AnchorPoint: "Anchor-1" 414 682 basechar 0
LayerCount: 2
Fore
SplineSet
89 304 m 2,0,-1
 159 654 l 1,1,-1
 267 654 l 1,2,-1
 194 288 l 2,3,4
 185 246 185 246 185 211 c 0,5,6
 185 148 185 148 212 114.5 c 128,-1,7
 239 81 239 81 301 81 c 0,8,9
 353 81 353 81 390.5 123 c 128,-1,10
 428 165 428 165 448 264 c 2,11,-1
 526 654 l 1,12,-1
 632 654 l 1,13,-1
 553 264 l 2,14,15
 524 118 524 118 459 53 c 128,-1,16
 394 -12 394 -12 297 -12 c 0,17,18
 188 -12 188 -12 132.5 42 c 128,-1,19
 77 96 77 96 77 205 c 0,20,21
 77 227 77 227 80.5 253 c 128,-1,22
 84 279 84 279 89 304 c 2,0,-1
EndSplineSet
Validated: 1
EndChar

StartChar: V
Encoding: 86 86 23
Width: 526
GlyphClass: 2
Flags: W
AnchorPoint: "Anchor-3" 223 -30 basechar 0
AnchorPoint: "Anchor-1" 364 682 basechar 0
LayerCount: 2
Fore
SplineSet
138 0 m 1,0,-1
 80 654 l 1,1,-1
 192 654 l 1,2,-1
 214 312 l 2,3,4
 217 259 217 259 220 206 c 128,-1,5
 223 153 223 153 225 99 c 1,6,-1
 229 99 l 1,7,8
 253 152 253 152 277.5 205.5 c 128,-1,9
 302 259 302 259 326 312 c 2,10,-1
 490 654 l 1,11,-1
 607 654 l 1,12,-1
 268 0 l 1,13,-1
 138 0 l 1,0,-1
EndSplineSet
Validated: 1
EndChar

StartChar: W
Encoding: 87 87 24
Width: 775
GlyphClass: 2
Flags: W
AnchorPoint: "Anchor-3" 333 -30 basechar 0
AnchorPoint: "Anchor-1" 483 682 basechar 0
LayerCount: 2
Fore
SplineSet
86 0 m 1,0,-1
 102 654 l 1,1,-1
 212 654 l 1,2,-1
 197 318 l 2,3,4
 193 265 193 265 190 212.5 c 128,-1,5
 187 160 187 160 182 106 c 1,6,-1
 186 106 l 1,7,8
 208 160 208 160 231 213 c 128,-1,9
 254 266 254 266 275 318 c 2,10,-1
 424 654 l 1,11,-1
 517 654 l 1,12,-1
 523 318 l 2,13,14
 523 212 523 212 520 106 c 1,15,-1
 524 106 l 1,16,17
 543 160 543 160 563 213 c 128,-1,18
 583 266 583 266 602 318 c 2,19,-1
 728 654 l 1,20,-1
 832 654 l 1,21,-1
 570 0 l 1,22,-1
 434 0 l 1,23,-1
 432 356 l 2,24,25
 432 390 432 390 434 430.5 c 128,-1,26
 436 471 436 471 438 509 c 1,27,-1
 434 509 l 1,28,29
 420 471 420 471 404.5 432.5 c 128,-1,30
 389 394 389 394 373 356 c 2,31,-1
 220 0 l 1,32,-1
 86 0 l 1,0,-1
EndSplineSet
Validated: 1
EndChar

StartChar: X
Encoding: 88 88 25
Width: 524
GlyphClass: 2
Flags: W
AnchorPoint: "Anchor-3" 276 -30 basechar 0
AnchorPoint: "Anchor-1" 360 682 basechar 0
LayerCount: 2
Fore
SplineSet
-36 0 m 1,0,-1
 211 338 l 1,1,-1
 106 654 l 1,2,-1
 225 654 l 1,3,-1
 269 502 l 2,4,5
 275 479 275 479 280.5 455.5 c 128,-1,6
 286 432 286 432 294 404 c 1,7,-1
 298 404 l 1,8,9
 315 431 315 431 331.5 456 c 128,-1,10
 348 481 348 481 362 504 c 2,11,-1
 461 654 l 1,12,-1
 576 654 l 1,13,-1
 342 332 l 1,14,-1
 456 0 l 1,15,-1
 337 0 l 1,16,-1
 289 163 l 2,17,18
 281 188 281 188 274.5 213 c 128,-1,19
 268 238 268 238 260 266 c 1,20,-1
 257 266 l 1,21,22
 238 238 238 238 221 212 c 128,-1,23
 204 186 204 186 188 160 c 2,24,-1
 79 0 l 1,25,-1
 -36 0 l 1,0,-1
EndSplineSet
Validated: 1
EndChar

StartChar: Y
Encoding: 89 89 26
Width: 486
GlyphClass: 2
Flags: W
AnchorPoint: "Anchor-3" 196 -30 basechar 0
AnchorPoint: "Anchor-1" 335 682 basechar 0
LayerCount: 2
Fore
SplineSet
138 0 m 1,0,-1
 187 246 l 1,1,-1
 82 654 l 1,2,-1
 193 654 l 1,3,-1
 230 482 l 2,4,5
 238 444 238 444 244 410 c 128,-1,6
 250 376 250 376 258 338 c 1,7,-1
 262 338 l 1,8,9
 284 376 284 376 304 411 c 128,-1,10
 324 446 324 446 347 483 c 2,11,-1
 454 654 l 1,12,-1
 570 654 l 1,13,-1
 295 246 l 1,14,-1
 246 0 l 1,15,-1
 138 0 l 1,0,-1
EndSplineSet
Validated: 1
EndChar

StartChar: Z
Encoding: 90 90 27
Width: 519
GlyphClass: 2
Flags: W
AnchorPoint: "Anchor-3" 214 -30 basechar 0
AnchorPoint: "Anchor-1" 362 682 basechar 0
LayerCount: 2
Fore
SplineSet
-3 0 m 1,0,-1
 11 65 l 1,1,-1
 401 563 l 1,2,-1
 123 563 l 1,3,-1
 141 654 l 1,4,-1
 548 654 l 1,5,-1
 535 589 l 1,6,-1
 148 91 l 1,7,-1
 454 91 l 1,8,-1
 435 0 l 1,9,-1
 -3 0 l 1,0,-1
EndSplineSet
Validated: 1
EndChar

StartChar: a
Encoding: 97 97 28
Width: 544
GlyphClass: 2
Flags: W
AnchorPoint: "Anchor-5" 347 0 basechar 0
AnchorPoint: "Anchor-3" 240 -22 basechar 0
AnchorPoint: "Anchor-0" 326 514 basechar 0
LayerCount: 2
Fore
SplineSet
175 -12 m 0,0,1
 110 -12 110 -12 72.5 34 c 128,-1,2
 35 80 35 80 35 167 c 0,3,4
 35 237 35 237 57 298.5 c 128,-1,5
 79 360 79 360 116 405.5 c 128,-1,6
 153 451 153 451 200.5 477 c 128,-1,7
 248 503 248 503 299 503 c 0,8,9
 335 503 335 503 365 484.5 c 128,-1,10
 395 466 395 466 412 434 c 1,11,-1
 414 434 l 1,12,-1
 435 491 l 1,13,-1
 521 491 l 1,14,-1
 423 0 l 1,15,-1
 335 0 l 1,16,-1
 340 68 l 1,17,-1
 337 68 l 1,18,19
 302 32 302 32 259.5 10 c 128,-1,20
 217 -12 217 -12 175 -12 c 0,0,1
219 76 m 0,21,22
 251 76 251 76 284.5 95 c 128,-1,23
 318 114 318 114 348 159 c 1,24,-1
 388 355 l 1,25,26
 371 387 371 387 349.5 401 c 128,-1,27
 328 415 328 415 305 415 c 0,28,29
 274 415 274 415 245 396.5 c 128,-1,30
 216 378 216 378 194 346 c 128,-1,31
 172 314 172 314 159 271.5 c 128,-1,32
 146 229 146 229 146 182 c 0,33,34
 146 128 146 128 165.5 102 c 128,-1,35
 185 76 185 76 219 76 c 0,21,22
EndSplineSet
Validated: 1
Substitution2: "'ss02' Style Set 2 in Latin lookup 21 subtable" a.a
Substitution2: "'sups' Superscript in Latin lookup 12 subtable" a.sups
AlternateSubs2: "'aalt' Access All Alternates in Latin lookup 1 subtable" a.sups a.a
EndChar

StartChar: b
Encoding: 98 98 29
Width: 545
GlyphClass: 2
Flags: W
AnchorPoint: "Anchor-3" 237 -22 basechar 0
AnchorPoint: "Anchor-0" 226 730 basechar 0
LayerCount: 2
Fore
SplineSet
111 0 m 1,0,-1
 22 0 l 1,1,-1
 164 706 l 1,2,-1
 271 706 l 1,3,-1
 236 532 l 1,4,-1
 212 438 l 1,5,-1
 214 438 l 1,6,7
 249 466 249 466 288 484.5 c 128,-1,8
 327 503 327 503 368 503 c 0,9,10
 434 503 434 503 471 457.5 c 128,-1,11
 508 412 508 412 508 324 c 0,12,13
 508 253 508 253 486 192 c 128,-1,14
 464 131 464 131 427 85.5 c 128,-1,15
 390 40 390 40 343 14 c 128,-1,16
 296 -12 296 -12 245 -12 c 0,17,18
 208 -12 208 -12 179.5 6.5 c 128,-1,19
 151 25 151 25 134 57 c 1,20,-1
 132 57 l 1,21,-1
 111 0 l 1,0,-1
324 415 m 0,22,23
 295 415 295 415 261 397.5 c 128,-1,24
 227 380 227 380 199 344 c 1,25,-1
 157 136 l 1,26,27
 173 104 173 104 194 90 c 128,-1,28
 215 76 215 76 238 76 c 0,29,30
 269 76 269 76 298 94.5 c 128,-1,31
 327 113 327 113 349 145 c 128,-1,32
 371 177 371 177 384.5 219.5 c 128,-1,33
 398 262 398 262 398 310 c 0,34,35
 398 364 398 364 378 389.5 c 128,-1,36
 358 415 358 415 324 415 c 0,22,23
EndSplineSet
Validated: 1
Substitution2: "'sups' Superscript in Latin lookup 12 subtable" b.sups
Substitution2: "'aalt' Access All Alternates in Latin lookup 0 subtable" b.sups
EndChar

StartChar: c
Encoding: 99 99 30
Width: 439
GlyphClass: 2
Flags: W
AnchorPoint: "Anchor-3" 221 -22 basechar 0
AnchorPoint: "Anchor-2" 203 0 basechar 0
AnchorPoint: "Anchor-0" 315 514 basechar 0
LayerCount: 2
Fore
SplineSet
220 -12 m 0,0,1
 179 -12 179 -12 145 1.5 c 128,-1,2
 111 15 111 15 86 40.5 c 128,-1,3
 61 66 61 66 47 103 c 128,-1,4
 33 140 33 140 33 188 c 0,5,6
 33 254 33 254 55.5 311.5 c 128,-1,7
 78 369 78 369 116.5 411.5 c 128,-1,8
 155 454 155 454 206.5 478.5 c 128,-1,9
 258 503 258 503 315 503 c 0,10,11
 360 503 360 503 392 485 c 128,-1,12
 424 467 424 467 444 443 c 1,13,-1
 384 378 l 1,14,15
 367 398 367 398 350 407 c 128,-1,16
 333 416 333 416 308 416 c 0,17,18
 275 416 275 416 245 398 c 128,-1,19
 215 380 215 380 192.5 349.5 c 128,-1,20
 170 319 170 319 156.5 278.5 c 128,-1,21
 143 238 143 238 143 192 c 0,22,23
 143 136 143 136 167.5 105.5 c 128,-1,24
 192 75 192 75 242 75 c 0,25,26
 271 75 271 75 293.5 86.5 c 128,-1,27
 316 98 316 98 335 113 c 1,28,-1
 381 45 l 1,29,30
 353 25 353 25 314.5 6.5 c 128,-1,31
 276 -12 276 -12 220 -12 c 0,0,1
EndSplineSet
Validated: 1
Substitution2: "'sups' Superscript in Latin lookup 12 subtable" c.sups
Substitution2: "'aalt' Access All Alternates in Latin lookup 0 subtable" c.sups
EndChar

StartChar: d
Encoding: 100 100 31
Width: 540
GlyphClass: 2
Flags: W
AnchorPoint: "Anchor-3" 234 -22 basechar 0
AnchorPoint: "Anchor-0" 504 730 basechar 0
LayerCount: 2
Fore
SplineSet
410 438 m 1,0,-1
 424 532 l 1,1,-1
 458 706 l 1,2,-1
 565 706 l 1,3,-1
 423 0 l 1,4,-1
 335 0 l 1,5,-1
 340 68 l 1,6,-1
 337 68 l 1,7,8
 302 32 302 32 259.5 10 c 128,-1,9
 217 -12 217 -12 175 -12 c 0,10,11
 110 -12 110 -12 72.5 34 c 128,-1,12
 35 80 35 80 35 167 c 0,13,14
 35 237 35 237 57 298.5 c 128,-1,15
 79 360 79 360 116 405.5 c 128,-1,16
 153 451 153 451 200.5 477 c 128,-1,17
 248 503 248 503 299 503 c 0,18,19
 335 503 335 503 363 485 c 128,-1,20
 391 467 391 467 407 438 c 1,21,-1
 410 438 l 1,0,-1
219 76 m 0,22,23
 251 76 251 76 284 95 c 128,-1,24
 317 114 317 114 348 159 c 1,25,-1
 388 355 l 1,26,27
 371 387 371 387 349.5 401 c 128,-1,28
 328 415 328 415 305 415 c 0,29,30
 274 415 274 415 245 396.5 c 128,-1,31
 216 378 216 378 194 346 c 128,-1,32
 172 314 172 314 159 271.5 c 128,-1,33
 146 229 146 229 146 182 c 0,34,35
 146 128 146 128 165.5 102 c 128,-1,36
 185 76 185 76 219 76 c 0,22,23
EndSplineSet
Validated: 1
Substitution2: "'sups' Superscript in Latin lookup 12 subtable" d.sups
Substitution2: "'aalt' Access All Alternates in Latin lookup 0 subtable" d.sups
EndChar

StartChar: e
Encoding: 101 101 32
Width: 488
GlyphClass: 2
Flags: W
AnchorPoint: "Anchor-5" 287 0 basechar 0
AnchorPoint: "Anchor-3" 219 -22 basechar 0
AnchorPoint: "Anchor-0" 313 514 basechar 0
LayerCount: 2
Fore
SplineSet
33 196 m 0,0,1
 33 265 33 265 56.5 321.5 c 128,-1,2
 80 378 80 378 118.5 418.5 c 128,-1,3
 157 459 157 459 205 481 c 128,-1,4
 253 503 253 503 301 503 c 0,5,6
 344 503 344 503 373.5 489 c 128,-1,7
 403 475 403 475 421.5 450.5 c 128,-1,8
 440 426 440 426 448.5 393 c 128,-1,9
 457 360 457 360 457 322 c 0,10,11
 457 290 457 290 449 260 c 128,-1,12
 441 230 441 230 436 218 c 1,13,-1
 137 218 l 1,14,15
 133 179 133 179 141 151 c 128,-1,16
 149 123 149 123 165.5 105 c 128,-1,17
 182 87 182 87 206 78.5 c 128,-1,18
 230 70 230 70 258 70 c 0,19,20
 284 70 284 70 311 82 c 128,-1,21
 338 94 338 94 358 109 c 1,22,-1
 398 40 l 1,23,24
 368 19 368 19 325.5 3.5 c 128,-1,25
 283 -12 283 -12 230 -12 c 0,26,27
 186 -12 186 -12 150 2 c 128,-1,28
 114 16 114 16 88 42.5 c 128,-1,29
 62 69 62 69 47.5 107.5 c 128,-1,30
 33 146 33 146 33 196 c 0,0,1
146 286 m 1,31,-1
 363 286 l 1,32,33
 365 296 365 296 366.5 306.5 c 128,-1,34
 368 317 368 317 368 329 c 0,35,36
 368 365 368 365 350.5 392.5 c 128,-1,37
 333 420 333 420 288 420 c 256,38,39
 243 420 243 420 203.5 384.5 c 128,-1,40
 164 349 164 349 146 286 c 1,31,-1
EndSplineSet
Validated: 33
Substitution2: "'sups' Superscript in Latin lookup 12 subtable" e.sups
Substitution2: "'aalt' Access All Alternates in Latin lookup 0 subtable" e.sups
EndChar

StartChar: f
Encoding: 102 102 33
Width: 305
GlyphClass: 2
Flags: W
AnchorPoint: "Anchor-3" 101 -22 basechar 0
AnchorPoint: "Anchor-0" 318 740 basechar 0
LayerCount: 2
Fore
SplineSet
58 406 m 1,0,-1
 74 486 l 1,1,-1
 139 491 l 1,2,-1
 150 548 l 2,3,4
 165 623 165 623 207 670.5 c 128,-1,5
 249 718 249 718 323 718 c 0,6,7
 351 718 351 718 375 711 c 128,-1,8
 399 704 399 704 420 693 c 1,9,-1
 384 617 l 1,10,11
 375 622 375 622 361.5 627 c 128,-1,12
 348 632 348 632 333 632 c 0,13,14
 303 632 303 632 284 612.5 c 128,-1,15
 265 593 265 593 257 551 c 2,16,-1
 245 491 l 1,17,-1
 338 491 l 1,18,-1
 321 406 l 1,19,-1
 227 406 l 1,20,-1
 147 0 l 1,21,-1
 40 0 l 1,22,-1
 121 406 l 1,23,-1
 58 406 l 1,0,-1
EndSplineSet
Validated: 1
Substitution2: "'sups' Superscript in Latin lookup 12 subtable" f.sups
Substitution2: "'aalt' Access All Alternates in Latin lookup 0 subtable" f.sups
EndChar

StartChar: g
Encoding: 103 103 34
Width: 538
GlyphClass: 2
Flags: W
AnchorPoint: "Anchor-3" 166 -238 basechar 0
AnchorPoint: "Anchor-0" 319 514 basechar 0
LayerCount: 2
Fore
SplineSet
170 -218 m 0,0,1
 123 -218 123 -218 77.5 -200 c 128,-1,2
 32 -182 32 -182 -7 -150 c 1,3,-1
 41 -78 l 1,4,5
 69 -101 69 -101 102 -116.5 c 128,-1,6
 135 -132 135 -132 173 -132 c 0,7,8
 229 -132 229 -132 263.5 -99.5 c 128,-1,9
 298 -67 298 -67 313 -8 c 2,10,-1
 338 87 l 1,11,12
 303 51 303 51 262.5 30.5 c 128,-1,13
 222 10 222 10 178 10 c 0,14,15
 116 10 116 10 75.5 53.5 c 128,-1,16
 35 97 35 97 35 183 c 0,17,18
 35 250 35 250 56.5 308 c 128,-1,19
 78 366 78 366 114 409.5 c 128,-1,20
 150 453 150 453 196.5 478 c 128,-1,21
 243 503 243 503 293 503 c 0,22,23
 329 503 329 503 358.5 484.5 c 128,-1,24
 388 466 388 466 404 434 c 1,25,-1
 407 434 l 1,26,-1
 428 491 l 1,27,-1
 515 491 l 1,28,-1
 415 -7 l 2,29,30
 394 -111 394 -111 331 -164.5 c 128,-1,31
 268 -218 268 -218 170 -218 c 0,0,1
217 99 m 0,32,33
 246 99 246 99 280.5 116.5 c 128,-1,34
 315 134 315 134 344 173 c 1,35,-1
 381 355 l 1,36,37
 364 387 364 387 343 401 c 128,-1,38
 322 415 322 415 299 415 c 0,39,40
 269 415 269 415 241.5 397.5 c 128,-1,41
 214 380 214 380 192.5 350 c 128,-1,42
 171 320 171 320 158.5 280.5 c 128,-1,43
 146 241 146 241 146 197 c 0,44,45
 146 147 146 147 165.5 123 c 128,-1,46
 185 99 185 99 217 99 c 0,32,33
EndSplineSet
Validated: 1
Substitution2: "'ss03' Style Set 3 in Latin lookup 22 subtable" g.a
Substitution2: "'sups' Superscript in Latin lookup 12 subtable" g.sups
AlternateSubs2: "'aalt' Access All Alternates in Latin lookup 1 subtable" g.sups g.a
EndChar

StartChar: h
Encoding: 104 104 35
Width: 533
GlyphClass: 2
Flags: W
AnchorPoint: "Anchor-3" 231 -22 basechar 0
AnchorPoint: "Anchor-0" 224 730 basechar 0
LayerCount: 2
Fore
SplineSet
22 0 m 1,0,-1
 164 706 l 1,1,-1
 271 706 l 1,2,-1
 228 498 l 1,3,-1
 209 427 l 1,4,-1
 213 427 l 1,5,6
 251 459 251 459 290.5 481 c 128,-1,7
 330 503 330 503 375 503 c 0,8,9
 437 503 437 503 464 471 c 128,-1,10
 491 439 491 439 491 379 c 0,11,12
 491 362 491 362 489.5 346 c 128,-1,13
 488 330 488 330 483 310 c 2,14,-1
 421 0 l 1,15,-1
 314 0 l 1,16,-1
 374 296 l 2,17,18
 377 313 377 313 379.5 325 c 128,-1,19
 382 337 382 337 382 348 c 0,20,21
 382 411 382 411 320 411 c 0,22,23
 294 411 294 411 264.5 393 c 128,-1,24
 235 375 235 375 196 335 c 1,25,-1
 130 0 l 1,26,-1
 22 0 l 1,0,-1
EndSplineSet
Validated: 1
Substitution2: "'sups' Superscript in Latin lookup 12 subtable" h.sups
Substitution2: "'aalt' Access All Alternates in Latin lookup 0 subtable" h.sups
EndChar

StartChar: i
Encoding: 105 105 36
Width: 251
GlyphClass: 2
Flags: W
AnchorPoint: "Anchor-5" 70 0 basechar 0
AnchorPoint: "Anchor-3" 82 -22 basechar 0
AnchorPoint: "Anchor-0" 223 710 basechar 0
LayerCount: 2
Fore
SplineSet
22 0 m 1,0,-1
 121 491 l 1,1,-1
 228 491 l 1,2,-1
 130 0 l 1,3,-1
 22 0 l 1,0,-1
200 578 m 0,4,5
 177 578 177 578 158 592.5 c 128,-1,6
 139 607 139 607 139 634 c 0,7,8
 139 663 139 663 160 683.5 c 128,-1,9
 181 704 181 704 211 704 c 0,10,11
 234 704 234 704 253 689.5 c 128,-1,12
 272 675 272 675 272 648 c 0,13,14
 272 618 272 618 251 598 c 128,-1,15
 230 578 230 578 200 578 c 0,4,5
EndSplineSet
Validated: 1
Substitution2: "'sups' Superscript in Latin lookup 12 subtable" i.sups
Substitution2: "'aalt' Access All Alternates in Latin lookup 0 subtable" i.sups
EndChar

StartChar: j
Encoding: 106 106 37
Width: 252
GlyphClass: 2
Flags: W
AnchorPoint: "Anchor-3" -22 -235 basechar 0
AnchorPoint: "Anchor-0" 223 710 basechar 0
LayerCount: 2
Fore
SplineSet
-42 -206 m 0,0,1
 -67 -206 -67 -206 -87 -201.5 c 128,-1,2
 -107 -197 -107 -197 -128 -186 c 1,3,-1
 -94 -108 l 1,4,5
 -75 -120 -75 -120 -50 -120 c 0,6,7
 -23 -120 -23 -120 -8.5 -99 c 128,-1,8
 6 -78 6 -78 16 -36 c 2,9,-1
 122 491 l 1,10,-1
 229 491 l 1,11,-1
 123 -38 l 2,12,13
 115 -74 115 -74 102 -105 c 128,-1,14
 89 -136 89 -136 69.5 -158.5 c 128,-1,15
 50 -181 50 -181 22.5 -193.5 c 128,-1,16
 -5 -206 -5 -206 -42 -206 c 0,0,1
202 578 m 0,17,18
 178 578 178 578 159 592.5 c 128,-1,19
 140 607 140 607 140 634 c 0,20,21
 140 663 140 663 161 683.5 c 128,-1,22
 182 704 182 704 212 704 c 0,23,24
 236 704 236 704 255 689.5 c 128,-1,25
 274 675 274 675 274 648 c 0,26,27
 274 618 274 618 252.5 598 c 128,-1,28
 231 578 231 578 202 578 c 0,17,18
EndSplineSet
Validated: 1
Substitution2: "'sups' Superscript in Latin lookup 12 subtable" j.sups
Substitution2: "'aalt' Access All Alternates in Latin lookup 0 subtable" j.sups
EndChar

StartChar: k
Encoding: 107 107 38
Width: 501
GlyphClass: 2
Flags: W
AnchorPoint: "Anchor-3" 231 -22 basechar 0
AnchorPoint: "Anchor-0" 227 730 basechar 0
LayerCount: 2
Fore
SplineSet
22 0 m 1,0,-1
 164 706 l 1,1,-1
 271 706 l 1,2,-1
 182 262 l 1,3,-1
 186 262 l 1,4,-1
 403 491 l 1,5,-1
 523 491 l 1,6,-1
 325 281 l 1,7,-1
 442 0 l 1,8,-1
 334 0 l 1,9,-1
 250 218 l 1,10,-1
 154 121 l 1,11,-1
 130 0 l 1,12,-1
 22 0 l 1,0,-1
EndSplineSet
Validated: 1
Substitution2: "'sups' Superscript in Latin lookup 12 subtable" k.sups
Substitution2: "'aalt' Access All Alternates in Latin lookup 0 subtable" k.sups
EndChar

StartChar: l
Encoding: 108 108 39
Width: 262
GlyphClass: 2
Flags: W
AnchorPoint: "Anchor-3" 78 -22 basechar 0
AnchorPoint: "Anchor-0" 226 730 basechar 0
LayerCount: 2
Fore
SplineSet
123 -12 m 0,0,1
 80 -12 80 -12 60 9 c 128,-1,2
 40 30 40 30 40 68 c 0,3,4
 40 91 40 91 47 120 c 2,5,-1
 164 706 l 1,6,-1
 271 706 l 1,7,-1
 153 115 l 2,8,9
 151 107 151 107 151 103 c 128,-1,10
 151 99 151 99 151 96 c 0,11,12
 151 75 151 75 168 75 c 0,13,14
 173 75 173 75 176 75.5 c 128,-1,15
 179 76 179 76 186 78 c 1,16,-1
 184 -2 l 1,17,18
 173 -7 173 -7 158 -9.5 c 128,-1,19
 143 -12 143 -12 123 -12 c 0,0,1
EndSplineSet
Validated: 1
Substitution2: "'ss01' Style Set 1 in Latin lookup 20 subtable" l.a
Substitution2: "'sups' Superscript in Latin lookup 12 subtable" l.sups
AlternateSubs2: "'aalt' Access All Alternates in Latin lookup 1 subtable" l.sups l.a
EndChar

StartChar: m
Encoding: 109 109 40
Width: 813
GlyphClass: 2
Flags: W
AnchorPoint: "Anchor-3" 368 -22 basechar 0
AnchorPoint: "Anchor-0" 486 514 basechar 0
LayerCount: 2
Fore
SplineSet
22 0 m 1,0,-1
 120 491 l 1,1,-1
 207 491 l 1,2,-1
 202 422 l 1,3,-1
 206 422 l 1,4,5
 244 455 244 455 285 479 c 128,-1,6
 326 503 326 503 366 503 c 0,7,8
 394 503 394 503 414 496 c 128,-1,9
 434 489 434 489 447.5 477 c 128,-1,10
 461 465 461 465 468.5 448.5 c 128,-1,11
 476 432 476 432 480 412 c 1,12,13
 524 454 524 454 567 478.5 c 128,-1,14
 610 503 610 503 650 503 c 0,15,16
 711 503 711 503 738.5 471 c 128,-1,17
 766 439 766 439 766 379 c 0,18,19
 766 362 766 362 764 346 c 128,-1,20
 762 330 762 330 758 310 c 2,21,-1
 696 0 l 1,22,-1
 588 0 l 1,23,-1
 648 296 l 2,24,25
 652 313 652 313 654 325 c 128,-1,26
 656 337 656 337 656 348 c 0,27,28
 656 411 656 411 596 411 c 0,29,30
 577 411 577 411 547 393 c 128,-1,31
 517 375 517 375 479 335 c 1,32,-1
 412 0 l 1,33,-1
 305 0 l 1,34,-1
 364 296 l 2,35,36
 368 313 368 313 370 325 c 128,-1,37
 372 337 372 337 372 348 c 0,38,39
 372 411 372 411 313 411 c 0,40,41
 293 411 293 411 263 393 c 128,-1,42
 233 375 233 375 196 335 c 1,43,-1
 130 0 l 1,44,-1
 22 0 l 1,0,-1
EndSplineSet
Validated: 1
Substitution2: "'sups' Superscript in Latin lookup 12 subtable" m.sups
Substitution2: "'aalt' Access All Alternates in Latin lookup 0 subtable" m.sups
EndChar

StartChar: n
Encoding: 110 110 41
Width: 539
GlyphClass: 2
Flags: W
AnchorPoint: "Anchor-3" 232 -22 basechar 0
AnchorPoint: "Anchor-0" 348 514 basechar 0
LayerCount: 2
Fore
SplineSet
22 0 m 1,0,-1
 120 491 l 1,1,-1
 207 491 l 1,2,-1
 202 422 l 1,3,-1
 206 422 l 1,4,5
 245 455 245 455 286.5 479 c 128,-1,6
 328 503 328 503 375 503 c 0,7,8
 437 503 437 503 464 471 c 128,-1,9
 491 439 491 439 491 379 c 0,10,11
 491 362 491 362 489.5 346 c 128,-1,12
 488 330 488 330 483 310 c 2,13,-1
 421 0 l 1,14,-1
 314 0 l 1,15,-1
 374 296 l 2,16,17
 377 313 377 313 379.5 325 c 128,-1,18
 382 337 382 337 382 348 c 0,19,20
 382 411 382 411 320 411 c 0,21,22
 294 411 294 411 264.5 393 c 128,-1,23
 235 375 235 375 196 335 c 1,24,-1
 130 0 l 1,25,-1
 22 0 l 1,0,-1
EndSplineSet
Validated: 1
Substitution2: "'sups' Superscript in Latin lookup 12 subtable" n.sups
Substitution2: "'aalt' Access All Alternates in Latin lookup 0 subtable" n.sups
EndChar

StartChar: o
Encoding: 111 111 42
Width: 524
GlyphClass: 2
Flags: W
AnchorPoint: "Anchor-5" 215 0 basechar 0
AnchorPoint: "Anchor-4" 408 491 basechar 0
AnchorPoint: "Anchor-3" 196 -22 basechar 0
AnchorPoint: "Anchor-0" 328 514 basechar 0
LayerCount: 2
Fore
SplineSet
217 -12 m 0,0,1
 176 -12 176 -12 142 2 c 128,-1,2
 108 16 108 16 84 42 c 128,-1,3
 60 68 60 68 47 105 c 128,-1,4
 34 142 34 142 34 188 c 0,5,6
 34 258 34 258 57.5 316.5 c 128,-1,7
 81 375 81 375 119 416 c 128,-1,8
 157 457 157 457 205.5 480 c 128,-1,9
 254 503 254 503 304 503 c 0,10,11
 388 503 388 503 438 449.5 c 128,-1,12
 488 396 488 396 488 303 c 0,13,14
 488 233 488 233 464.5 175 c 128,-1,15
 441 117 441 117 403 75.5 c 128,-1,16
 365 34 365 34 316.5 11 c 128,-1,17
 268 -12 268 -12 217 -12 c 0,0,1
229 75 m 0,18,19
 258 75 258 75 285 92.5 c 128,-1,20
 312 110 312 110 333 140.5 c 128,-1,21
 354 171 354 171 366.5 212 c 128,-1,22
 379 253 379 253 379 300 c 0,23,24
 379 356 379 356 357 386 c 128,-1,25
 335 416 335 416 293 416 c 0,26,27
 264 416 264 416 236.5 398.5 c 128,-1,28
 209 381 209 381 188 351 c 128,-1,29
 167 321 167 321 154.5 280 c 128,-1,30
 142 239 142 239 142 192 c 0,31,32
 142 136 142 136 164 105.5 c 128,-1,33
 186 75 186 75 229 75 c 0,18,19
EndSplineSet
Validated: 1
Substitution2: "'sups' Superscript in Latin lookup 12 subtable" o.sups
Substitution2: "'aalt' Access All Alternates in Latin lookup 0 subtable" o.sups
EndChar

StartChar: p
Encoding: 112 112 43
Width: 544
GlyphClass: 2
Flags: W
AnchorPoint: "Anchor-3" 34 -218 basechar 0
AnchorPoint: "Anchor-0" 352 514 basechar 0
LayerCount: 2
Fore
SplineSet
134 52 m 1,0,-1
 118 -48 l 1,1,-1
 90 -194 l 1,2,-1
 -17 -194 l 1,3,-1
 121 491 l 1,4,-1
 208 491 l 1,5,-1
 206 431 l 1,6,-1
 209 431 l 1,7,8
 244 462 244 462 285 482.5 c 128,-1,9
 326 503 326 503 368 503 c 0,10,11
 434 503 434 503 471 457 c 128,-1,12
 508 411 508 411 508 324 c 0,13,14
 508 253 508 253 486 192 c 128,-1,15
 464 131 464 131 427 85.5 c 128,-1,16
 390 40 390 40 343 14 c 128,-1,17
 296 -12 296 -12 245 -12 c 0,18,19
 210 -12 210 -12 182 5.5 c 128,-1,20
 154 23 154 23 136 52 c 1,21,-1
 134 52 l 1,0,-1
324 415 m 0,22,23
 295 415 295 415 261 397.5 c 128,-1,24
 227 380 227 380 199 344 c 1,25,-1
 157 134 l 1,26,27
 173 103 173 103 194 89.5 c 128,-1,28
 215 76 215 76 238 76 c 0,29,30
 269 76 269 76 298 94.5 c 128,-1,31
 327 113 327 113 349 145 c 128,-1,32
 371 177 371 177 384.5 219.5 c 128,-1,33
 398 262 398 262 398 310 c 0,34,35
 398 364 398 364 378 389.5 c 128,-1,36
 358 415 358 415 324 415 c 0,22,23
EndSplineSet
Validated: 1
Substitution2: "'sups' Superscript in Latin lookup 12 subtable" p.sups
Substitution2: "'aalt' Access All Alternates in Latin lookup 0 subtable" p.sups
EndChar

StartChar: q
Encoding: 113 113 44
Width: 544
GlyphClass: 2
Flags: W
AnchorPoint: "Anchor-3" 338 -218 basechar 0
AnchorPoint: "Anchor-0" 337 514 basechar 0
LayerCount: 2
Fore
SplineSet
306 -48 m 1,0,-1
 340 69 l 1,1,-1
 338 69 l 1,2,3
 303 33 303 33 260 10.5 c 128,-1,4
 217 -12 217 -12 175 -12 c 0,5,6
 110 -12 110 -12 72.5 34 c 128,-1,7
 35 80 35 80 35 167 c 0,8,9
 35 237 35 237 57 298.5 c 128,-1,10
 79 360 79 360 116 405.5 c 128,-1,11
 153 451 153 451 200.5 477 c 128,-1,12
 248 503 248 503 299 503 c 0,13,14
 335 503 335 503 365 484.5 c 128,-1,15
 395 466 395 466 412 434 c 1,16,-1
 414 434 l 1,17,-1
 435 491 l 1,18,-1
 521 491 l 1,19,-1
 384 -194 l 1,20,-1
 276 -194 l 1,21,-1
 306 -48 l 1,0,-1
219 76 m 0,22,23
 248 76 248 76 282.5 95 c 128,-1,24
 317 114 317 114 348 159 c 1,25,-1
 388 355 l 1,26,27
 371 387 371 387 349.5 401 c 128,-1,28
 328 415 328 415 305 415 c 0,29,30
 274 415 274 415 245 396.5 c 128,-1,31
 216 378 216 378 194 346 c 128,-1,32
 172 314 172 314 159 271.5 c 128,-1,33
 146 229 146 229 146 182 c 0,34,35
 146 128 146 128 165.5 102 c 128,-1,36
 185 76 185 76 219 76 c 0,22,23
EndSplineSet
Validated: 1
Substitution2: "'sups' Superscript in Latin lookup 12 subtable" q.sups
Substitution2: "'aalt' Access All Alternates in Latin lookup 0 subtable" q.sups
EndChar

StartChar: r
Encoding: 114 114 45
Width: 363
GlyphClass: 2
Flags: W
AnchorPoint: "Anchor-3" 81 -22 basechar 0
AnchorPoint: "Anchor-0" 268 514 basechar 0
LayerCount: 2
Fore
SplineSet
22 0 m 1,0,-1
 120 491 l 1,1,-1
 207 491 l 1,2,-1
 198 396 l 1,3,-1
 202 396 l 1,4,5
 231 442 231 442 270 472.5 c 128,-1,6
 309 503 309 503 354 503 c 0,7,8
 383 503 383 503 403 494 c 1,9,-1
 367 400 l 1,10,11
 358 405 358 405 346 406.5 c 128,-1,12
 334 408 334 408 321 408 c 0,13,14
 286 408 286 408 252 381 c 128,-1,15
 218 354 218 354 188 297 c 1,16,-1
 130 0 l 1,17,-1
 22 0 l 1,0,-1
EndSplineSet
Validated: 1
Substitution2: "'sups' Superscript in Latin lookup 12 subtable" r.sups
Substitution2: "'aalt' Access All Alternates in Latin lookup 0 subtable" r.sups
EndChar

StartChar: s
Encoding: 115 115 46
Width: 413
GlyphClass: 2
Flags: W
AnchorPoint: "Anchor-3" 177 -22 basechar 0
AnchorPoint: "Anchor-2" 168 0 basechar 0
AnchorPoint: "Anchor-0" 270 514 basechar 0
LayerCount: 2
Fore
SplineSet
166 -12 m 0,0,1
 143 -12 143 -12 118.5 -5 c 128,-1,2
 94 2 94 2 71 14 c 128,-1,3
 48 26 48 26 28 43.5 c 128,-1,4
 8 61 8 61 -6 82 c 1,5,-1
 58 134 l 1,6,7
 82 102 82 102 111.5 85 c 128,-1,8
 141 68 141 68 174 68 c 0,9,10
 209 68 209 68 234.5 86.5 c 128,-1,11
 260 105 260 105 260 132 c 0,12,13
 260 155 260 155 239 171.5 c 128,-1,14
 218 188 218 188 172 214 c 0,15,16
 123 241 123 241 95 273 c 128,-1,17
 67 305 67 305 67 350 c 0,18,19
 67 383 67 383 81 411.5 c 128,-1,20
 95 440 95 440 119.5 460 c 128,-1,21
 144 480 144 480 176.5 491.5 c 128,-1,22
 209 503 209 503 246 503 c 0,23,24
 294 503 294 503 332.5 483 c 128,-1,25
 371 463 371 463 400 433 c 1,26,-1
 340 376 l 1,27,28
 321 395 321 395 298 408.5 c 128,-1,29
 275 422 275 422 246 422 c 0,30,31
 212 422 212 422 190 404 c 128,-1,32
 168 386 168 386 168 360 c 0,33,34
 168 346 168 346 175 336 c 128,-1,35
 182 326 182 326 194 317 c 128,-1,36
 206 308 206 308 221 300 c 128,-1,37
 236 292 236 292 252 283 c 0,38,39
 307 254 307 254 334 222 c 128,-1,40
 361 190 361 190 361 145 c 0,41,42
 361 109 361 109 346.5 80 c 128,-1,43
 332 51 332 51 306 30.5 c 128,-1,44
 280 10 280 10 244 -1 c 128,-1,45
 208 -12 208 -12 166 -12 c 0,0,1
EndSplineSet
Validated: 1
Substitution2: "'sups' Superscript in Latin lookup 12 subtable" s.sups
Substitution2: "'aalt' Access All Alternates in Latin lookup 0 subtable" s.sups
EndChar

StartChar: t
Encoding: 116 116 47
Width: 346
GlyphClass: 2
Flags: W
AnchorPoint: "Anchor-3" 169 -22 basechar 0
AnchorPoint: "Anchor-2" 175 0 basechar 0
AnchorPoint: "Anchor-0" 232 652 basechar 0
LayerCount: 2
Fore
SplineSet
194 -12 m 0,0,1
 125 -12 125 -12 95.5 22.5 c 128,-1,2
 66 57 66 57 66 108 c 0,3,4
 66 123 66 123 68 137 c 128,-1,5
 70 151 70 151 72 166 c 2,6,-1
 122 406 l 1,7,-1
 53 406 l 1,8,-1
 69 486 l 1,9,-1
 144 491 l 1,10,-1
 183 623 l 1,11,-1
 273 623 l 1,12,-1
 247 491 l 1,13,-1
 365 491 l 1,14,-1
 348 406 l 1,15,-1
 228 406 l 1,16,-1
 178 162 l 2,17,18
 175 144 175 144 175 127 c 0,19,20
 175 100 175 100 188 86.5 c 128,-1,21
 201 73 201 73 232 73 c 0,22,23
 245 73 245 73 256 77 c 128,-1,24
 267 81 267 81 278 86 c 1,25,-1
 298 10 l 1,26,27
 280 2 280 2 254 -5 c 128,-1,28
 228 -12 228 -12 194 -12 c 0,0,1
EndSplineSet
Validated: 1
Substitution2: "'sups' Superscript in Latin lookup 12 subtable" t.sups
Substitution2: "'aalt' Access All Alternates in Latin lookup 0 subtable" t.sups
EndChar

StartChar: u
Encoding: 117 117 48
Width: 537
GlyphClass: 2
Flags: W
AnchorPoint: "Anchor-5" 340 0 basechar 0
AnchorPoint: "Anchor-4" 460 501 basechar 0
AnchorPoint: "Anchor-3" 246 -27 basechar 0
AnchorPoint: "Anchor-0" 322 514 basechar 0
LayerCount: 2
Fore
SplineSet
512 491 m 1,0,-1
 415 0 l 1,1,-1
 328 0 l 1,2,-1
 332 70 l 1,3,-1
 328 70 l 1,4,5
 291 37 291 37 250 12.5 c 128,-1,6
 209 -12 209 -12 164 -12 c 0,7,8
 102 -12 102 -12 74.5 20.5 c 128,-1,9
 47 53 47 53 47 112 c 0,10,11
 47 129 47 129 49 145.5 c 128,-1,12
 51 162 51 162 55 181 c 2,13,-1
 117 491 l 1,14,-1
 224 491 l 1,15,-1
 165 195 l 2,16,17
 161 178 161 178 159 166 c 128,-1,18
 157 154 157 154 157 143 c 0,19,20
 157 80 157 80 218 80 c 0,21,22
 267 80 267 80 339 156 c 1,23,-1
 405 491 l 1,24,-1
 512 491 l 1,0,-1
EndSplineSet
Validated: 1
Substitution2: "'sups' Superscript in Latin lookup 12 subtable" u.sups
Substitution2: "'aalt' Access All Alternates in Latin lookup 0 subtable" u.sups
EndChar

StartChar: v
Encoding: 118 118 49
Width: 474
GlyphClass: 2
Flags: W
AnchorPoint: "Anchor-3" 200 -22 basechar 0
AnchorPoint: "Anchor-0" 302 514 basechar 0
LayerCount: 2
Fore
SplineSet
126 0 m 1,0,-1
 59 491 l 1,1,-1
 166 491 l 1,2,-1
 192 230 l 2,3,4
 196 193 196 193 198 156 c 128,-1,5
 200 119 200 119 202 81 c 1,6,-1
 206 81 l 1,7,8
 223 119 223 119 240.5 155.5 c 128,-1,9
 258 192 258 192 275 230 c 2,10,-1
 402 491 l 1,11,-1
 508 491 l 1,12,-1
 252 0 l 1,13,-1
 126 0 l 1,0,-1
EndSplineSet
Validated: 1
Substitution2: "'sups' Superscript in Latin lookup 12 subtable" v.sups
Substitution2: "'aalt' Access All Alternates in Latin lookup 0 subtable" v.sups
EndChar

StartChar: w
Encoding: 119 119 50
Width: 728
GlyphClass: 2
Flags: W
AnchorPoint: "Anchor-3" 327 -22 basechar 0
AnchorPoint: "Anchor-0" 421 514 basechar 0
LayerCount: 2
Fore
SplineSet
100 0 m 1,0,-1
 71 491 l 1,1,-1
 177 491 l 1,2,-1
 185 228 l 2,3,4
 186 193 186 193 185 158 c 128,-1,5
 184 123 184 123 184 87 c 1,6,-1
 188 87 l 1,7,8
 202 123 202 123 215.5 158 c 128,-1,9
 229 193 229 193 245 228 c 2,10,-1
 359 491 l 1,11,-1
 457 491 l 1,12,-1
 470 228 l 2,13,14
 471 193 471 193 471 158 c 128,-1,15
 471 123 471 123 472 87 c 1,16,-1
 476 87 l 1,17,18
 490 123 490 123 502.5 158 c 128,-1,19
 515 193 515 193 530 228 c 2,20,-1
 639 491 l 1,21,-1
 739 491 l 1,22,-1
 523 0 l 1,23,-1
 395 0 l 1,24,-1
 386 236 l 2,25,26
 386 271 386 271 385.5 307 c 128,-1,27
 385 343 385 343 385 381 c 1,28,-1
 381 381 l 1,29,30
 367 343 367 343 353.5 307 c 128,-1,31
 340 271 340 271 326 236 c 2,32,-1
 225 0 l 1,33,-1
 100 0 l 1,0,-1
EndSplineSet
Validated: 33
Substitution2: "'sups' Superscript in Latin lookup 12 subtable" w.sups
Substitution2: "'aalt' Access All Alternates in Latin lookup 0 subtable" w.sups
EndChar

StartChar: x
Encoding: 120 120 51
Width: 460
GlyphClass: 2
Flags: W
AnchorPoint: "Anchor-3" 192 -22 basechar 0
AnchorPoint: "Anchor-0" 294 515 basechar 0
LayerCount: 2
Fore
SplineSet
-42 0 m 1,0,-1
 172 262 l 1,1,-1
 83 491 l 1,2,-1
 192 491 l 1,3,-1
 228 395 l 2,4,5
 235 373 235 373 241 353 c 128,-1,6
 247 333 247 333 254 312 c 1,7,-1
 258 312 l 1,8,9
 272 332 272 332 286.5 353 c 128,-1,10
 301 374 301 374 315 395 c 2,11,-1
 383 491 l 1,12,-1
 498 491 l 1,13,-1
 301 238 l 1,14,-1
 396 0 l 1,15,-1
 286 0 l 1,16,-1
 249 100 l 2,17,18
 241 122 241 122 233 144.5 c 128,-1,19
 225 167 225 167 217 188 c 1,20,-1
 213 188 l 1,21,22
 199 167 199 167 183.5 145.5 c 128,-1,23
 168 124 168 124 151 101 c 2,24,-1
 74 0 l 1,25,-1
 -42 0 l 1,0,-1
EndSplineSet
Validated: 1
Substitution2: "'sups' Superscript in Latin lookup 12 subtable" x.sups
Substitution2: "'aalt' Access All Alternates in Latin lookup 0 subtable" x.sups
EndChar

StartChar: y
Encoding: 121 121 52
Width: 474
GlyphClass: 2
Flags: W
AnchorPoint: "Anchor-3" 120 -242 basechar 0
AnchorPoint: "Anchor-0" 284 514 basechar 0
LayerCount: 2
Fore
SplineSet
15 -202 m 0,0,1
 3 -202 3 -202 -15.5 -197 c 128,-1,2
 -34 -192 -34 -192 -48 -184 c 1,3,-1
 -14 -106 l 1,4,5
 3 -116 3 -116 22 -116 c 0,6,7
 54 -116 54 -116 83 -91.5 c 128,-1,8
 112 -67 112 -67 132 -25 c 2,9,-1
 147 5 l 1,10,-1
 62 491 l 1,11,-1
 169 491 l 1,12,-1
 200 243 l 2,13,14
 204 210 204 210 207 170.5 c 128,-1,15
 210 131 210 131 212 96 c 1,16,-1
 216 96 l 1,17,18
 233 131 233 131 250.5 169.5 c 128,-1,19
 268 208 268 208 285 243 c 2,20,-1
 407 491 l 1,21,-1
 511 491 l 1,22,-1
 235 -26 l 2,23,24
 212 -66 212 -66 188.5 -98.5 c 128,-1,25
 165 -131 165 -131 139 -154 c 128,-1,26
 113 -177 113 -177 82.5 -189.5 c 128,-1,27
 52 -202 52 -202 15 -202 c 0,0,1
EndSplineSet
Validated: 1
Substitution2: "'sups' Superscript in Latin lookup 12 subtable" y.sups
Substitution2: "'aalt' Access All Alternates in Latin lookup 0 subtable" y.sups
EndChar

StartChar: z
Encoding: 122 122 53
Width: 427
GlyphClass: 2
Flags: W
AnchorPoint: "Anchor-3" 180 -22 basechar 0
AnchorPoint: "Anchor-0" 282 514 basechar 0
LayerCount: 2
Fore
SplineSet
-10 0 m 1,0,-1
 2 61 l 1,1,-1
 294 406 l 1,2,-1
 94 406 l 1,3,-1
 111 491 l 1,4,-1
 446 491 l 1,5,-1
 434 429 l 1,6,-1
 141 85 l 1,7,-1
 372 85 l 1,8,-1
 355 0 l 1,9,-1
 -10 0 l 1,0,-1
EndSplineSet
Validated: 1
Substitution2: "'sups' Superscript in Latin lookup 12 subtable" z.sups
Substitution2: "'aalt' Access All Alternates in Latin lookup 0 subtable" z.sups
EndChar

StartChar: Aogonek
Encoding: 260 260 75
Width: 529
GlyphClass: 2
Flags: W
AnchorPoint: "Anchor-1" 366 682 basechar 0
LayerCount: 2
Fore
SplineSet
388 -216 m 0,0,1
 350 -216 350 -216 326 -197.5 c 128,-1,2
 302 -179 302 -179 302 -144 c 0,3,4
 302 -121 302 -121 311.5 -99.5 c 128,-1,5
 321 -78 321 -78 335 -59.5 c 128,-1,6
 349 -41 349 -41 366 -26 c 128,-1,7
 383 -11 383 -11 398 0 c 1,8,-1
 378 0 l 1,9,-1
 365 184 l 1,10,-1
 152 184 l 1,11,-1
 61 0 l 1,12,-1
 -58 0 l 1,13,-1
 292 654 l 1,14,-1
 420 654 l 1,15,-1
 490 0 l 1,16,17
 436 -25 436 -25 412.5 -54.5 c 128,-1,18
 389 -84 389 -84 389 -110 c 0,19,20
 389 -127 389 -127 399.5 -136 c 128,-1,21
 410 -145 410 -145 424 -145 c 0,22,23
 439 -145 439 -145 456 -135 c 1,24,-1
 478 -190 l 1,25,26
 458 -202 458 -202 433.5 -209 c 128,-1,27
 409 -216 409 -216 388 -216 c 0,0,1
241 365 m 2,28,-1
 192 266 l 1,29,-1
 359 266 l 1,30,-1
 352 365 l 2,31,32
 349 416 349 416 345.5 465 c 128,-1,33
 342 514 342 514 340 568 c 1,34,-1
 336 568 l 1,35,36
 312 514 312 514 289.5 465 c 128,-1,37
 267 416 267 416 241 365 c 2,28,-1
EndSplineSet
Validated: 1
Ligature2: "'ccmp' Glyph Composition/Decomposition in Latin lookup 6 subtable" A uni0328
EndChar

StartChar: AE
Encoding: 198 198 76
Width: 821
GlyphClass: 2
Flags: W
AnchorPoint: "Anchor-1" 569 694 basechar 0
LayerCount: 2
Fore
SplineSet
327 373 m 2,0,-1
 254 259 l 1,1,-1
 399 259 l 1,2,-1
 462 574 l 1,3,-1
 459 574 l 1,4,5
 425 522 425 522 392.5 473 c 128,-1,6
 360 424 360 424 327 373 c 2,0,-1
-34 0 m 1,7,-1
 406 654 l 1,8,-1
 842 654 l 1,9,-1
 824 563 l 1,10,-1
 567 563 l 1,11,-1
 532 387 l 1,12,-1
 749 387 l 1,13,-1
 731 296 l 1,14,-1
 515 296 l 1,15,-1
 473 91 l 1,16,-1
 739 91 l 1,17,-1
 721 0 l 1,18,-1
 348 0 l 1,19,-1
 383 174 l 1,20,-1
 199 174 l 1,21,-1
 88 0 l 1,22,-1
 -34 0 l 1,7,-1
EndSplineSet
Validated: 1
EndChar

StartChar: Eogonek
Encoding: 280 280 102
Width: 515
GlyphClass: 2
Flags: W
AnchorPoint: "Anchor-1" 373 682 basechar 0
LayerCount: 2
Fore
SplineSet
32 0 m 1,0,-1
 162 654 l 1,1,-1
 537 654 l 1,2,-1
 519 563 l 1,3,-1
 251 563 l 1,4,-1
 216 387 l 1,5,-1
 443 387 l 1,6,-1
 425 296 l 1,7,-1
 199 296 l 1,8,-1
 157 91 l 1,9,-1
 433 91 l 1,10,-1
 415 0 l 1,11,12
 392 -3 392 -3 372.5 -15.5 c 128,-1,13
 353 -28 353 -28 339 -44.5 c 128,-1,14
 325 -61 325 -61 317 -78.5 c 128,-1,15
 309 -96 309 -96 309 -110 c 0,16,17
 309 -127 309 -127 319.5 -136 c 128,-1,18
 330 -145 330 -145 344 -145 c 0,19,20
 359 -145 359 -145 376 -135 c 1,21,-1
 398 -190 l 1,22,23
 378 -202 378 -202 353.5 -209 c 128,-1,24
 329 -216 329 -216 308 -216 c 0,25,26
 270 -216 270 -216 246 -197.5 c 128,-1,27
 222 -179 222 -179 222 -144 c 0,28,29
 222 -120 222 -120 232 -98 c 128,-1,30
 242 -76 242 -76 256.5 -57 c 128,-1,31
 271 -38 271 -38 287.5 -23.5 c 128,-1,32
 304 -9 304 -9 317 0 c 1,33,-1
 32 0 l 1,0,-1
EndSplineSet
Validated: 1
Ligature2: "'ccmp' Glyph Composition/Decomposition in Latin lookup 6 subtable" E uni0328
EndChar

StartChar: Hbar
Encoding: 294 294 113
Width: 650
Flags: W
LayerCount: 2
Fore
SplineSet
73 491 m 1,0,-1
 84 543 l 1,1,-1
 147 546 l 1,2,-1
 168 654 l 1,3,-1
 276 654 l 1,4,-1
 254 547 l 1,5,-1
 513 547 l 1,6,-1
 534 654 l 1,7,-1
 642 654 l 1,8,-1
 621 547 l 1,9,-1
 709 547 l 1,10,-1
 698 491 l 1,11,-1
 609 491 l 1,12,-1
 511 0 l 1,13,-1
 403 0 l 1,14,-1
 463 295 l 1,15,-1
 204 295 l 1,16,-1
 146 0 l 1,17,-1
 38 0 l 1,18,-1
 136 491 l 1,19,-1
 73 491 l 1,0,-1
222 389 m 1,20,-1
 481 389 l 1,21,-1
 501 491 l 1,22,-1
 243 491 l 1,23,-1
 222 389 l 1,20,-1
EndSplineSet
Validated: 1
EndChar

StartChar: Iogonek
Encoding: 302 302 124
Width: 345
GlyphClass: 2
Flags: W
AnchorPoint: "Anchor-1" 260 682 basechar 0
LayerCount: 2
Fore
SplineSet
84 -216 m 0,0,1
 46 -216 46 -216 22.5 -197.5 c 128,-1,2
 -1 -179 -1 -179 -1 -144 c 0,3,4
 -1 -120 -1 -120 9 -98 c 128,-1,5
 19 -76 19 -76 33 -57 c 128,-1,6
 47 -38 47 -38 63.5 -23.5 c 128,-1,7
 80 -9 80 -9 92 0 c 1,8,-1
 -7 0 l 1,9,-1
 12 91 l 1,10,-1
 85 91 l 1,11,-1
 181 563 l 1,12,-1
 106 563 l 1,13,-1
 125 654 l 1,14,-1
 382 654 l 1,15,-1
 363 563 l 1,16,-1
 289 563 l 1,17,-1
 193 91 l 1,18,-1
 270 91 l 1,19,-1
 251 0 l 1,20,-1
 176 0 l 1,21,22
 133 -21 133 -21 109.5 -52.5 c 128,-1,23
 86 -84 86 -84 86 -110 c 0,24,25
 86 -127 86 -127 96.5 -136 c 128,-1,26
 107 -145 107 -145 121 -145 c 0,27,28
 136 -145 136 -145 152 -135 c 1,29,-1
 174 -188 l 1,30,31
 156 -201 156 -201 130 -208.5 c 128,-1,32
 104 -216 104 -216 84 -216 c 0,0,1
EndSplineSet
Substitution2: "'ss04' Style Set 4 in Latin lookup 23 subtable" Iogonek.a
Ligature2: "'ccmp' Glyph Composition/Decomposition in Latin lookup 6 subtable" I uni0328
Substitution2: "'aalt' Access All Alternates in Latin lookup 0 subtable" Iogonek.a
EndChar

StartChar: Lslash
Encoding: 321 321 134
Width: 481
Flags: W
LayerCount: 2
Fore
SplineSet
13 190 m 1,0,-1
 -13 260 l 1,1,-1
 94 312 l 1,2,-1
 162 654 l 1,3,-1
 270 654 l 1,4,-1
 213 368 l 1,5,-1
 380 451 l 1,6,-1
 407 380 l 1,7,-1
 195 276 l 1,8,-1
 158 91 l 1,9,-1
 419 91 l 1,10,-1
 401 0 l 1,11,-1
 32 0 l 1,12,-1
 76 221 l 1,13,-1
 13 190 l 1,0,-1
EndSplineSet
Validated: 1
EndChar

StartChar: Oslash
Encoding: 216 216 158
Width: 647
GlyphClass: 2
Flags: W
AnchorPoint: "Anchor-1" 426 682 basechar 0
LayerCount: 2
Fore
SplineSet
294 -12 m 0,0,1
 191 -12 191 -12 128 54 c 1,2,-1
 44 -35 l 1,3,-1
 -6 10 l 1,4,-1
 90 110 l 1,5,6
 58 174 58 174 58 263 c 0,7,8
 58 344 58 344 83.5 417 c 128,-1,9
 109 490 109 490 153 545.5 c 128,-1,10
 197 601 197 601 256.5 633.5 c 128,-1,11
 316 666 316 666 384 666 c 0,12,13
 438 666 438 666 480.5 648 c 128,-1,14
 523 630 523 630 553 597 c 1,15,-1
 644 692 l 1,16,-1
 692 647 l 1,17,-1
 590 540 l 1,18,19
 620 478 620 478 620 391 c 0,20,21
 620 310 620 310 595 237 c 128,-1,22
 570 164 570 164 526 108.5 c 128,-1,23
 482 53 482 53 422.5 20.5 c 128,-1,24
 363 -12 363 -12 294 -12 c 0,0,1
169 271 m 0,25,26
 169 233 169 233 175 200 c 1,27,-1
 479 519 l 1,28,29
 462 545 462 545 437 559 c 128,-1,30
 412 573 412 573 378 573 c 0,31,32
 334 573 334 573 296 547 c 128,-1,33
 258 521 258 521 230 479 c 128,-1,34
 202 437 202 437 185.5 382.5 c 128,-1,35
 169 328 169 328 169 271 c 0,25,26
300 81 m 0,36,37
 343 81 343 81 381.5 107 c 128,-1,38
 420 133 420 133 448.5 175 c 128,-1,39
 477 217 477 217 493.5 271.5 c 128,-1,40
 510 326 510 326 510 383 c 0,41,42
 510 419 510 419 504 449 c 1,43,-1
 202 131 l 1,44,45
 236 81 236 81 300 81 c 0,36,37
EndSplineSet
Validated: 1
EndChar

StartChar: OE
Encoding: 338 338 159
Width: 825
GlyphClass: 2
Flags: W
AnchorPoint: "Anchor-1" 580 682 basechar 0
LayerCount: 2
Fore
SplineSet
342 0 m 2,0,1
 205 0 205 0 131.5 65.5 c 128,-1,2
 58 131 58 131 58 256 c 0,3,4
 58 349 58 349 83.5 423 c 128,-1,5
 109 497 109 497 156 548 c 128,-1,6
 203 599 203 599 268.5 626.5 c 128,-1,7
 334 654 334 654 415 654 c 2,8,-1
 846 654 l 1,9,-1
 828 563 l 1,10,-1
 576 563 l 1,11,-1
 542 387 l 1,12,-1
 753 387 l 1,13,-1
 735 296 l 1,14,-1
 524 296 l 1,15,-1
 482 91 l 1,16,-1
 743 91 l 1,17,-1
 725 0 l 1,18,-1
 342 0 l 2,0,1
345 87 m 2,19,-1
 375 87 l 1,20,-1
 470 567 l 1,21,-1
 417 567 l 2,22,23
 362 567 362 567 316.5 546.5 c 128,-1,24
 271 526 271 526 238 487 c 128,-1,25
 205 448 205 448 187 391.5 c 128,-1,26
 169 335 169 335 169 263 c 0,27,28
 169 175 169 175 215 131 c 128,-1,29
 261 87 261 87 345 87 c 2,19,-1
EndSplineSet
Validated: 1
EndChar

StartChar: Ohorn
Encoding: 416 416 160
Width: 647
GlyphClass: 2
Flags: W
AnchorPoint: "Anchor-3" 290 -22 basechar 0
AnchorPoint: "Anchor-1" 414 682 basechar 0
LayerCount: 2
Fore
SplineSet
294 -12 m 0,0,1
 239 -12 239 -12 195 7 c 128,-1,2
 151 26 151 26 120.5 62 c 128,-1,3
 90 98 90 98 74 149 c 128,-1,4
 58 200 58 200 58 263 c 0,5,6
 58 344 58 344 83.5 417 c 128,-1,7
 109 490 109 490 153 545.5 c 128,-1,8
 197 601 197 601 256.5 633.5 c 128,-1,9
 316 666 316 666 384 666 c 0,10,11
 451 666 451 666 502 638 c 1,12,13
 547 643 547 643 569.5 669 c 128,-1,14
 592 695 592 695 592 730 c 0,15,16
 592 752 592 752 582 775 c 1,17,-1
 665 802 l 1,18,19
 679 766 679 766 679 737 c 0,20,21
 679 680 679 680 644 643.5 c 128,-1,22
 609 607 609 607 554 596 c 1,23,24
 620 522 620 522 620 391 c 0,25,26
 620 310 620 310 595 237 c 128,-1,27
 570 164 570 164 526 108.5 c 128,-1,28
 482 53 482 53 422.5 20.5 c 128,-1,29
 363 -12 363 -12 294 -12 c 0,0,1
300 81 m 0,30,31
 343 81 343 81 381.5 107 c 128,-1,32
 420 133 420 133 448.5 175 c 128,-1,33
 477 217 477 217 493.5 271.5 c 128,-1,34
 510 326 510 326 510 383 c 0,35,36
 510 471 510 471 477 522 c 128,-1,37
 444 573 444 573 378 573 c 0,38,39
 334 573 334 573 296 547 c 128,-1,40
 258 521 258 521 230 479 c 128,-1,41
 202 437 202 437 185.5 382.5 c 128,-1,42
 169 328 169 328 169 271 c 0,43,44
 169 183 169 183 201.5 132 c 128,-1,45
 234 81 234 81 300 81 c 0,30,31
EndSplineSet
Validated: 1
EndChar

StartChar: uni01EA
Encoding: 490 490 166
Width: 647
GlyphClass: 2
Flags: W
AnchorPoint: "Anchor-1" 423 682 basechar 0
LayerCount: 2
Fore
SplineSet
262 -216 m 0,0,1
 224 -216 224 -216 200.5 -197.5 c 128,-1,2
 177 -179 177 -179 177 -144 c 0,3,4
 177 -122 177 -122 185.5 -101.5 c 128,-1,5
 194 -81 194 -81 206.5 -63.5 c 128,-1,6
 219 -46 219 -46 234 -32.5 c 128,-1,7
 249 -19 249 -19 262 -10 c 1,8,9
 165 2 165 2 111.5 73.5 c 128,-1,10
 58 145 58 145 58 263 c 0,11,12
 58 344 58 344 83.5 417 c 128,-1,13
 109 490 109 490 153 545.5 c 128,-1,14
 197 601 197 601 256.5 633.5 c 128,-1,15
 316 666 316 666 384 666 c 0,16,17
 439 666 439 666 483 647 c 128,-1,18
 527 628 527 628 557.5 592 c 128,-1,19
 588 556 588 556 604 505 c 128,-1,20
 620 454 620 454 620 391 c 0,21,22
 620 325 620 325 603.5 264 c 128,-1,23
 587 203 587 203 555 151.5 c 128,-1,24
 523 100 523 100 475.5 60.5 c 128,-1,25
 428 21 428 21 367 -3 c 0,26,27
 312 -25 312 -25 288 -54.5 c 128,-1,28
 264 -84 264 -84 264 -110 c 0,29,30
 264 -127 264 -127 274.5 -136 c 128,-1,31
 285 -145 285 -145 299 -145 c 0,32,33
 314 -145 314 -145 330 -135 c 1,34,-1
 352 -190 l 1,35,36
 333 -202 333 -202 308 -209 c 128,-1,37
 283 -216 283 -216 262 -216 c 0,0,1
300 81 m 0,38,39
 343 81 343 81 381.5 107 c 128,-1,40
 420 133 420 133 448.5 175 c 128,-1,41
 477 217 477 217 493.5 271.5 c 128,-1,42
 510 326 510 326 510 383 c 0,43,44
 510 471 510 471 477 522 c 128,-1,45
 444 573 444 573 378 573 c 0,46,47
 334 573 334 573 296 547 c 128,-1,48
 258 521 258 521 230 479 c 128,-1,49
 202 437 202 437 185.5 382.5 c 128,-1,50
 169 328 169 328 169 271 c 0,51,52
 169 183 169 183 201.5 132 c 128,-1,53
 234 81 234 81 300 81 c 0,38,39
EndSplineSet
Validated: 1
Ligature2: "'ccmp' Glyph Composition/Decomposition in Latin lookup 6 subtable" O uni0328
EndChar

StartChar: uni1E9E
Encoding: 7838 7838 180
Width: 652
Flags: W
LayerCount: 2
Fore
SplineSet
406 -12 m 0,0,1
 352 -12 352 -12 306 8.5 c 128,-1,2
 260 29 260 29 227 70 c 1,3,-1
 290 136 l 1,4,5
 309 110 309 110 335 92.5 c 128,-1,6
 361 75 361 75 399 75 c 0,7,8
 419 75 419 75 437 83 c 128,-1,9
 455 91 455 91 468.5 105 c 128,-1,10
 482 119 482 119 490 138 c 128,-1,11
 498 157 498 157 498 179 c 0,12,13
 498 213 498 213 464.5 246.5 c 128,-1,14
 431 280 431 280 351 302 c 1,15,-1
 357 367 l 1,16,-1
 506 501 l 1,17,18
 492 543 492 543 460.5 564 c 128,-1,19
 429 585 429 585 384 585 c 0,20,21
 324 585 324 585 280.5 540 c 128,-1,22
 237 495 237 495 220 408 c 2,23,-1
 140 0 l 1,24,-1
 32 0 l 1,25,-1
 118 433 l 2,26,27
 128 484 128 484 149.5 527.5 c 128,-1,28
 171 571 171 571 204.5 603 c 128,-1,29
 238 635 238 635 284.5 653.5 c 128,-1,30
 331 672 331 672 391 672 c 0,31,32
 434 672 434 672 471.5 661.5 c 128,-1,33
 509 651 509 651 538 628.5 c 128,-1,34
 567 606 567 606 586.5 571 c 128,-1,35
 606 536 606 536 612 487 c 1,36,-1
 463 356 l 1,37,38
 531 330 531 330 570 286.5 c 128,-1,39
 609 243 609 243 609 186 c 0,40,41
 609 144 609 144 594 108 c 128,-1,42
 579 72 579 72 552.5 45.5 c 128,-1,43
 526 19 526 19 488.5 3.5 c 128,-1,44
 451 -12 451 -12 406 -12 c 0,0,1
EndSplineSet
Validated: 1
EndChar

StartChar: Uogonek
Encoding: 370 370 202
Width: 630
GlyphClass: 2
Flags: W
AnchorPoint: "Anchor-1" 414 682 basechar 0
LayerCount: 2
Fore
SplineSet
632 654 m 1,0,-1
 553 264 l 2,1,2
 541 202 541 202 523.5 157 c 128,-1,3
 506 112 506 112 481.5 80.5 c 128,-1,4
 457 49 457 49 425 28.5 c 128,-1,5
 393 8 393 8 353 -7 c 0,6,7
 298 -26 298 -26 274 -55.5 c 128,-1,8
 250 -85 250 -85 250 -110 c 0,9,10
 250 -127 250 -127 260.5 -136 c 128,-1,11
 271 -145 271 -145 285 -145 c 0,12,13
 300 -145 300 -145 316 -135 c 1,14,-1
 338 -190 l 1,15,16
 319 -202 319 -202 294 -209 c 128,-1,17
 269 -216 269 -216 248 -216 c 0,18,19
 210 -216 210 -216 186.5 -197.5 c 128,-1,20
 163 -179 163 -179 163 -144 c 0,21,22
 163 -124 163 -124 171 -104.5 c 128,-1,23
 179 -85 179 -85 191.5 -67 c 128,-1,24
 204 -49 204 -49 219 -34 c 128,-1,25
 234 -19 234 -19 249 -8 c 1,26,27
 164 4 164 4 120.5 57 c 128,-1,28
 77 110 77 110 77 205 c 0,29,30
 77 227 77 227 80.5 253 c 128,-1,31
 84 279 84 279 89 304 c 2,32,-1
 159 654 l 1,33,-1
 267 654 l 1,34,-1
 194 288 l 2,35,36
 185 246 185 246 185 211 c 0,37,38
 185 148 185 148 212 114.5 c 128,-1,39
 239 81 239 81 301 81 c 0,40,41
 353 81 353 81 390.5 123 c 128,-1,42
 428 165 428 165 448 264 c 2,43,-1
 526 654 l 1,44,-1
 632 654 l 1,0,-1
EndSplineSet
Validated: 1
Ligature2: "'ccmp' Glyph Composition/Decomposition in Latin lookup 6 subtable" U uni0328
EndChar

StartChar: Uhorn
Encoding: 431 431 203
Width: 648
GlyphClass: 2
Flags: W
AnchorPoint: "Anchor-3" 279 -22 basechar 0
AnchorPoint: "Anchor-1" 415 682 basechar 0
LayerCount: 2
Fore
SplineSet
89 304 m 2,0,-1
 159 654 l 1,1,-1
 267 654 l 1,2,-1
 194 288 l 2,3,4
 185 246 185 246 185 211 c 0,5,6
 185 148 185 148 212 114.5 c 128,-1,7
 239 81 239 81 301 81 c 0,8,9
 353 81 353 81 390.5 123 c 128,-1,10
 428 165 428 165 448 264 c 2,11,-1
 526 654 l 1,12,-1
 586 654 l 1,13,14
 674 665 674 665 674 736 c 0,15,16
 674 758 674 758 664 781 c 1,17,-1
 747 808 l 1,18,19
 761 776 761 776 761 744 c 0,20,21
 761 686 761 686 723.5 654 c 128,-1,22
 686 622 686 622 623 611 c 1,23,-1
 553 264 l 2,24,25
 524 118 524 118 459 53 c 128,-1,26
 394 -12 394 -12 297 -12 c 0,27,28
 188 -12 188 -12 132.5 42 c 128,-1,29
 77 96 77 96 77 205 c 0,30,31
 77 227 77 227 80.5 253 c 128,-1,32
 84 279 84 279 89 304 c 2,0,-1
EndSplineSet
Validated: 1
EndChar

StartChar: Eth
Encoding: 208 208 225
Width: 622
Flags: W
LayerCount: 2
Fore
SplineSet
42 315 m 1,0,-1
 53 367 l 1,1,-1
 124 371 l 1,2,-1
 180 654 l 1,3,-1
 313 654 l 2,4,5
 450 654 450 654 523 588.5 c 128,-1,6
 596 523 596 523 596 398 c 0,7,8
 596 305 596 305 570.5 231 c 128,-1,9
 545 157 545 157 498.5 106 c 128,-1,10
 452 55 452 55 386.5 27.5 c 128,-1,11
 321 0 321 0 240 0 c 2,12,-1
 50 0 l 1,13,-1
 113 315 l 1,14,-1
 42 315 l 1,0,-1
175 87 m 1,15,-1
 238 87 l 2,16,17
 293 87 293 87 338.5 107.5 c 128,-1,18
 384 128 384 128 417 167 c 128,-1,19
 450 206 450 206 468 262.5 c 128,-1,20
 486 319 486 319 486 391 c 0,21,22
 486 479 486 479 440 523 c 128,-1,23
 394 567 394 567 310 567 c 2,24,-1
 270 567 l 1,25,-1
 231 371 l 1,26,-1
 368 371 l 1,27,-1
 356 315 l 1,28,-1
 220 315 l 1,29,-1
 175 87 l 1,15,-1
EndSplineSet
Validated: 1
EndChar

StartChar: Thorn
Encoding: 222 222 226
Width: 579
Flags: W
LayerCount: 2
Fore
SplineSet
32 0 m 1,0,-1
 162 660 l 1,1,-1
 270 660 l 1,2,-1
 249 550 l 1,3,-1
 350 550 l 2,4,5
 395 550 395 550 432.5 541 c 128,-1,6
 470 532 470 532 497 512 c 128,-1,7
 524 492 524 492 539 460.5 c 128,-1,8
 554 429 554 429 554 384 c 0,9,10
 554 319 554 319 531 273 c 128,-1,11
 508 227 508 227 468.5 198 c 128,-1,12
 429 169 429 169 375 155 c 128,-1,13
 321 141 321 141 259 141 c 2,14,-1
 166 141 l 1,15,-1
 138 0 l 1,16,-1
 32 0 l 1,0,-1
184 227 m 1,17,-1
 267 227 l 2,18,19
 355 227 355 227 401 263 c 128,-1,20
 447 299 447 299 447 368 c 0,21,22
 447 419 447 419 415.5 441.5 c 128,-1,23
 384 464 384 464 324 464 c 2,24,-1
 231 464 l 1,25,-1
 184 227 l 1,17,-1
EndSplineSet
Validated: 1
EndChar

StartChar: uni018F
Encoding: 399 399 227
Width: 652
GlyphClass: 2
Flags: W
AnchorPoint: "Anchor-3" 313 -22 basechar 0
AnchorPoint: "Anchor-1" 468 682 basechar 0
LayerCount: 2
Fore
SplineSet
289 -12 m 0,0,1
 236 -12 236 -12 194.5 6 c 128,-1,2
 153 24 153 24 124 57 c 128,-1,3
 95 90 95 90 79.5 136.5 c 128,-1,4
 64 183 64 183 64 239 c 0,5,6
 64 274 64 274 69 300.5 c 128,-1,7
 74 327 74 327 83 359 c 1,8,-1
 518 359 l 1,9,10
 519 366 519 366 519 373 c 128,-1,11
 519 380 519 380 519 388 c 0,12,13
 519 477 519 477 488.5 528.5 c 128,-1,14
 458 580 458 580 384 580 c 0,15,16
 338 580 338 580 302 562 c 128,-1,17
 266 544 266 544 237 519 c 1,18,-1
 190 592 l 1,19,20
 228 627 228 627 280 649.5 c 128,-1,21
 332 672 332 672 397 672 c 0,22,23
 454 672 454 672 497.5 653 c 128,-1,24
 541 634 541 634 569.5 598.5 c 128,-1,25
 598 563 598 563 612.5 512.5 c 128,-1,26
 627 462 627 462 627 400 c 0,27,28
 627 309 627 309 600 233.5 c 128,-1,29
 573 158 573 158 527 103.5 c 128,-1,30
 481 49 481 49 419.5 18.5 c 128,-1,31
 358 -12 358 -12 289 -12 c 0,0,1
297 80 m 0,32,33
 332 80 332 80 364.5 94 c 128,-1,34
 397 108 397 108 424 134.5 c 128,-1,35
 451 161 451 161 472 197.5 c 128,-1,36
 493 234 493 234 505 279 c 1,37,-1
 167 279 l 1,38,39
 160 232 160 232 167 195 c 128,-1,40
 174 158 174 158 192 132.5 c 128,-1,41
 210 107 210 107 237 93.5 c 128,-1,42
 264 80 264 80 297 80 c 0,32,33
EndSplineSet
Validated: 33
EndChar

StartChar: aogonek
Encoding: 261 261 249
Width: 544
GlyphClass: 2
Flags: W
AnchorPoint: "Anchor-0" 319 514 basechar 0
LayerCount: 2
Fore
SplineSet
315 -208 m 0,0,1
 280 -208 280 -208 257 -190.5 c 128,-1,2
 234 -173 234 -173 234 -138 c 0,3,4
 234 -115 234 -115 244 -93.5 c 128,-1,5
 254 -72 254 -72 269 -53.5 c 128,-1,6
 284 -35 284 -35 302 -20.5 c 128,-1,7
 320 -6 320 -6 336 4 c 1,8,-1
 340 69 l 1,9,-1
 338 69 l 1,10,11
 303 33 303 33 260 10.5 c 128,-1,12
 217 -12 217 -12 175 -12 c 0,13,14
 110 -12 110 -12 72.5 34 c 128,-1,15
 35 80 35 80 35 167 c 0,16,17
 35 237 35 237 57 298.5 c 128,-1,18
 79 360 79 360 116 405.5 c 128,-1,19
 153 451 153 451 200.5 477 c 128,-1,20
 248 503 248 503 299 503 c 0,21,22
 335 503 335 503 365.5 484 c 128,-1,23
 396 465 396 465 412 433 c 1,24,-1
 414 433 l 1,25,-1
 435 491 l 1,26,-1
 521 491 l 1,27,-1
 423 0 l 1,28,29
 372 -20 372 -20 343.5 -48 c 128,-1,30
 315 -76 315 -76 315 -108 c 0,31,32
 315 -124 315 -124 325.5 -132.5 c 128,-1,33
 336 -141 336 -141 350 -141 c 0,34,35
 368 -141 368 -141 385 -130 c 1,36,-1
 405 -178 l 1,37,38
 386 -191 386 -191 361 -199.5 c 128,-1,39
 336 -208 336 -208 315 -208 c 0,0,1
219 76 m 0,40,41
 248 76 248 76 283 95 c 128,-1,42
 318 114 318 114 348 159 c 1,43,-1
 388 356 l 1,44,45
 371 388 371 388 349.5 401.5 c 128,-1,46
 328 415 328 415 305 415 c 0,47,48
 274 415 274 415 245 396.5 c 128,-1,49
 216 378 216 378 194 346 c 128,-1,50
 172 314 172 314 159 271.5 c 128,-1,51
 146 229 146 229 146 182 c 0,52,53
 146 128 146 128 165.5 102 c 128,-1,54
 185 76 185 76 219 76 c 0,40,41
EndSplineSet
Validated: 1
Substitution2: "'ss02' Style Set 2 in Latin lookup 21 subtable" aogonek.a
Ligature2: "'ccmp' Glyph Composition/Decomposition in Latin lookup 6 subtable" a uni0328
Substitution2: "'aalt' Access All Alternates in Latin lookup 0 subtable" aogonek.a
EndChar

StartChar: ae
Encoding: 230 230 250
Width: 758
Flags: W
LayerCount: 2
Fore
SplineSet
27 109 m 0,0,1
 27 162 27 162 50.5 198.5 c 128,-1,2
 74 235 74 235 115.5 258.5 c 128,-1,3
 157 282 157 282 214 293 c 128,-1,4
 271 304 271 304 338 306 c 1,5,6
 341 325 341 325 341 338 c 0,7,8
 341 418 341 418 266 418 c 0,9,10
 236 418 236 418 202.5 407 c 128,-1,11
 169 396 169 396 134 378 c 1,12,-1
 108 453 l 1,13,14
 150 475 150 475 196.5 489 c 128,-1,15
 243 503 243 503 290 503 c 0,16,17
 338 503 338 503 369.5 483.5 c 128,-1,18
 401 464 401 464 413 422 c 1,19,20
 446 460 446 460 487 481.5 c 128,-1,21
 528 503 528 503 570 503 c 0,22,23
 613 503 613 503 642.5 489 c 128,-1,24
 672 475 672 475 690.5 450.5 c 128,-1,25
 709 426 709 426 717.5 393 c 128,-1,26
 726 360 726 360 726 322 c 0,27,28
 726 290 726 290 718 260 c 128,-1,29
 710 230 710 230 705 218 c 1,30,-1
 418 218 l 1,31,32
 409 149 409 149 440.5 109.5 c 128,-1,33
 472 70 472 70 528 70 c 0,34,35
 554 70 554 70 580.5 82 c 128,-1,36
 607 94 607 94 628 109 c 1,37,-1
 667 40 l 1,38,39
 638 19 638 19 597.5 3.5 c 128,-1,40
 557 -12 557 -12 506 -12 c 0,41,42
 453 -12 453 -12 411.5 13.5 c 128,-1,43
 370 39 370 39 350 76 c 1,44,45
 304 34 304 34 257 11 c 128,-1,46
 210 -12 210 -12 156 -12 c 256,47,48
 102 -12 102 -12 64.5 20 c 128,-1,49
 27 52 27 52 27 109 c 0,0,1
427 286 m 1,50,-1
 632 286 l 1,51,52
 634 298 634 298 635.5 307.5 c 128,-1,53
 637 317 637 317 637 329 c 0,54,55
 637 365 637 365 619.5 392.5 c 128,-1,56
 602 420 602 420 557 420 c 0,57,58
 519 420 519 420 481.5 384.5 c 128,-1,59
 444 349 444 349 427 286 c 1,50,-1
324 238 m 1,60,61
 230 236 230 236 181 208 c 128,-1,62
 132 180 132 180 132 131 c 0,63,64
 132 102 132 102 150.5 87 c 128,-1,65
 169 72 169 72 198 72 c 0,66,67
 224 72 224 72 257 89.5 c 128,-1,68
 290 107 290 107 324 144 c 1,69,70
 320 169 320 169 320 190 c 128,-1,71
 320 211 320 211 324 238 c 1,60,61
EndSplineSet
Validated: 33
EndChar

StartChar: dcroat
Encoding: 273 273 259
Width: 542
Flags: W
LayerCount: 2
Fore
SplineSet
175 -12 m 0,0,1
 110 -12 110 -12 72.5 34 c 128,-1,2
 35 80 35 80 35 167 c 0,3,4
 35 230 35 230 57 287 c 128,-1,5
 79 344 79 344 115.5 387.5 c 128,-1,6
 152 431 152 431 199.5 457 c 128,-1,7
 247 483 247 483 298 483 c 0,8,9
 334 483 334 483 361.5 465 c 128,-1,10
 389 447 389 447 403 418 c 1,11,-1
 406 418 l 1,12,-1
 420 512 l 1,13,-1
 430 565 l 1,14,-1
 281 565 l 1,15,-1
 292 621 l 1,16,-1
 441 621 l 1,17,-1
 458 706 l 1,18,-1
 565 706 l 1,19,-1
 548 621 l 1,20,-1
 617 621 l 1,21,-1
 605 570 l 1,22,-1
 537 565 l 1,23,-1
 423 0 l 1,24,-1
 335 0 l 1,25,-1
 340 68 l 1,26,-1
 337 68 l 1,27,28
 302 32 302 32 259.5 10 c 128,-1,29
 217 -12 217 -12 175 -12 c 0,0,1
219 76 m 0,30,31
 251 76 251 76 284 95 c 128,-1,32
 317 114 317 114 348 159 c 1,33,-1
 384 335 l 1,34,35
 369 367 369 367 348 381 c 128,-1,36
 327 395 327 395 304 395 c 0,37,38
 273 395 273 395 244.5 376.5 c 128,-1,39
 216 358 216 358 194 328 c 128,-1,40
 172 298 172 298 159 260 c 128,-1,41
 146 222 146 222 146 182 c 0,42,43
 146 128 146 128 165.5 102 c 128,-1,44
 185 76 185 76 219 76 c 0,30,31
EndSplineSet
Validated: 1
EndChar

StartChar: eogonek
Encoding: 281 281 276
Width: 488
GlyphClass: 2
Flags: W
AnchorPoint: "Anchor-0" 313 514 basechar 0
LayerCount: 2
Fore
SplineSet
174 -138 m 0,0,1
 174 -115 174 -115 183 -94.5 c 128,-1,2
 192 -74 192 -74 205 -57.5 c 128,-1,3
 218 -41 218 -41 231 -29 c 128,-1,4
 244 -17 244 -17 252 -10 c 1,5,6
 247 -11 247 -11 241.5 -11.5 c 128,-1,7
 236 -12 236 -12 231 -12 c 0,8,9
 187 -12 187 -12 150.5 2 c 128,-1,10
 114 16 114 16 88 42.5 c 128,-1,11
 62 69 62 69 47.5 107.5 c 128,-1,12
 33 146 33 146 33 196 c 0,13,14
 33 265 33 265 56.5 321.5 c 128,-1,15
 80 378 80 378 118.5 418.5 c 128,-1,16
 157 459 157 459 205 481 c 128,-1,17
 253 503 253 503 301 503 c 0,18,19
 344 503 344 503 373.5 489 c 128,-1,20
 403 475 403 475 421.5 450.5 c 128,-1,21
 440 426 440 426 448.5 393 c 128,-1,22
 457 360 457 360 457 322 c 0,23,24
 457 290 457 290 449 260 c 128,-1,25
 441 230 441 230 436 218 c 1,26,-1
 137 218 l 1,27,28
 133 179 133 179 141 151 c 128,-1,29
 149 123 149 123 165.5 105 c 128,-1,30
 182 87 182 87 206 78.5 c 128,-1,31
 230 70 230 70 258 70 c 0,32,33
 284 70 284 70 311 82 c 128,-1,34
 338 94 338 94 358 109 c 1,35,-1
 398 40 l 1,36,37
 354 17 354 17 326.5 -4 c 128,-1,38
 299 -25 299 -25 282.5 -43.5 c 128,-1,39
 266 -62 266 -62 260 -78.5 c 128,-1,40
 254 -95 254 -95 254 -108 c 0,41,42
 254 -124 254 -124 264.5 -132.5 c 128,-1,43
 275 -141 275 -141 290 -141 c 0,44,45
 306 -141 306 -141 325 -130 c 1,46,-1
 344 -178 l 1,47,48
 325 -191 325 -191 300 -199.5 c 128,-1,49
 275 -208 275 -208 254 -208 c 0,50,51
 219 -208 219 -208 196.5 -190.5 c 128,-1,52
 174 -173 174 -173 174 -138 c 0,0,1
146 286 m 1,53,-1
 363 286 l 1,54,55
 365 296 365 296 366.5 306.5 c 128,-1,56
 368 317 368 317 368 329 c 0,57,58
 368 365 368 365 350.5 392.5 c 128,-1,59
 333 420 333 420 288 420 c 256,60,61
 243 420 243 420 203.5 384.5 c 128,-1,62
 164 349 164 349 146 286 c 1,53,-1
EndSplineSet
Validated: 33
Ligature2: "'ccmp' Glyph Composition/Decomposition in Latin lookup 6 subtable" e uni0328
EndChar

StartChar: hbar
Encoding: 295 295 287
Width: 533
Flags: W
LayerCount: 2
Fore
SplineSet
22 0 m 1,0,-1
 136 565 l 1,1,-1
 66 565 l 1,2,-1
 76 616 l 1,3,-1
 147 621 l 1,4,-1
 164 706 l 1,5,-1
 271 706 l 1,6,-1
 253 621 l 1,7,-1
 422 621 l 1,8,-1
 410 565 l 1,9,-1
 242 565 l 1,10,-1
 224 478 l 1,11,-1
 205 407 l 1,12,-1
 209 407 l 1,13,14
 247 439 247 439 286.5 461 c 128,-1,15
 326 483 326 483 371 483 c 0,16,17
 433 483 433 483 460 451 c 128,-1,18
 487 419 487 419 487 359 c 0,19,20
 487 342 487 342 485.5 326 c 128,-1,21
 484 310 484 310 479 290 c 2,22,-1
 421 0 l 1,23,-1
 314 0 l 1,24,-1
 370 276 l 2,25,26
 373 293 373 293 375.5 305 c 128,-1,27
 378 317 378 317 378 328 c 0,28,29
 378 391 378 391 316 391 c 0,30,31
 290 391 290 391 260.5 373 c 128,-1,32
 231 355 231 355 192 315 c 1,33,-1
 130 0 l 1,34,-1
 22 0 l 1,0,-1
EndSplineSet
Validated: 1
EndChar

StartChar: iogonek
Encoding: 303 303 297
Width: 251
GlyphClass: 3
Flags: W
LayerCount: 2
Fore
SplineSet
40 -208 m 0,0,1
 5 -208 5 -208 -17.5 -190.5 c 128,-1,2
 -40 -173 -40 -173 -40 -138 c 0,3,4
 -40 -115 -40 -115 -30.5 -94 c 128,-1,5
 -21 -73 -21 -73 -7 -55 c 128,-1,6
 7 -37 7 -37 22.5 -23 c 128,-1,7
 38 -9 38 -9 51 0 c 1,8,-1
 22 0 l 1,9,-1
 121 491 l 1,10,-1
 228 491 l 1,11,-1
 130 0 l 1,12,13
 84 -23 84 -23 62 -51 c 128,-1,14
 40 -79 40 -79 40 -108 c 0,15,16
 40 -124 40 -124 50.5 -132.5 c 128,-1,17
 61 -141 61 -141 76 -141 c 0,18,19
 93 -141 93 -141 110 -130 c 1,20,-1
 130 -178 l 1,21,22
 111 -191 111 -191 86 -199.5 c 128,-1,23
 61 -208 61 -208 40 -208 c 0,0,1
200 578 m 0,24,25
 177 578 177 578 158 592.5 c 128,-1,26
 139 607 139 607 139 634 c 0,27,28
 139 663 139 663 160 683.5 c 128,-1,29
 181 704 181 704 211 704 c 0,30,31
 234 704 234 704 253 689.5 c 128,-1,32
 272 675 272 675 272 648 c 0,33,34
 272 618 272 618 251 598 c 128,-1,35
 230 578 230 578 200 578 c 0,24,25
EndSplineSet
Validated: 1
Substitution2: "Single Substitution lookup 26 subtable" iogonek.d
Ligature2: "'ccmp' Glyph Composition/Decomposition in Latin lookup 6 subtable" i uni0328
EndChar

StartChar: iogonek.d
Encoding: 65539 -1 298
Width: 251
GlyphClass: 2
Flags: W
AnchorPoint: "Anchor-0" 185 514 basechar 0
LayerCount: 2
Fore
SplineSet
40 -208 m 0,0,1
 5 -208 5 -208 -17.5 -190.5 c 128,-1,2
 -40 -173 -40 -173 -40 -138 c 0,3,4
 -40 -115 -40 -115 -30.5 -94 c 128,-1,5
 -21 -73 -21 -73 -7 -55 c 128,-1,6
 7 -37 7 -37 22.5 -23 c 128,-1,7
 38 -9 38 -9 51 0 c 1,8,-1
 22 0 l 1,9,-1
 121 491 l 1,10,-1
 228 491 l 1,11,-1
 130 0 l 1,12,13
 84 -23 84 -23 62 -51 c 128,-1,14
 40 -79 40 -79 40 -108 c 0,15,16
 40 -124 40 -124 50.5 -132.5 c 128,-1,17
 61 -141 61 -141 76 -141 c 0,18,19
 93 -141 93 -141 110 -130 c 1,20,-1
 130 -178 l 1,21,22
 111 -191 111 -191 86 -199.5 c 128,-1,23
 61 -208 61 -208 40 -208 c 0,0,1
EndSplineSet
Validated: 1
Ligature2: "Ligature Substitution lookup 25 subtable" i uni0328
EndChar

StartChar: dotlessi
Encoding: 305 305 299
Width: 251
GlyphClass: 2
Flags: W
AnchorPoint: "Anchor-5" 71 0 basechar 0
AnchorPoint: "Anchor-3" 83 -22 basechar 0
AnchorPoint: "Anchor-0" 185 514 basechar 0
LayerCount: 2
Fore
SplineSet
22 0 m 1,0,-1
 121 491 l 1,1,-1
 228 491 l 1,2,-1
 130 0 l 1,3,-1
 22 0 l 1,0,-1
EndSplineSet
Validated: 1
EndChar

StartChar: kgreenlandic
Encoding: 312 312 302
Width: 501
Flags: W
LayerCount: 2
Fore
SplineSet
22 0 m 1,0,-1
 120 491 l 1,1,-1
 227 491 l 1,2,-1
 182 262 l 1,3,-1
 186 262 l 1,4,-1
 403 491 l 1,5,-1
 523 491 l 1,6,-1
 325 281 l 1,7,-1
 442 0 l 1,8,-1
 334 0 l 1,9,-1
 250 218 l 1,10,-1
 154 121 l 1,11,-1
 130 0 l 1,12,-1
 22 0 l 1,0,-1
EndSplineSet
Validated: 1
EndChar

StartChar: lslash
Encoding: 322 322 310
Width: 269
Flags: W
LayerCount: 2
Fore
SplineSet
130 -12 m 0,0,1
 87 -12 87 -12 67 9 c 128,-1,2
 47 30 47 30 47 68 c 0,3,4
 47 91 47 91 54 120 c 2,5,-1
 92 312 l 1,6,-1
 38 282 l 1,7,-1
 13 347 l 1,8,-1
 110 399 l 1,9,-1
 171 706 l 1,10,-1
 278 706 l 1,11,-1
 227 453 l 1,12,-1
 287 488 l 1,13,-1
 314 423 l 1,14,-1
 210 365 l 1,15,-1
 160 115 l 2,16,17
 158 107 158 107 158 103 c 128,-1,18
 158 99 158 99 158 96 c 0,19,20
 158 75 158 75 175 75 c 0,21,22
 180 75 180 75 183 75.5 c 128,-1,23
 186 76 186 76 193 78 c 1,24,-1
 191 -2 l 1,25,26
 180 -7 180 -7 165 -9.5 c 128,-1,27
 150 -12 150 -12 130 -12 c 0,0,1
EndSplineSet
Validated: 1
Substitution2: "'ss01' Style Set 1 in Latin lookup 20 subtable" lslash.a
Substitution2: "'aalt' Access All Alternates in Latin lookup 0 subtable" lslash.a
EndChar

StartChar: oslash
Encoding: 248 248 335
Width: 524
GlyphClass: 2
Flags: W
AnchorPoint: "Anchor-0" 328 514 basechar 0
LayerCount: 2
Fore
SplineSet
217 -12 m 0,0,1
 143 -12 143 -12 92 34 c 1,2,-1
 36 -24 l 1,3,-1
 0 10 l 1,4,-1
 62 73 l 1,5,6
 34 121 34 121 34 188 c 0,7,8
 34 258 34 258 57.5 316.5 c 128,-1,9
 81 375 81 375 119 416 c 128,-1,10
 157 457 157 457 205.5 480 c 128,-1,11
 254 503 254 503 304 503 c 0,12,13
 381 503 381 503 432 455 c 1,14,-1
 489 514 l 1,15,-1
 526 480 l 1,16,-1
 462 414 l 1,17,18
 488 368 488 368 488 303 c 0,19,20
 488 232 488 232 464.5 174 c 128,-1,21
 441 116 441 116 403 74.5 c 128,-1,22
 365 33 365 33 316.5 10.5 c 128,-1,23
 268 -12 268 -12 217 -12 c 0,0,1
135 192 m 0,24,25
 135 171 135 171 138 153 c 1,26,-1
 364 385 l 1,27,28
 339 418 339 418 296 418 c 0,29,30
 261 418 261 418 231.5 398 c 128,-1,31
 202 378 202 378 180.5 346 c 128,-1,32
 159 314 159 314 147 273.5 c 128,-1,33
 135 233 135 233 135 192 c 0,24,25
225 73 m 0,34,35
 261 73 261 73 290.5 92.5 c 128,-1,36
 320 112 320 112 341.5 144 c 128,-1,37
 363 176 363 176 374.5 216.5 c 128,-1,38
 386 257 386 257 386 298 c 0,39,40
 386 316 386 316 383 333 c 1,41,-1
 159 103 l 1,42,43
 183 73 183 73 225 73 c 0,34,35
EndSplineSet
Validated: 1
EndChar

StartChar: oe
Encoding: 339 339 336
Width: 805
GlyphClass: 2
Flags: W
AnchorPoint: "Anchor-0" 448 502 basechar 0
LayerCount: 2
Fore
SplineSet
211 -12 m 0,0,1
 130 -12 130 -12 82 42 c 128,-1,2
 34 96 34 96 34 188 c 0,3,4
 34 258 34 258 57 316.5 c 128,-1,5
 80 375 80 375 117.5 416 c 128,-1,6
 155 457 155 457 202 480 c 128,-1,7
 249 503 249 503 298 503 c 0,8,9
 356 503 356 503 391.5 475 c 128,-1,10
 427 447 427 447 444 393 c 1,11,12
 477 446 477 446 523.5 474.5 c 128,-1,13
 570 503 570 503 617 503 c 0,14,15
 660 503 660 503 689.5 489 c 128,-1,16
 719 475 719 475 738 450.5 c 128,-1,17
 757 426 757 426 765.5 393 c 128,-1,18
 774 360 774 360 774 322 c 0,19,20
 774 290 774 290 765.5 260 c 128,-1,21
 757 230 757 230 752 218 c 1,22,-1
 466 218 l 1,23,24
 463 179 463 179 470.5 151 c 128,-1,25
 478 123 478 123 493 105 c 128,-1,26
 508 87 508 87 529 78.5 c 128,-1,27
 550 70 550 70 575 70 c 0,28,29
 601 70 601 70 627.5 82 c 128,-1,30
 654 94 654 94 675 109 c 1,31,-1
 714 40 l 1,32,33
 685 19 685 19 642 3.5 c 128,-1,34
 599 -12 599 -12 546 -12 c 256,35,36
 493 -12 493 -12 455 17.5 c 128,-1,37
 417 47 417 47 400 104 c 1,38,39
 365 49 365 49 315 18.5 c 128,-1,40
 265 -12 265 -12 211 -12 c 0,0,1
229 75 m 0,41,42
 257 75 257 75 283 92.5 c 128,-1,43
 309 110 309 110 329 140.5 c 128,-1,44
 349 171 349 171 361 212 c 128,-1,45
 373 253 373 253 373 300 c 0,46,47
 373 356 373 356 351 386 c 128,-1,48
 329 416 329 416 287 416 c 0,49,50
 260 416 260 416 234 398.5 c 128,-1,51
 208 381 208 381 187.5 351 c 128,-1,52
 167 321 167 321 154.5 280 c 128,-1,53
 142 239 142 239 142 192 c 0,54,55
 142 136 142 136 164 105.5 c 128,-1,56
 186 75 186 75 229 75 c 0,41,42
476 286 m 1,57,-1
 680 286 l 1,58,59
 682 296 682 296 683 306.5 c 128,-1,60
 684 317 684 317 684 329 c 0,61,62
 684 365 684 365 666.5 392.5 c 128,-1,63
 649 420 649 420 604 420 c 0,64,65
 564 420 564 420 528.5 384.5 c 128,-1,66
 493 349 493 349 476 286 c 1,57,-1
EndSplineSet
Validated: 33
EndChar

StartChar: ohorn
Encoding: 417 417 337
Width: 528
GlyphClass: 2
Flags: W
AnchorPoint: "Anchor-3" 196 -22 basechar 0
AnchorPoint: "Anchor-0" 316 514 basechar 0
LayerCount: 2
Fore
SplineSet
217 -12 m 0,0,1
 176 -12 176 -12 142 2 c 128,-1,2
 108 16 108 16 84 42 c 128,-1,3
 60 68 60 68 47 105 c 128,-1,4
 34 142 34 142 34 188 c 0,5,6
 34 258 34 258 57.5 316.5 c 128,-1,7
 81 375 81 375 119 416 c 128,-1,8
 157 457 157 457 205.5 480 c 128,-1,9
 254 503 254 503 304 503 c 0,10,11
 355 503 355 503 397 481 c 1,12,13
 436 487 436 487 459 515.5 c 128,-1,14
 482 544 482 544 484 586 c 0,15,16
 484 595 484 595 482 608 c 128,-1,17
 480 621 480 621 476 631 c 1,18,-1
 558 658 l 1,19,20
 564 643 564 643 567 625 c 128,-1,21
 570 607 570 607 570 592 c 0,22,23
 570 533 570 533 535.5 493.5 c 128,-1,24
 501 454 501 454 446 440 c 1,25,26
 488 387 488 387 488 303 c 0,27,28
 488 233 488 233 464.5 175 c 128,-1,29
 441 117 441 117 403 75.5 c 128,-1,30
 365 34 365 34 316.5 11 c 128,-1,31
 268 -12 268 -12 217 -12 c 0,0,1
229 75 m 0,32,33
 258 75 258 75 285 92.5 c 128,-1,34
 312 110 312 110 333 140.5 c 128,-1,35
 354 171 354 171 366.5 212 c 128,-1,36
 379 253 379 253 379 300 c 0,37,38
 379 356 379 356 357 386 c 128,-1,39
 335 416 335 416 293 416 c 0,40,41
 264 416 264 416 236.5 398.5 c 128,-1,42
 209 381 209 381 188 351 c 128,-1,43
 167 321 167 321 154.5 280 c 128,-1,44
 142 239 142 239 142 192 c 0,45,46
 142 136 142 136 164 105.5 c 128,-1,47
 186 75 186 75 229 75 c 0,32,33
EndSplineSet
Validated: 1
EndChar

StartChar: uni1EE1
Encoding: 7905 7905 341
Width: 528
Flags: W
LayerCount: 2
Fore
SplineSet
365 575 m 0,0,1
 341 575 341 575 325.5 586.5 c 128,-1,2
 310 598 310 598 297 612.5 c 128,-1,3
 284 627 284 627 271.5 638.5 c 128,-1,4
 259 650 259 650 242 650 c 0,5,6
 206 650 206 650 192 582 c 1,7,-1
 123 586 l 1,8,9
 136 655 136 655 166 692.5 c 128,-1,10
 196 730 196 730 246 730 c 0,11,12
 270 730 270 730 285.5 718.5 c 128,-1,13
 301 707 301 707 314 693 c 128,-1,14
 327 679 327 679 339.5 667.5 c 128,-1,15
 352 656 352 656 369 656 c 0,16,17
 406 656 406 656 418 723 c 1,18,-1
 488 719 l 1,19,20
 475 651 475 651 444.5 613 c 128,-1,21
 414 575 414 575 365 575 c 0,0,1
217 -12 m 0,22,23
 176 -12 176 -12 142 2 c 128,-1,24
 108 16 108 16 84 42 c 128,-1,25
 60 68 60 68 47 105 c 128,-1,26
 34 142 34 142 34 188 c 0,27,28
 34 258 34 258 57.5 316.5 c 128,-1,29
 81 375 81 375 119 416 c 128,-1,30
 157 457 157 457 205.5 480 c 128,-1,31
 254 503 254 503 304 503 c 0,32,33
 355 503 355 503 397 481 c 1,34,35
 436 487 436 487 459 515.5 c 128,-1,36
 482 544 482 544 484 586 c 0,37,38
 484 595 484 595 482 608 c 128,-1,39
 480 621 480 621 476 631 c 1,40,-1
 558 658 l 1,41,42
 564 643 564 643 567 625 c 128,-1,43
 570 607 570 607 570 592 c 0,44,45
 570 533 570 533 535.5 493.5 c 128,-1,46
 501 454 501 454 446 440 c 1,47,48
 488 387 488 387 488 303 c 0,49,50
 488 233 488 233 464.5 175 c 128,-1,51
 441 117 441 117 403 75.5 c 128,-1,52
 365 34 365 34 316.5 11 c 128,-1,53
 268 -12 268 -12 217 -12 c 0,22,23
229 75 m 0,54,55
 258 75 258 75 285 92.5 c 128,-1,56
 312 110 312 110 333 140.5 c 128,-1,57
 354 171 354 171 366.5 212 c 128,-1,58
 379 253 379 253 379 300 c 0,59,60
 379 356 379 356 357 386 c 128,-1,61
 335 416 335 416 293 416 c 0,62,63
 264 416 264 416 236.5 398.5 c 128,-1,64
 209 381 209 381 188 351 c 128,-1,65
 167 321 167 321 154.5 280 c 128,-1,66
 142 239 142 239 142 192 c 0,67,68
 142 136 142 136 164 105.5 c 128,-1,69
 186 75 186 75 229 75 c 0,54,55
EndSplineSet
Validated: 1
EndChar

StartChar: uni01EB
Encoding: 491 491 343
Width: 524
GlyphClass: 2
Flags: W
AnchorPoint: "Anchor-0" 328 514 basechar 0
LayerCount: 2
Fore
SplineSet
185 -208 m 0,0,1
 150 -208 150 -208 127.5 -190.5 c 128,-1,2
 105 -173 105 -173 105 -138 c 0,3,4
 105 -115 105 -115 114.5 -94 c 128,-1,5
 124 -73 124 -73 137 -56 c 128,-1,6
 150 -39 150 -39 164 -26.5 c 128,-1,7
 178 -14 178 -14 188 -8 c 1,8,9
 117 2 117 2 75.5 51.5 c 128,-1,10
 34 101 34 101 34 188 c 0,11,12
 34 258 34 258 57.5 316.5 c 128,-1,13
 81 375 81 375 119 416 c 128,-1,14
 157 457 157 457 205.5 480 c 128,-1,15
 254 503 254 503 304 503 c 0,16,17
 344 503 344 503 377.5 489.5 c 128,-1,18
 411 476 411 476 435.5 450.5 c 128,-1,19
 460 425 460 425 474 388 c 128,-1,20
 488 351 488 351 488 303 c 0,21,22
 488 242 488 242 472 193 c 128,-1,23
 456 144 456 144 428.5 106.5 c 128,-1,24
 401 69 401 69 363.5 41.5 c 128,-1,25
 326 14 326 14 283 -4 c 0,26,27
 232 -25 232 -25 208.5 -55 c 128,-1,28
 185 -85 185 -85 185 -108 c 0,29,30
 185 -124 185 -124 195.5 -132.5 c 128,-1,31
 206 -141 206 -141 221 -141 c 0,32,33
 237 -141 237 -141 256 -130 c 1,34,-1
 275 -178 l 1,35,36
 256 -191 256 -191 231 -199.5 c 128,-1,37
 206 -208 206 -208 185 -208 c 0,0,1
229 75 m 0,38,39
 258 75 258 75 285 92.5 c 128,-1,40
 312 110 312 110 333 140.5 c 128,-1,41
 354 171 354 171 366.5 212 c 128,-1,42
 379 253 379 253 379 300 c 0,43,44
 379 356 379 356 357 386 c 128,-1,45
 335 416 335 416 293 416 c 0,46,47
 264 416 264 416 236.5 398.5 c 128,-1,48
 209 381 209 381 188 351 c 128,-1,49
 167 321 167 321 154.5 280 c 128,-1,50
 142 239 142 239 142 192 c 0,51,52
 142 136 142 136 164 105.5 c 128,-1,53
 186 75 186 75 229 75 c 0,38,39
EndSplineSet
Validated: 1
Ligature2: "'ccmp' Glyph Composition/Decomposition in Latin lookup 6 subtable" o uni0328
EndChar

StartChar: germandbls
Encoding: 223 223 357
Width: 583
Flags: W
LayerCount: 2
Fore
SplineSet
357 -12 m 0,0,1
 319 -12 319 -12 282 -0.5 c 128,-1,2
 245 11 245 11 213 35 c 1,3,-1
 259 106 l 1,4,5
 281 90 281 90 304.5 79.5 c 128,-1,6
 328 69 328 69 356 69 c 0,7,8
 389 69 389 69 411 89.5 c 128,-1,9
 433 110 433 110 433 142 c 0,10,11
 433 162 433 162 422.5 178 c 128,-1,12
 412 194 412 194 396 208 c 128,-1,13
 380 222 380 222 361.5 235.5 c 128,-1,14
 343 249 343 249 327 265 c 128,-1,15
 311 281 311 281 300.5 300 c 128,-1,16
 290 319 290 319 290 345 c 0,17,18
 290 382 290 382 309.5 407 c 128,-1,19
 329 432 329 432 352 454.5 c 128,-1,20
 375 477 375 477 394.5 502 c 128,-1,21
 414 527 414 527 414 563 c 0,22,23
 414 594 414 594 398.5 613 c 128,-1,24
 383 632 383 632 348 632 c 0,25,26
 325 632 325 632 306 621 c 128,-1,27
 287 610 287 610 271.5 591.5 c 128,-1,28
 256 573 256 573 245 547.5 c 128,-1,29
 234 522 234 522 228 493 c 2,30,-1
 130 0 l 1,31,-1
 22 0 l 1,32,-1
 126 515 l 2,33,34
 135 557 135 557 154 594 c 128,-1,35
 173 631 173 631 201.5 658.5 c 128,-1,36
 230 686 230 686 268 702 c 128,-1,37
 306 718 306 718 353 718 c 0,38,39
 386 718 386 718 415.5 709.5 c 128,-1,40
 445 701 445 701 468 684 c 128,-1,41
 491 667 491 667 504.5 640.5 c 128,-1,42
 518 614 518 614 518 578 c 0,43,44
 518 533 518 533 499 504 c 128,-1,45
 480 475 480 475 456.5 452.5 c 128,-1,46
 433 430 433 430 414 410 c 128,-1,47
 395 390 395 390 395 364 c 0,48,49
 395 347 395 347 405 333 c 128,-1,50
 415 319 415 319 430.5 306 c 128,-1,51
 446 293 446 293 464 278.5 c 128,-1,52
 482 264 482 264 497.5 246.5 c 128,-1,53
 513 229 513 229 523 206.5 c 128,-1,54
 533 184 533 184 533 154 c 0,55,56
 533 119 533 119 519.5 89 c 128,-1,57
 506 59 506 59 482.5 36.5 c 128,-1,58
 459 14 459 14 426.5 1 c 128,-1,59
 394 -12 394 -12 357 -12 c 0,0,1
EndSplineSet
Validated: 1
EndChar

StartChar: uogonek
Encoding: 371 371 380
Width: 537
GlyphClass: 2
Flags: W
AnchorPoint: "Anchor-0" 322 514 basechar 0
LayerCount: 2
Fore
SplineSet
307 -208 m 0,0,1
 272 -208 272 -208 249.5 -190.5 c 128,-1,2
 227 -173 227 -173 227 -138 c 0,3,4
 227 -115 227 -115 237 -93.5 c 128,-1,5
 247 -72 247 -72 262 -53.5 c 128,-1,6
 277 -35 277 -35 294.5 -20.5 c 128,-1,7
 312 -6 312 -6 328 4 c 1,8,-1
 332 70 l 1,9,-1
 328 70 l 1,10,11
 291 37 291 37 250 12.5 c 128,-1,12
 209 -12 209 -12 164 -12 c 0,13,14
 102 -12 102 -12 74.5 20.5 c 128,-1,15
 47 53 47 53 47 112 c 0,16,17
 47 129 47 129 49 145.5 c 128,-1,18
 51 162 51 162 55 181 c 2,19,-1
 117 491 l 1,20,-1
 224 491 l 1,21,-1
 165 195 l 2,22,23
 161 178 161 178 159 166 c 128,-1,24
 157 154 157 154 157 143 c 0,25,26
 157 80 157 80 218 80 c 0,27,28
 267 80 267 80 339 156 c 1,29,-1
 405 491 l 1,30,-1
 512 491 l 1,31,-1
 415 0 l 1,32,33
 365 -20 365 -20 336 -48 c 128,-1,34
 307 -76 307 -76 307 -108 c 0,35,36
 307 -124 307 -124 317.5 -132.5 c 128,-1,37
 328 -141 328 -141 343 -141 c 0,38,39
 359 -141 359 -141 378 -130 c 1,40,-1
 397 -178 l 1,41,42
 378 -191 378 -191 353 -199.5 c 128,-1,43
 328 -208 328 -208 307 -208 c 0,0,1
EndSplineSet
Validated: 1
Ligature2: "'ccmp' Glyph Composition/Decomposition in Latin lookup 6 subtable" u uni0328
EndChar

StartChar: uhorn
Encoding: 432 432 381
Width: 555
GlyphClass: 2
Flags: W
AnchorPoint: "Anchor-3" 246 -27 basechar 0
AnchorPoint: "Anchor-0" 322 514 basechar 0
LayerCount: 2
Fore
SplineSet
328 70 m 1,0,1
 291 37 291 37 250 12.5 c 128,-1,2
 209 -12 209 -12 164 -12 c 0,3,4
 102 -12 102 -12 74.5 20.5 c 128,-1,5
 47 53 47 53 47 112 c 0,6,7
 47 129 47 129 49 145.5 c 128,-1,8
 51 162 51 162 55 181 c 2,9,-1
 117 491 l 1,10,-1
 224 491 l 1,11,-1
 165 195 l 2,12,13
 161 178 161 178 159 166 c 128,-1,14
 157 154 157 154 157 143 c 0,15,16
 157 80 157 80 218 80 c 0,17,18
 267 80 267 80 339 156 c 1,19,-1
 405 491 l 1,20,-1
 450 491 l 1,21,22
 485 495 485 495 509 522 c 128,-1,23
 533 549 533 549 534 592 c 0,24,25
 535 601 535 601 532.5 614 c 128,-1,26
 530 627 530 627 526 638 c 1,27,-1
 608 665 l 1,28,29
 614 649 614 649 617.5 631 c 128,-1,30
 621 613 621 613 621 598 c 0,31,32
 621 539 621 539 587.5 501.5 c 128,-1,33
 554 464 554 464 504 450 c 1,34,-1
 415 0 l 1,35,-1
 328 0 l 1,36,-1
 332 70 l 1,37,-1
 328 70 l 1,0,1
EndSplineSet
Validated: 1
EndChar

StartChar: eth
Encoding: 240 240 403
Width: 531
Flags: W
LayerCount: 2
Fore
SplineSet
220 -12 m 0,0,1
 182 -12 182 -12 148.5 1.5 c 128,-1,2
 115 15 115 15 90.5 40 c 128,-1,3
 66 65 66 65 52 100 c 128,-1,4
 38 135 38 135 38 177 c 0,5,6
 38 228 38 228 53.5 277 c 128,-1,7
 69 326 69 326 99 364.5 c 128,-1,8
 129 403 129 403 171.5 427 c 128,-1,9
 214 451 214 451 268 451 c 0,10,11
 303 451 303 451 332 434.5 c 128,-1,12
 361 418 361 418 380 387 c 1,13,14
 376 438 376 438 363 479.5 c 128,-1,15
 350 521 350 521 327 556 c 1,16,-1
 180 496 l 1,17,-1
 159 549 l 1,18,-1
 289 602 l 1,19,20
 271 621 271 621 249 638 c 128,-1,21
 227 655 227 655 201 672 c 1,22,-1
 250 735 l 1,23,24
 286 715 286 715 318 690.5 c 128,-1,25
 350 666 350 666 376 637 c 1,26,-1
 521 696 l 1,27,-1
 542 643 l 1,28,-1
 413 591 l 1,29,30
 446 542 446 542 464 483 c 128,-1,31
 482 424 482 424 482 352 c 0,32,33
 482 282 482 282 465 216.5 c 128,-1,34
 448 151 448 151 415 100 c 128,-1,35
 382 49 382 49 333 18.5 c 128,-1,36
 284 -12 284 -12 220 -12 c 0,0,1
230 75 m 0,37,38
 261 75 261 75 287 92.5 c 128,-1,39
 313 110 313 110 332.5 140.5 c 128,-1,40
 352 171 352 171 364 212.5 c 128,-1,41
 376 254 376 254 380 302 c 1,42,43
 364 328 364 328 339.5 348 c 128,-1,44
 315 368 315 368 281 368 c 0,45,46
 246 368 246 368 219.5 352 c 128,-1,47
 193 336 193 336 174 310.5 c 128,-1,48
 155 285 155 285 145.5 252 c 128,-1,49
 136 219 136 219 136 186 c 0,50,51
 136 141 136 141 160 108 c 128,-1,52
 184 75 184 75 230 75 c 0,37,38
EndSplineSet
Validated: 1
EndChar

StartChar: thorn
Encoding: 254 254 404
Width: 544
GlyphClass: 2
Flags: W
AnchorPoint: "Anchor-3" 237 -22 basechar 0
AnchorPoint: "Anchor-0" 226 730 basechar 0
LayerCount: 2
Fore
SplineSet
-17 -194 m 1,0,-1
 164 706 l 1,1,-1
 271 706 l 1,2,-1
 236 532 l 1,3,-1
 212 438 l 1,4,-1
 214 438 l 1,5,6
 249 466 249 466 288 484.5 c 128,-1,7
 327 503 327 503 368 503 c 0,8,9
 434 503 434 503 471 457 c 128,-1,10
 508 411 508 411 508 324 c 0,11,12
 508 253 508 253 486 192 c 128,-1,13
 464 131 464 131 427 85.5 c 128,-1,14
 390 40 390 40 343 14 c 128,-1,15
 296 -12 296 -12 245 -12 c 0,16,17
 210 -12 210 -12 182 5.5 c 128,-1,18
 154 23 154 23 136 52 c 1,19,-1
 134 52 l 1,20,-1
 118 -48 l 1,21,-1
 90 -194 l 1,22,-1
 -17 -194 l 1,0,-1
238 76 m 0,23,24
 269 76 269 76 298 94.5 c 128,-1,25
 327 113 327 113 349 145 c 128,-1,26
 371 177 371 177 384.5 219.5 c 128,-1,27
 398 262 398 262 398 310 c 0,28,29
 398 364 398 364 378 389.5 c 128,-1,30
 358 415 358 415 324 415 c 0,31,32
 295 415 295 415 261 397.5 c 128,-1,33
 227 380 227 380 199 344 c 1,34,-1
 157 134 l 1,35,36
 173 103 173 103 194 89.5 c 128,-1,37
 215 76 215 76 238 76 c 0,23,24
EndSplineSet
Validated: 1
EndChar

StartChar: uni0237
Encoding: 567 567 405
Width: 252
GlyphClass: 2
Flags: W
AnchorPoint: "Anchor-0" 183 514 basechar 0
LayerCount: 2
Fore
SplineSet
-42 -206 m 0,0,1
 -67 -206 -67 -206 -87 -201.5 c 128,-1,2
 -107 -197 -107 -197 -128 -186 c 1,3,-1
 -94 -108 l 1,4,5
 -75 -120 -75 -120 -50 -120 c 0,6,7
 -23 -120 -23 -120 -8.5 -99 c 128,-1,8
 6 -78 6 -78 16 -36 c 2,9,-1
 122 491 l 1,10,-1
 229 491 l 1,11,-1
 123 -38 l 2,12,13
 115 -74 115 -74 102 -105 c 128,-1,14
 89 -136 89 -136 69.5 -158.5 c 128,-1,15
 50 -181 50 -181 22.5 -193.5 c 128,-1,16
 -5 -206 -5 -206 -42 -206 c 0,0,1
EndSplineSet
Validated: 1
EndChar

StartChar: uni0259
Encoding: 601 601 407
Width: 485
Flags: W
LayerCount: 2
Fore
SplineSet
449 295 m 0,0,1
 449 226 449 226 425.5 169.5 c 128,-1,2
 402 113 402 113 363.5 72.5 c 128,-1,3
 325 32 325 32 277 10 c 128,-1,4
 229 -12 229 -12 181 -12 c 0,5,6
 138 -12 138 -12 108.5 2 c 128,-1,7
 79 16 79 16 60.5 40.5 c 128,-1,8
 42 65 42 65 33.5 98 c 128,-1,9
 25 131 25 131 25 169 c 0,10,11
 25 198 25 198 32 227 c 128,-1,12
 39 256 39 256 47 276 c 1,13,-1
 346 276 l 1,14,15
 351 348 351 348 322.5 384.5 c 128,-1,16
 294 421 294 421 244 421 c 0,17,18
 218 421 218 421 191 411.5 c 128,-1,19
 164 402 164 402 139 388 c 1,20,-1
 107 459 l 1,21,22
 145 479 145 479 184 491 c 128,-1,23
 223 503 223 503 269 503 c 0,24,25
 350 503 350 503 399.5 450.5 c 128,-1,26
 449 398 449 398 449 295 c 0,0,1
194 72 m 0,27,28
 239 72 239 72 278.5 106 c 128,-1,29
 318 140 318 140 336 208 c 1,30,-1
 120 208 l 1,31,32
 114 185 114 185 114 162 c 0,33,34
 114 144 114 144 118 127.5 c 128,-1,35
 122 111 122 111 131 99 c 128,-1,36
 140 87 140 87 155.5 79.5 c 128,-1,37
 171 72 171 72 194 72 c 0,27,28
EndSplineSet
Validated: 33
Substitution2: "'sups' Superscript in Latin lookup 12 subtable" uni0259.sups
Substitution2: "'aalt' Access All Alternates in Latin lookup 0 subtable" uni0259.sups
EndChar

StartChar: f_f
Encoding: 64256 64256 409
Width: 589
GlyphClass: 3
Flags: W
LayerCount: 2
Fore
SplineSet
325 0 m 1,0,-1
 407 406 l 1,1,-1
 228 406 l 1,2,-1
 147 0 l 1,3,-1
 40 0 l 1,4,-1
 122 406 l 1,5,-1
 58 406 l 1,6,-1
 74 486 l 1,7,-1
 138 491 l 1,8,-1
 148 538 l 2,9,10
 164 613 164 613 207 660.5 c 128,-1,11
 250 708 250 708 325 708 c 0,12,13
 354 708 354 708 378.5 701.5 c 128,-1,14
 403 695 403 695 426 684 c 1,15,-1
 390 607 l 1,16,17
 379 612 379 612 365.5 617 c 128,-1,18
 352 622 352 622 335 622 c 0,19,20
 303 622 303 622 283 602.5 c 128,-1,21
 263 583 263 583 255 541 c 2,22,-1
 245 491 l 1,23,-1
 424 491 l 1,24,-1
 436 548 l 2,25,26
 451 623 451 623 493 670.5 c 128,-1,27
 535 718 535 718 609 718 c 0,28,29
 637 718 637 718 660.5 711.5 c 128,-1,30
 684 705 684 705 705 694 c 1,31,-1
 670 617 l 1,32,33
 660 622 660 622 647 627 c 128,-1,34
 634 632 634 632 619 632 c 0,35,36
 588 632 588 632 569.5 612.5 c 128,-1,37
 551 593 551 593 543 551 c 2,38,-1
 531 491 l 1,39,-1
 623 491 l 1,40,-1
 606 406 l 1,41,-1
 514 406 l 1,42,-1
 432 0 l 1,43,-1
 325 0 l 1,0,-1
EndSplineSet
Validated: 1
Ligature2: "'liga' Standard Ligatures in Latin lookup 24 subtable" f f
EndChar

StartChar: f_t
Encoding: 65540 -1 410
Width: 606
GlyphClass: 3
Flags: W
LayerCount: 2
Fore
SplineSet
40 0 m 1,0,-1
 121 406 l 1,1,-1
 58 406 l 1,2,-1
 74 486 l 1,3,-1
 138 491 l 1,4,-1
 150 548 l 2,5,6
 165 623 165 623 207 670.5 c 128,-1,7
 249 718 249 718 323 718 c 0,8,9
 351 718 351 718 374.5 711.5 c 128,-1,10
 398 705 398 705 420 694 c 1,11,-1
 384 617 l 1,12,13
 375 622 375 622 361.5 627 c 128,-1,14
 348 632 348 632 333 632 c 0,15,16
 303 632 303 632 284 612.5 c 128,-1,17
 265 593 265 593 257 551 c 2,18,-1
 245 491 l 1,19,-1
 404 491 l 1,20,-1
 443 623 l 1,21,-1
 533 623 l 1,22,-1
 507 491 l 1,23,-1
 625 491 l 1,24,-1
 608 406 l 1,25,-1
 488 406 l 1,26,-1
 438 162 l 2,27,28
 435 144 435 144 435 127 c 0,29,30
 435 100 435 100 448 86.5 c 128,-1,31
 461 73 461 73 492 73 c 0,32,33
 505 73 505 73 516 77 c 128,-1,34
 527 81 527 81 538 86 c 1,35,-1
 558 10 l 1,36,37
 540 2 540 2 514 -5 c 128,-1,38
 488 -12 488 -12 454 -12 c 0,39,40
 385 -12 385 -12 355.5 22.5 c 128,-1,41
 326 57 326 57 326 108 c 0,42,43
 326 136 326 136 332 166 c 2,44,-1
 382 406 l 1,45,-1
 228 406 l 1,46,-1
 147 0 l 1,47,-1
 40 0 l 1,0,-1
EndSplineSet
Validated: 1
Ligature2: "'liga' Standard Ligatures in Latin lookup 24 subtable" f t
EndChar

StartChar: I.a
Encoding: 65541 -1 411
Width: 273
GlyphClass: 2
Flags: W
LayerCount: 2
Fore
SplineSet
32 0 m 1,0,-1
 162 654 l 1,1,-1
 270 654 l 1,2,-1
 140 0 l 1,3,-1
 32 0 l 1,0,-1
EndSplineSet
Validated: 1
EndChar

StartChar: Iogonek.a
Encoding: 65552 -1 422
Width: 273
GlyphClass: 2
Flags: W
AnchorPoint: "Anchor-1" 222 682 basechar 0
LayerCount: 2
Fore
SplineSet
47 -216 m 0,0,1
 10 -216 10 -216 -13.5 -197.5 c 128,-1,2
 -37 -179 -37 -179 -37 -144 c 0,3,4
 -37 -120 -37 -120 -27 -98 c 128,-1,5
 -17 -76 -17 -76 -3 -57 c 128,-1,6
 11 -38 11 -38 27 -23.5 c 128,-1,7
 43 -9 43 -9 55 0 c 1,8,-1
 32 0 l 1,9,-1
 162 654 l 1,10,-1
 270 654 l 1,11,-1
 140 0 l 1,12,13
 97 -21 97 -21 73 -52.5 c 128,-1,14
 49 -84 49 -84 49 -110 c 0,15,16
 49 -127 49 -127 59.5 -136 c 128,-1,17
 70 -145 70 -145 85 -145 c 0,18,19
 99 -145 99 -145 116 -135 c 1,20,-1
 138 -188 l 1,21,22
 120 -201 120 -201 93.5 -208.5 c 128,-1,23
 67 -216 67 -216 47 -216 c 0,0,1
EndSplineSet
EndChar

StartChar: a.a
Encoding: 65553 -1 423
Width: 503
GlyphClass: 2
Flags: W
AnchorPoint: "Anchor-5" 312 0 basechar 0
AnchorPoint: "Anchor-3" 214 -22 basechar 0
AnchorPoint: "Anchor-0" 305 514 basechar 0
LayerCount: 2
Fore
SplineSet
27 109 m 0,0,1
 27 162 27 162 50.5 199 c 128,-1,2
 74 236 74 236 116 259 c 128,-1,3
 158 282 158 282 215.5 293 c 128,-1,4
 273 304 273 304 341 306 c 1,5,6
 345 325 345 325 345 339 c 0,7,8
 345 384 345 384 325.5 401 c 128,-1,9
 306 418 306 418 268 418 c 0,10,11
 236 418 236 418 205.5 407.5 c 128,-1,12
 175 397 175 397 140 378 c 1,13,-1
 106 453 l 1,14,15
 148 475 148 475 195.5 489 c 128,-1,16
 243 503 243 503 290 503 c 0,17,18
 367 503 367 503 409 466.5 c 128,-1,19
 451 430 451 430 451 350 c 0,20,21
 451 318 451 318 443 280 c 2,22,-1
 388 0 l 1,23,-1
 301 0 l 1,24,-1
 302 54 l 1,25,-1
 299 54 l 1,26,27
 270 27 270 27 230 7.5 c 128,-1,28
 190 -12 190 -12 150 -12 c 0,29,30
 125 -12 125 -12 102.5 -4 c 128,-1,31
 80 4 80 4 63.5 20 c 128,-1,32
 47 36 47 36 37 58 c 128,-1,33
 27 80 27 80 27 109 c 0,0,1
328 238 m 1,34,35
 231 236 231 236 181.5 208 c 128,-1,36
 132 180 132 180 132 131 c 0,37,38
 132 101 132 101 150.5 86.5 c 128,-1,39
 169 72 169 72 198 72 c 0,40,41
 224 72 224 72 250 85.5 c 128,-1,42
 276 99 276 99 305 125 c 1,43,-1
 328 238 l 1,34,35
EndSplineSet
Validated: 1
EndChar

StartChar: aogonek.a
Encoding: 65575 -1 445
Width: 503
GlyphClass: 2
Flags: W
AnchorPoint: "Anchor-0" 305 514 basechar 0
LayerCount: 2
Fore
SplineSet
301 4 m 1,0,-1
 302 54 l 1,1,-1
 299 54 l 1,2,3
 270 27 270 27 230 7.5 c 128,-1,4
 190 -12 190 -12 150 -12 c 0,5,6
 125 -12 125 -12 102.5 -4 c 128,-1,7
 80 4 80 4 63.5 20 c 128,-1,8
 47 36 47 36 37 58 c 128,-1,9
 27 80 27 80 27 109 c 0,10,11
 27 162 27 162 50.5 199 c 128,-1,12
 74 236 74 236 116 259 c 128,-1,13
 158 282 158 282 215.5 293 c 128,-1,14
 273 304 273 304 341 306 c 1,15,16
 345 325 345 325 345 339 c 0,17,18
 345 384 345 384 325.5 401 c 128,-1,19
 306 418 306 418 268 418 c 0,20,21
 236 418 236 418 205.5 407.5 c 128,-1,22
 175 397 175 397 140 378 c 1,23,-1
 106 453 l 1,24,25
 148 475 148 475 195.5 489 c 128,-1,26
 243 503 243 503 290 503 c 0,27,28
 367 503 367 503 409 466.5 c 128,-1,29
 451 430 451 430 451 350 c 0,30,31
 451 318 451 318 443 280 c 2,32,-1
 388 0 l 1,33,34
 337 -20 337 -20 308.5 -48 c 128,-1,35
 280 -76 280 -76 280 -108 c 0,36,37
 280 -124 280 -124 290.5 -132.5 c 128,-1,38
 301 -141 301 -141 315 -141 c 0,39,40
 325 -141 325 -141 333 -138 c 128,-1,41
 341 -135 341 -135 350 -130 c 1,42,-1
 370 -178 l 1,43,44
 350 -191 350 -191 325.5 -199.5 c 128,-1,45
 301 -208 301 -208 280 -208 c 0,46,47
 245 -208 245 -208 222 -190.5 c 128,-1,48
 199 -173 199 -173 199 -138 c 0,49,50
 199 -115 199 -115 209 -93.5 c 128,-1,51
 219 -72 219 -72 234 -53.5 c 128,-1,52
 249 -35 249 -35 267 -20.5 c 128,-1,53
 285 -6 285 -6 301 4 c 1,0,-1
328 238 m 1,54,55
 231 236 231 236 181.5 208 c 128,-1,56
 132 180 132 180 132 131 c 0,57,58
 132 101 132 101 150.5 86.5 c 128,-1,59
 169 72 169 72 198 72 c 0,60,61
 224 72 224 72 250 85.5 c 128,-1,62
 276 99 276 99 305 125 c 1,63,-1
 328 238 l 1,54,55
EndSplineSet
Validated: 1
EndChar

StartChar: g.a
Encoding: 65576 -1 446
Width: 490
GlyphClass: 2
Flags: W
AnchorPoint: "Anchor-3" 157 -230 basechar 0
AnchorPoint: "Anchor-0" 287 514 basechar 0
LayerCount: 2
Fore
SplineSet
167 -217 m 0,0,1
 137 -217 137 -217 104.5 -212 c 128,-1,2
 72 -207 72 -207 44 -194 c 128,-1,3
 16 -181 16 -181 -2 -158 c 128,-1,4
 -20 -135 -20 -135 -20 -100 c 0,5,6
 -20 -78 -20 -78 -10.5 -59 c 128,-1,7
 -1 -40 -1 -40 14.5 -24.5 c 128,-1,8
 30 -9 30 -9 49.5 3.5 c 128,-1,9
 69 16 69 16 90 25 c 1,10,-1
 90 28 l 1,11,12
 76 39 76 39 68 56.5 c 128,-1,13
 60 74 60 74 60 94 c 0,14,15
 60 121 60 121 77.5 145.5 c 128,-1,16
 95 170 95 170 124 187 c 1,17,-1
 124 191 l 1,18,19
 101 211 101 211 86.5 239 c 128,-1,20
 72 267 72 267 72 302 c 0,21,22
 72 345 72 345 88 382 c 128,-1,23
 104 419 104 419 132.5 446 c 128,-1,24
 161 473 161 473 198.5 488 c 128,-1,25
 236 503 236 503 280 503 c 0,26,27
 299 503 299 503 314 500 c 128,-1,28
 329 497 329 497 344 491 c 1,29,-1
 518 491 l 1,30,-1
 503 410 l 1,31,-1
 418 410 l 1,32,33
 426 396 426 396 430 380.5 c 128,-1,34
 434 365 434 365 434 350 c 0,35,36
 434 307 434 307 418.5 271.5 c 128,-1,37
 403 236 403 236 375.5 210.5 c 128,-1,38
 348 185 348 185 309.5 170.5 c 128,-1,39
 271 156 271 156 226 156 c 0,40,41
 195 156 195 156 177 163 c 1,42,43
 166 155 166 155 158 143 c 128,-1,44
 150 131 150 131 150 117 c 0,45,46
 150 95 150 95 167 84.5 c 128,-1,47
 184 74 184 74 237 68 c 0,48,49
 288 62 288 62 322 52 c 128,-1,50
 356 42 356 42 376.5 28.5 c 128,-1,51
 397 15 397 15 405.5 -3.5 c 128,-1,52
 414 -22 414 -22 414 -46 c 0,53,54
 414 -89 414 -89 392.5 -121 c 128,-1,55
 371 -153 371 -153 336 -174.5 c 128,-1,56
 301 -196 301 -196 257 -206.5 c 128,-1,57
 213 -217 213 -217 167 -217 c 0,0,1
237 224 m 0,58,59
 260 224 260 224 279 234.5 c 128,-1,60
 298 245 298 245 312 262.5 c 128,-1,61
 326 280 326 280 334 302.5 c 128,-1,62
 342 325 342 325 342 348 c 0,63,64
 342 386 342 386 324 407 c 128,-1,65
 306 428 306 428 276 428 c 0,66,67
 253 428 253 428 233.5 417.5 c 128,-1,68
 214 407 214 407 200 389.5 c 128,-1,69
 186 372 186 372 178.5 349.5 c 128,-1,70
 171 327 171 327 171 303 c 0,71,72
 171 266 171 266 188.5 245 c 128,-1,73
 206 224 206 224 237 224 c 0,58,59
177 -148 m 0,74,75
 205 -148 205 -148 229 -142.5 c 128,-1,76
 253 -137 253 -137 270.5 -126.5 c 128,-1,77
 288 -116 288 -116 298 -102.5 c 128,-1,78
 308 -89 308 -89 308 -72 c 0,79,80
 308 -44 308 -44 280 -31.5 c 128,-1,81
 252 -19 252 -19 203 -13 c 0,82,83
 179 -10 179 -10 144 -2 c 1,84,85
 132 -8 132 -8 119 -16.5 c 128,-1,86
 106 -25 106 -25 95.5 -35 c 128,-1,87
 85 -45 85 -45 78.5 -56.5 c 128,-1,88
 72 -68 72 -68 72 -81 c 0,89,90
 72 -116 72 -116 100.5 -132 c 128,-1,91
 129 -148 129 -148 177 -148 c 0,74,75
EndSplineSet
Validated: 1
EndChar

StartChar: l.a
Encoding: 65584 -1 454
Width: 252
GlyphClass: 2
Flags: W
AnchorPoint: "Anchor-3" 78 -22 basechar 0
AnchorPoint: "Anchor-0" 226 730 basechar 0
LayerCount: 2
Fore
SplineSet
22 0 m 1,0,-1
 164 706 l 1,1,-1
 271 706 l 1,2,-1
 130 0 l 1,3,-1
 22 0 l 1,0,-1
EndSplineSet
Validated: 1
EndChar

StartChar: lslash.a
Encoding: 65592 -1 462
Width: 265
Flags: W
LayerCount: 2
Fore
SplineSet
38 282 m 1,0,-1
 13 347 l 1,1,-1
 109 399 l 1,2,-1
 171 706 l 1,3,-1
 278 706 l 1,4,-1
 227 453 l 1,5,-1
 287 488 l 1,6,-1
 314 423 l 1,7,-1
 210 365 l 1,8,-1
 137 0 l 1,9,-1
 29 0 l 1,10,-1
 92 312 l 1,11,-1
 38 282 l 1,0,-1
EndSplineSet
Validated: 1
EndChar

StartChar: ampersand
Encoding: 38 38 463
Width: 608
Flags: W
LayerCount: 2
Fore
SplineSet
190 -12 m 0,0,1
 109 -12 109 -12 62 31 c 128,-1,2
 15 74 15 74 15 146 c 0,3,4
 15 186 15 186 28 218 c 128,-1,5
 41 250 41 250 63 276 c 128,-1,6
 85 302 85 302 113.5 322.5 c 128,-1,7
 142 343 142 343 173 361 c 1,8,9
 164 390 164 390 159 418 c 128,-1,10
 154 446 154 446 154 472 c 0,11,12
 154 513 154 513 168.5 548.5 c 128,-1,13
 183 584 183 584 208.5 610 c 128,-1,14
 234 636 234 636 268 651 c 128,-1,15
 302 666 302 666 340 666 c 0,16,17
 400 666 400 666 430.5 633 c 128,-1,18
 461 600 461 600 461 547 c 0,19,20
 461 509 461 509 445.5 478.5 c 128,-1,21
 430 448 430 448 405 422.5 c 128,-1,22
 380 397 380 397 348 375 c 128,-1,23
 316 353 316 353 283 333 c 1,24,25
 304 290 304 290 333.5 250 c 128,-1,26
 363 210 363 210 397 176 c 1,27,28
 434 216 434 216 461.5 261.5 c 128,-1,29
 489 307 489 307 512 360 c 1,30,-1
 610 360 l 1,31,32
 580 296 580 296 543 236.5 c 128,-1,33
 506 177 506 177 458 123 c 1,34,35
 484 104 484 104 510 92 c 128,-1,36
 536 80 536 80 557 73 c 1,37,-1
 514 -12 l 1,38,39
 482 -4 482 -4 449.5 13 c 128,-1,40
 417 30 417 30 385 55 c 1,41,42
 342 23 342 23 293.5 5.5 c 128,-1,43
 245 -12 245 -12 190 -12 c 0,0,1
245 476 m 0,44,45
 245 459 245 459 247.5 441.5 c 128,-1,46
 250 424 250 424 255 407 c 1,47,48
 280 421 280 421 302 436 c 128,-1,49
 324 451 324 451 340.5 467.5 c 128,-1,50
 357 484 357 484 366.5 503.5 c 128,-1,51
 376 523 376 523 376 546 c 0,52,53
 376 566 376 566 365.5 579.5 c 128,-1,54
 355 593 355 593 333 593 c 0,55,56
 297 593 297 593 271 561 c 128,-1,57
 245 529 245 529 245 476 c 0,44,45
210 70 m 0,58,59
 267 70 267 70 325 110 c 1,60,61
 289 148 289 148 258 191.5 c 128,-1,62
 227 235 227 235 204 282 c 1,63,64
 167 256 167 256 143 226 c 128,-1,65
 119 196 119 196 119 158 c 0,66,67
 119 119 119 119 143.5 94.5 c 128,-1,68
 168 70 168 70 210 70 c 0,58,59
EndSplineSet
Validated: 1
EndChar

StartChar: zero
Encoding: 48 48 464
Width: 494
Flags: W
LayerCount: 2
Fore
SplineSet
209 -12 m 0,0,1
 131 -12 131 -12 85.5 47.5 c 128,-1,2
 40 107 40 107 40 210 c 0,3,4
 40 308 40 308 63 388.5 c 128,-1,5
 86 469 86 469 124 527 c 128,-1,6
 162 585 162 585 211 616.5 c 128,-1,7
 260 648 260 648 312 648 c 0,8,9
 350 648 350 648 381 632.5 c 128,-1,10
 412 617 412 617 433.5 588 c 128,-1,11
 455 559 455 559 467 517.5 c 128,-1,12
 479 476 479 476 479 424 c 0,13,14
 479 326 479 326 456.5 246 c 128,-1,15
 434 166 434 166 396.5 108.5 c 128,-1,16
 359 51 359 51 310 19.5 c 128,-1,17
 261 -12 261 -12 209 -12 c 0,0,1
215 72 m 0,18,19
 248 72 248 72 277.5 102.5 c 128,-1,20
 307 133 307 133 330 183 c 128,-1,21
 353 233 353 233 366.5 298 c 128,-1,22
 380 363 380 363 380 432 c 0,23,24
 380 495 380 495 361.5 530 c 128,-1,25
 343 565 343 565 305 565 c 0,26,27
 272 565 272 565 242.5 534 c 128,-1,28
 213 503 213 503 190 452.5 c 128,-1,29
 167 402 167 402 153.5 336.5 c 128,-1,30
 140 271 140 271 140 202 c 0,31,32
 140 139 140 139 158.5 105.5 c 128,-1,33
 177 72 177 72 215 72 c 0,18,19
EndSplineSet
Validated: 1
Substitution2: "'zero' Slashed Zero in Latin lookup 18 subtable" zero.0
Substitution2: "'ss05' Style Set 5 in Latin lookup 17 subtable" zero.0s
Substitution2: "'onum' Oldstyle Figures in Latin lookup 16 subtable" zero.tnum
Substitution2: "'pnum' Proportional Numbers in Latin lookup 15 subtable" zero.pnum
Substitution2: "'subs' Subscript in Latin lookup 14 subtable" zero.subs
Substitution2: "'sups' Superscript in Latin lookup 13 subtable" zero.sups
Substitution2: "'dnom' Denominators in Latin lookup 9 subtable" zero.dnom
Substitution2: "'numr' Numerators in Latin lookup 8 subtable" zero.numr
AlternateSubs2: "'aalt' Access All Alternates in Latin lookup 1 subtable" zero.numr zero.dnom zero.sups zero.subs zero.pnum zero.tnum
EndChar

StartChar: one
Encoding: 49 49 465
Width: 494
Flags: W
LayerCount: 2
Fore
SplineSet
22 0 m 1,0,-1
 40 87 l 1,1,-1
 175 87 l 1,2,-1
 262 517 l 1,3,-1
 147 517 l 1,4,-1
 161 585 l 1,5,6
 209 593 209 593 244.5 605 c 128,-1,7
 280 617 280 617 312 636 c 1,8,-1
 393 636 l 1,9,-1
 282 87 l 1,10,-1
 405 87 l 1,11,-1
 388 0 l 1,12,-1
 22 0 l 1,0,-1
EndSplineSet
Validated: 1
Substitution2: "'onum' Oldstyle Figures in Latin lookup 16 subtable" one.tnum
Substitution2: "'pnum' Proportional Numbers in Latin lookup 15 subtable" one.pnum
Substitution2: "'subs' Subscript in Latin lookup 14 subtable" one.subs
Substitution2: "'sups' Superscript in Latin lookup 13 subtable" one.sups
Substitution2: "'dnom' Denominators in Latin lookup 9 subtable" one.dnom
Substitution2: "'numr' Numerators in Latin lookup 8 subtable" one.numr
AlternateSubs2: "'aalt' Access All Alternates in Latin lookup 1 subtable" one.numr one.dnom one.sups one.subs one.pnum one.tnum
EndChar

StartChar: two
Encoding: 50 50 466
Width: 494
Flags: W
LayerCount: 2
Fore
SplineSet
-12 0 m 1,0,-1
 0 62 l 1,1,2
 86 134 86 134 153.5 191 c 128,-1,3
 221 248 221 248 267 295.5 c 128,-1,4
 313 343 313 343 337 385.5 c 128,-1,5
 361 428 361 428 361 472 c 0,6,7
 361 511 361 511 338.5 536.5 c 128,-1,8
 316 562 316 562 271 562 c 0,9,10
 242 562 242 562 213 547 c 128,-1,11
 184 532 184 532 154 505 c 1,12,-1
 101 569 l 1,13,14
 146 607 146 607 191 627.5 c 128,-1,15
 236 648 236 648 284 648 c 0,16,17
 370 648 370 648 418 602.5 c 128,-1,18
 466 557 466 557 466 484 c 0,19,20
 466 434 466 434 446.5 389.5 c 128,-1,21
 427 345 427 345 389.5 299.5 c 128,-1,22
 352 254 352 254 297 203.5 c 128,-1,23
 242 153 242 153 172 91 c 1,24,-1
 416 91 l 1,25,-1
 399 0 l 1,26,-1
 -12 0 l 1,0,-1
EndSplineSet
Validated: 1
Substitution2: "'onum' Oldstyle Figures in Latin lookup 16 subtable" two.tnum
Substitution2: "'pnum' Proportional Numbers in Latin lookup 15 subtable" two.pnum
Substitution2: "'subs' Subscript in Latin lookup 14 subtable" two.subs
Substitution2: "'sups' Superscript in Latin lookup 13 subtable" two.sups
Substitution2: "'dnom' Denominators in Latin lookup 9 subtable" two.dnom
Substitution2: "'numr' Numerators in Latin lookup 8 subtable" two.numr
AlternateSubs2: "'aalt' Access All Alternates in Latin lookup 1 subtable" two.numr two.dnom two.sups two.subs two.pnum two.tnum
EndChar

StartChar: three
Encoding: 51 51 467
Width: 494
Flags: W
LayerCount: 2
Fore
SplineSet
194 -12 m 0,0,1
 132 -12 132 -12 78 18 c 128,-1,2
 24 48 24 48 -12 100 c 1,3,-1
 56 156 l 1,4,5
 81 121 81 121 116.5 98 c 128,-1,6
 152 75 152 75 194 75 c 0,7,8
 254 75 254 75 290.5 105.5 c 128,-1,9
 327 136 327 136 327 186 c 0,10,11
 327 209 327 209 318.5 227.5 c 128,-1,12
 310 246 310 246 290 259.5 c 128,-1,13
 270 273 270 273 237.5 280.5 c 128,-1,14
 205 288 205 288 156 288 c 1,15,-1
 172 366 l 1,16,17
 227 366 227 366 263.5 376 c 128,-1,18
 300 386 300 386 322 402 c 128,-1,19
 344 418 344 418 353 439 c 128,-1,20
 362 460 362 460 362 481 c 0,21,22
 362 517 362 517 340 539.5 c 128,-1,23
 318 562 318 562 273 562 c 0,24,25
 219 562 219 562 160 517 c 1,26,-1
 107 587 l 1,27,28
 152 619 152 619 198 633.5 c 128,-1,29
 244 648 244 648 292 648 c 0,30,31
 375 648 375 648 423 607.5 c 128,-1,32
 471 567 471 567 471 499 c 0,33,34
 471 438 471 438 437.5 394 c 128,-1,35
 404 350 404 350 329 327 c 1,36,-1
 329 323 l 1,37,38
 381 304 381 304 407.5 268.5 c 128,-1,39
 434 233 434 233 434 187 c 0,40,41
 434 140 434 140 416 103 c 128,-1,42
 398 66 398 66 366 40.5 c 128,-1,43
 334 15 334 15 290 1.5 c 128,-1,44
 246 -12 246 -12 194 -12 c 0,0,1
EndSplineSet
Validated: 1
Substitution2: "'onum' Oldstyle Figures in Latin lookup 16 subtable" three.tnum
Substitution2: "'pnum' Proportional Numbers in Latin lookup 15 subtable" three.pnum
Substitution2: "'subs' Subscript in Latin lookup 14 subtable" three.subs
Substitution2: "'sups' Superscript in Latin lookup 13 subtable" three.sups
Substitution2: "'dnom' Denominators in Latin lookup 9 subtable" three.dnom
Substitution2: "'numr' Numerators in Latin lookup 8 subtable" three.numr
AlternateSubs2: "'aalt' Access All Alternates in Latin lookup 1 subtable" three.numr three.dnom three.sups three.subs three.pnum three.tnum
EndChar

StartChar: four
Encoding: 52 52 468
Width: 494
Flags: W
LayerCount: 2
Fore
SplineSet
341 0 m 1,0,-1
 242 0 l 1,1,-1
 275 165 l 1,2,-1
 8 165 l 1,3,-1
 22 239 l 1,4,-1
 343 636 l 1,5,-1
 468 636 l 1,6,-1
 390 249 l 1,7,-1
 468 249 l 1,8,-1
 452 165 l 1,9,-1
 374 165 l 1,10,-1
 341 0 l 1,0,-1
132 249 m 1,11,-1
 291 249 l 1,12,-1
 322 400 l 2,13,14
 328 432 328 432 336.5 466 c 128,-1,15
 345 500 345 500 353 534 c 1,16,-1
 349 534 l 1,17,18
 330 505 330 505 311.5 477 c 128,-1,19
 293 449 293 449 274 424 c 2,20,-1
 132 249 l 1,11,-1
EndSplineSet
Validated: 1
Substitution2: "'onum' Oldstyle Figures in Latin lookup 16 subtable" four.tnum
Substitution2: "'pnum' Proportional Numbers in Latin lookup 15 subtable" four.pnum
Substitution2: "'subs' Subscript in Latin lookup 14 subtable" four.subs
Substitution2: "'sups' Superscript in Latin lookup 13 subtable" four.sups
Substitution2: "'dnom' Denominators in Latin lookup 9 subtable" four.dnom
Substitution2: "'numr' Numerators in Latin lookup 8 subtable" four.numr
AlternateSubs2: "'aalt' Access All Alternates in Latin lookup 1 subtable" four.numr four.dnom four.sups four.subs four.pnum four.tnum
EndChar

StartChar: five
Encoding: 53 53 469
Width: 494
Flags: W
LayerCount: 2
Fore
SplineSet
193 -12 m 0,0,1
 130 -12 130 -12 80 17 c 128,-1,2
 30 46 30 46 -6 99 c 1,3,-1
 63 155 l 1,4,5
 86 121 86 121 117 98 c 128,-1,6
 148 75 148 75 196 75 c 0,7,8
 223 75 223 75 248 85 c 128,-1,9
 273 95 273 95 291.5 114 c 128,-1,10
 310 133 310 133 321.5 160 c 128,-1,11
 333 187 333 187 333 220 c 0,12,13
 333 273 333 273 306 299 c 128,-1,14
 279 325 279 325 232 325 c 0,15,16
 218 325 218 325 206.5 323.5 c 128,-1,17
 195 322 195 322 184 318 c 128,-1,18
 173 314 173 314 160.5 308.5 c 128,-1,19
 148 303 148 303 132 294 c 1,20,-1
 90 328 l 1,21,-1
 169 636 l 1,22,-1
 490 636 l 1,23,-1
 472 546 l 1,24,-1
 244 546 l 1,25,-1
 201 390 l 1,26,27
 217 398 217 398 234.5 402 c 128,-1,28
 252 406 252 406 273 406 c 0,29,30
 309 406 309 406 339.5 395.5 c 128,-1,31
 370 385 370 385 392.5 364 c 128,-1,32
 415 343 415 343 428 311.5 c 128,-1,33
 441 280 441 280 441 238 c 0,34,35
 441 180 441 180 420 134 c 128,-1,36
 399 88 399 88 364.5 55.5 c 128,-1,37
 330 23 330 23 285.5 5.5 c 128,-1,38
 241 -12 241 -12 193 -12 c 0,0,1
EndSplineSet
Validated: 1
Substitution2: "'onum' Oldstyle Figures in Latin lookup 16 subtable" five.tnum
Substitution2: "'pnum' Proportional Numbers in Latin lookup 15 subtable" five.pnum
Substitution2: "'subs' Subscript in Latin lookup 14 subtable" five.subs
Substitution2: "'sups' Superscript in Latin lookup 13 subtable" five.sups
Substitution2: "'dnom' Denominators in Latin lookup 9 subtable" five.dnom
Substitution2: "'numr' Numerators in Latin lookup 8 subtable" five.numr
AlternateSubs2: "'aalt' Access All Alternates in Latin lookup 1 subtable" five.numr five.dnom five.sups five.subs five.pnum five.tnum
EndChar

StartChar: six
Encoding: 54 54 470
Width: 494
Flags: W
LayerCount: 2
Fore
SplineSet
238 -12 m 0,0,1
 195 -12 195 -12 160.5 4 c 128,-1,2
 126 20 126 20 101.5 49.5 c 128,-1,3
 77 79 77 79 64 119.5 c 128,-1,4
 51 160 51 160 51 209 c 0,5,6
 51 306 51 306 74 387 c 128,-1,7
 97 468 97 468 138 526 c 128,-1,8
 179 584 179 584 235.5 616 c 128,-1,9
 292 648 292 648 359 648 c 0,10,11
 387 648 387 648 410 640.5 c 128,-1,12
 433 633 433 633 451 621 c 128,-1,13
 469 609 469 609 483 594 c 128,-1,14
 497 579 497 579 507 564 c 1,15,-1
 438 507 l 1,16,17
 422 532 422 532 401.5 546.5 c 128,-1,18
 381 561 381 561 352 561 c 0,19,20
 319 561 319 561 289 545 c 128,-1,21
 259 529 259 529 234 499 c 128,-1,22
 209 469 209 469 190 425 c 128,-1,23
 171 381 171 381 161 325 c 1,24,25
 192 358 192 358 230 374.5 c 128,-1,26
 268 391 268 391 297 391 c 0,27,28
 366 391 366 391 409.5 349 c 128,-1,29
 453 307 453 307 453 225 c 0,30,31
 453 178 453 178 437 135.5 c 128,-1,32
 421 93 421 93 392 60 c 128,-1,33
 363 27 363 27 323.5 7.5 c 128,-1,34
 284 -12 284 -12 238 -12 c 0,0,1
244 69 m 0,35,36
 269 69 269 69 289 82 c 128,-1,37
 309 95 309 95 323.5 115.5 c 128,-1,38
 338 136 338 136 346 161.5 c 128,-1,39
 354 187 354 187 354 213 c 0,40,41
 354 261 354 261 333 288 c 128,-1,42
 312 315 312 315 270 315 c 0,43,44
 248 315 248 315 216.5 300.5 c 128,-1,45
 185 286 185 286 152 245 c 1,46,47
 151 234 151 234 151 223 c 128,-1,48
 151 212 151 212 151 201 c 0,49,50
 151 140 151 140 176.5 104.5 c 128,-1,51
 202 69 202 69 244 69 c 0,35,36
EndSplineSet
Validated: 1
Substitution2: "'onum' Oldstyle Figures in Latin lookup 16 subtable" six.tnum
Substitution2: "'pnum' Proportional Numbers in Latin lookup 15 subtable" six.pnum
Substitution2: "'subs' Subscript in Latin lookup 14 subtable" six.subs
Substitution2: "'sups' Superscript in Latin lookup 13 subtable" six.sups
Substitution2: "'dnom' Denominators in Latin lookup 9 subtable" six.dnom
Substitution2: "'numr' Numerators in Latin lookup 8 subtable" six.numr
AlternateSubs2: "'aalt' Access All Alternates in Latin lookup 1 subtable" six.numr six.dnom six.sups six.subs six.pnum six.tnum
EndChar

StartChar: seven
Encoding: 55 55 471
Width: 494
Flags: W
LayerCount: 2
Fore
SplineSet
110 0 m 1,0,1
 132 86 132 86 157.5 161.5 c 128,-1,2
 183 237 183 237 216 304 c 128,-1,3
 249 371 249 371 291.5 430.5 c 128,-1,4
 334 490 334 490 390 546 c 1,5,-1
 103 546 l 1,6,-1
 121 636 l 1,7,-1
 529 636 l 1,8,-1
 516 568 l 1,9,10
 443 500 443 500 394 431.5 c 128,-1,11
 345 363 345 363 312 292.5 c 128,-1,12
 279 222 279 222 258 149 c 128,-1,13
 237 76 237 76 221 0 c 1,14,-1
 110 0 l 1,0,1
EndSplineSet
Validated: 1
Substitution2: "'onum' Oldstyle Figures in Latin lookup 16 subtable" seven.tnum
Substitution2: "'pnum' Proportional Numbers in Latin lookup 15 subtable" seven.pnum
Substitution2: "'subs' Subscript in Latin lookup 14 subtable" seven.subs
Substitution2: "'sups' Superscript in Latin lookup 13 subtable" seven.sups
Substitution2: "'dnom' Denominators in Latin lookup 9 subtable" seven.dnom
Substitution2: "'numr' Numerators in Latin lookup 8 subtable" seven.numr
AlternateSubs2: "'aalt' Access All Alternates in Latin lookup 1 subtable" seven.numr seven.dnom seven.sups seven.subs seven.pnum seven.tnum
EndChar

StartChar: eight
Encoding: 56 56 472
Width: 494
Flags: W
LayerCount: 2
Fore
SplineSet
228 -12 m 0,0,1
 194 -12 194 -12 159.5 -2 c 128,-1,2
 125 8 125 8 97.5 28 c 128,-1,3
 70 48 70 48 53 79.5 c 128,-1,4
 36 111 36 111 36 154 c 0,5,6
 36 188 36 188 47.5 217 c 128,-1,7
 59 246 59 246 78.5 269 c 128,-1,8
 98 292 98 292 124 309.5 c 128,-1,9
 150 327 150 327 179 339 c 1,10,-1
 179 343 l 1,11,12
 151 371 151 371 137 401.5 c 128,-1,13
 123 432 123 432 123 470 c 0,14,15
 123 512 123 512 139 545 c 128,-1,16
 155 578 155 578 182 601 c 128,-1,17
 209 624 209 624 244.5 636 c 128,-1,18
 280 648 280 648 320 648 c 0,19,20
 351 648 351 648 380.5 639 c 128,-1,21
 410 630 410 630 433 612 c 128,-1,22
 456 594 456 594 470.5 566 c 128,-1,23
 485 538 485 538 485 500 c 0,24,25
 485 438 485 438 452.5 395.5 c 128,-1,26
 420 353 420 353 367 324 c 1,27,-1
 367 320 l 1,28,29
 398 299 398 299 423.5 262.5 c 128,-1,30
 449 226 449 226 449 176 c 0,31,32
 449 132 449 132 431 97.5 c 128,-1,33
 413 63 413 63 382.5 38.5 c 128,-1,34
 352 14 352 14 312 1 c 128,-1,35
 272 -12 272 -12 228 -12 c 0,0,1
315 355 m 1,36,37
 345 377 345 377 368.5 408.5 c 128,-1,38
 392 440 392 440 392 485 c 0,39,40
 392 524 392 524 370.5 547.5 c 128,-1,41
 349 571 349 571 312 571 c 0,42,43
 274 571 274 571 246 546 c 128,-1,44
 218 521 218 521 218 475 c 0,45,46
 218 431 218 431 243.5 405 c 128,-1,47
 269 379 269 379 315 355 c 1,36,37
235 64 m 0,48,49
 257 64 257 64 278 71 c 128,-1,50
 299 78 299 78 315 92 c 128,-1,51
 331 106 331 106 340.5 126 c 128,-1,52
 350 146 350 146 350 173 c 0,53,54
 350 196 350 196 340.5 214.5 c 128,-1,55
 331 233 331 233 314 248.5 c 128,-1,56
 297 264 297 264 274 277.5 c 128,-1,57
 251 291 251 291 225 306 c 1,58,59
 185 281 185 281 159 247.5 c 128,-1,60
 133 214 133 214 133 166 c 0,61,62
 133 120 133 120 161.5 92 c 128,-1,63
 190 64 190 64 235 64 c 0,48,49
EndSplineSet
Validated: 1
Substitution2: "'onum' Oldstyle Figures in Latin lookup 16 subtable" eight.tnum
Substitution2: "'pnum' Proportional Numbers in Latin lookup 15 subtable" eight.pnum
Substitution2: "'subs' Subscript in Latin lookup 14 subtable" eight.subs
Substitution2: "'sups' Superscript in Latin lookup 13 subtable" eight.sups
Substitution2: "'dnom' Denominators in Latin lookup 9 subtable" eight.dnom
Substitution2: "'numr' Numerators in Latin lookup 8 subtable" eight.numr
AlternateSubs2: "'aalt' Access All Alternates in Latin lookup 1 subtable" eight.numr eight.dnom eight.sups eight.subs eight.pnum eight.tnum
EndChar

StartChar: nine
Encoding: 57 57 473
Width: 494
Flags: W
LayerCount: 2
Fore
SplineSet
252 321 m 0,0,1
 274 321 274 321 305.5 336 c 128,-1,2
 337 351 337 351 370 393 c 1,3,4
 371 404 371 404 371 414 c 128,-1,5
 371 424 371 424 371 435 c 0,6,7
 371 496 371 496 345.5 531.5 c 128,-1,8
 320 567 320 567 278 567 c 0,9,10
 253 567 253 567 232.5 554 c 128,-1,11
 212 541 212 541 197.5 520.5 c 128,-1,12
 183 500 183 500 175 474 c 128,-1,13
 167 448 167 448 167 423 c 0,14,15
 167 375 167 375 188.5 348 c 128,-1,16
 210 321 210 321 252 321 c 0,0,1
162 -12 m 0,17,18
 134 -12 134 -12 111.5 -4.5 c 128,-1,19
 89 3 89 3 71 15 c 128,-1,20
 53 27 53 27 38.5 42 c 128,-1,21
 24 57 24 57 14 72 c 1,22,-1
 84 129 l 1,23,24
 99 104 99 104 119.5 89.5 c 128,-1,25
 140 75 140 75 169 75 c 0,26,27
 202 75 202 75 232 91 c 128,-1,28
 262 107 262 107 287 137.5 c 128,-1,29
 312 168 312 168 331 212 c 128,-1,30
 350 256 350 256 361 312 c 1,31,32
 331 279 331 279 292.5 262 c 128,-1,33
 254 245 254 245 225 245 c 0,34,35
 156 245 156 245 112 287.5 c 128,-1,36
 68 330 68 330 68 411 c 0,37,38
 68 457 68 457 84 500 c 128,-1,39
 100 543 100 543 129 576 c 128,-1,40
 158 609 158 609 197 628.5 c 128,-1,41
 236 648 236 648 283 648 c 0,42,43
 326 648 326 648 361 631.5 c 128,-1,44
 396 615 396 615 420.5 586 c 128,-1,45
 445 557 445 557 458 516.5 c 128,-1,46
 471 476 471 476 471 427 c 0,47,48
 471 329 471 329 447.5 248.5 c 128,-1,49
 424 168 424 168 383 110 c 128,-1,50
 342 52 342 52 285.5 20 c 128,-1,51
 229 -12 229 -12 162 -12 c 0,17,18
EndSplineSet
Validated: 1
Substitution2: "'onum' Oldstyle Figures in Latin lookup 16 subtable" nine.tnum
Substitution2: "'pnum' Proportional Numbers in Latin lookup 15 subtable" nine.pnum
Substitution2: "'subs' Subscript in Latin lookup 14 subtable" nine.subs
Substitution2: "'sups' Superscript in Latin lookup 13 subtable" nine.sups
Substitution2: "'dnom' Denominators in Latin lookup 9 subtable" nine.dnom
Substitution2: "'numr' Numerators in Latin lookup 8 subtable" nine.numr
AlternateSubs2: "'aalt' Access All Alternates in Latin lookup 1 subtable" nine.numr nine.dnom nine.sups nine.subs nine.pnum nine.tnum
EndChar

StartChar: zero.pnum
Encoding: 65593 -1 474
Width: 523
Flags: W
LayerCount: 2
Fore
SplineSet
219 -12 m 0,0,1
 178 -12 178 -12 145 3.5 c 128,-1,2
 112 19 112 19 88.5 48 c 128,-1,3
 65 77 65 77 52.5 118 c 128,-1,4
 40 159 40 159 40 210 c 0,5,6
 40 308 40 308 64 388.5 c 128,-1,7
 88 469 88 469 127 527 c 128,-1,8
 166 585 166 585 217 616.5 c 128,-1,9
 268 648 268 648 322 648 c 0,10,11
 362 648 362 648 395 632 c 128,-1,12
 428 616 428 616 451 587 c 128,-1,13
 474 558 474 558 486.5 516.5 c 128,-1,14
 499 475 499 475 499 424 c 0,15,16
 499 326 499 326 475.5 246 c 128,-1,17
 452 166 452 166 413 108.5 c 128,-1,18
 374 51 374 51 323.5 19.5 c 128,-1,19
 273 -12 273 -12 219 -12 c 0,0,1
225 72 m 0,20,21
 259 72 259 72 291 102.5 c 128,-1,22
 323 133 323 133 347 183 c 128,-1,23
 371 233 371 233 385.5 298 c 128,-1,24
 400 363 400 363 400 432 c 0,25,26
 400 495 400 495 379 530 c 128,-1,27
 358 565 358 565 315 565 c 0,28,29
 280 565 280 565 248.5 534 c 128,-1,30
 217 503 217 503 193 452.5 c 128,-1,31
 169 402 169 402 154.5 336.5 c 128,-1,32
 140 271 140 271 140 202 c 0,33,34
 140 139 140 139 161 105.5 c 128,-1,35
 182 72 182 72 225 72 c 0,20,21
EndSplineSet
Validated: 1
Substitution2: "'zero' Slashed Zero in Latin lookup 18 subtable" zero.0p
Substitution2: "'ss05' Style Set 5 in Latin lookup 17 subtable" zero.0ps
Substitution2: "'onum' Oldstyle Figures in Latin lookup 16 subtable" zero.onum
Substitution2: "'aalt' Access All Alternates in Latin lookup 0 subtable" zero.onum
EndChar

StartChar: one.pnum
Encoding: 65594 -1 475
Width: 359
Flags: W
LayerCount: 2
Fore
SplineSet
93 0 m 1,0,-1
 197 517 l 1,1,-1
 82 517 l 1,2,-1
 96 585 l 1,3,4
 144 593 144 593 180 605 c 128,-1,5
 216 617 216 617 248 636 c 1,6,-1
 328 636 l 1,7,-1
 200 0 l 1,8,-1
 93 0 l 1,0,-1
EndSplineSet
Validated: 1
Substitution2: "'onum' Oldstyle Figures in Latin lookup 16 subtable" one.onum
Substitution2: "'aalt' Access All Alternates in Latin lookup 0 subtable" one.onum
EndChar

StartChar: two.pnum
Encoding: 65595 -1 476
Width: 479
Flags: W
LayerCount: 2
Fore
SplineSet
-12 0 m 1,0,-1
 0 62 l 1,1,2
 84 134 84 134 149.5 191 c 128,-1,3
 215 248 215 248 259.5 295.5 c 128,-1,4
 304 343 304 343 327.5 385.5 c 128,-1,5
 351 428 351 428 351 472 c 0,6,7
 351 511 351 511 331 536.5 c 128,-1,8
 311 562 311 562 271 562 c 0,9,10
 242 562 242 562 213 547 c 128,-1,11
 184 532 184 532 154 505 c 1,12,-1
 101 569 l 1,13,14
 146 607 146 607 191 627.5 c 128,-1,15
 236 648 236 648 284 648 c 0,16,17
 364 648 364 648 410 602.5 c 128,-1,18
 456 557 456 557 456 484 c 0,19,20
 456 434 456 434 437 389.5 c 128,-1,21
 418 345 418 345 381.5 299.5 c 128,-1,22
 345 254 345 254 292 203.5 c 128,-1,23
 239 153 239 153 172 91 c 1,24,-1
 406 91 l 1,25,-1
 389 0 l 1,26,-1
 -12 0 l 1,0,-1
EndSplineSet
Validated: 1
Substitution2: "'onum' Oldstyle Figures in Latin lookup 16 subtable" two.onum
Substitution2: "'aalt' Access All Alternates in Latin lookup 0 subtable" two.onum
EndChar

StartChar: seven.pnum
Encoding: 65600 -1 481
Width: 468
Flags: W
LayerCount: 2
Fore
SplineSet
96 0 m 1,0,1
 118 86 118 86 143.5 161.5 c 128,-1,2
 169 237 169 237 201 304 c 128,-1,3
 233 371 233 371 274.5 430.5 c 128,-1,4
 316 490 316 490 369 546 c 1,5,-1
 92 546 l 1,6,-1
 110 636 l 1,7,-1
 508 636 l 1,8,-1
 494 568 l 1,9,10
 424 500 424 500 376.5 431.5 c 128,-1,11
 329 363 329 363 297 292.5 c 128,-1,12
 265 222 265 222 244 149 c 128,-1,13
 223 76 223 76 207 0 c 1,14,-1
 96 0 l 1,0,1
EndSplineSet
Validated: 1
Substitution2: "'onum' Oldstyle Figures in Latin lookup 16 subtable" seven.onum
Substitution2: "'aalt' Access All Alternates in Latin lookup 0 subtable" seven.onum
EndChar

StartChar: zero.tnum
Encoding: 65603 -1 484
Width: 494
Flags: W
LayerCount: 2
Fore
SplineSet
208 -12 m 0,0,1
 167 -12 167 -12 135 3 c 128,-1,2
 103 18 103 18 81 45.5 c 128,-1,3
 59 73 59 73 47 111.5 c 128,-1,4
 35 150 35 150 35 198 c 0,5,6
 35 268 35 268 52.5 338 c 128,-1,7
 70 408 70 408 104 463.5 c 128,-1,8
 138 519 138 519 186.5 553.5 c 128,-1,9
 235 588 235 588 297 588 c 0,10,11
 337 588 337 588 369.5 573 c 128,-1,12
 402 558 402 558 424 530.5 c 128,-1,13
 446 503 446 503 458 464.5 c 128,-1,14
 470 426 470 426 470 378 c 0,15,16
 470 308 470 308 452.5 238 c 128,-1,17
 435 168 435 168 401 112.5 c 128,-1,18
 367 57 367 57 318.5 22.5 c 128,-1,19
 270 -12 270 -12 208 -12 c 0,0,1
218 72 m 0,20,21
 250 72 250 72 277.5 99.5 c 128,-1,22
 305 127 305 127 325.5 170 c 128,-1,23
 346 213 346 213 357.5 266 c 128,-1,24
 369 319 369 319 369 370 c 0,25,26
 369 435 369 435 349 469.5 c 128,-1,27
 329 504 329 504 288 504 c 0,28,29
 255 504 255 504 227.5 476.5 c 128,-1,30
 200 449 200 449 179.5 406 c 128,-1,31
 159 363 159 363 147.5 310 c 128,-1,32
 136 257 136 257 136 206 c 0,33,34
 136 141 136 141 156 106.5 c 128,-1,35
 176 72 176 72 218 72 c 0,20,21
EndSplineSet
Validated: 1
Substitution2: "'pnum' Proportional Numbers in Latin lookup 15 subtable" zero.onum
Substitution2: "'aalt' Access All Alternates in Latin lookup 0 subtable" zero.onum
EndChar

StartChar: one.tnum
Encoding: 65604 -1 485
Width: 494
Flags: W
LayerCount: 2
Fore
SplineSet
22 0 m 1,0,-1
 40 87 l 1,1,-1
 175 87 l 1,2,-1
 249 457 l 1,3,-1
 134 457 l 1,4,-1
 148 525 l 1,5,6
 196 532 196 532 232 544.5 c 128,-1,7
 268 557 268 557 300 576 c 1,8,-1
 380 576 l 1,9,-1
 282 87 l 1,10,-1
 405 87 l 1,11,-1
 388 0 l 1,12,-1
 22 0 l 1,0,-1
EndSplineSet
Validated: 1
Substitution2: "'pnum' Proportional Numbers in Latin lookup 15 subtable" one.onum
Substitution2: "'aalt' Access All Alternates in Latin lookup 0 subtable" one.onum
EndChar

StartChar: two.tnum
Encoding: 65605 -1 486
Width: 494
Flags: W
LayerCount: 2
Fore
SplineSet
-12 0 m 1,0,-1
 0 62 l 1,1,2
 82 125 82 125 146 173.5 c 128,-1,3
 210 222 210 222 254 263 c 128,-1,4
 298 304 298 304 320.5 339.5 c 128,-1,5
 343 375 343 375 343 412 c 0,6,7
 343 450 343 450 320.5 476 c 128,-1,8
 298 502 298 502 253 502 c 0,9,10
 224 502 224 502 195 486.5 c 128,-1,11
 166 471 166 471 136 445 c 1,12,-1
 83 509 l 1,13,14
 128 547 128 547 173 567.5 c 128,-1,15
 218 588 218 588 266 588 c 0,16,17
 309 588 309 588 342.5 576 c 128,-1,18
 376 564 376 564 399.5 542 c 128,-1,19
 423 520 423 520 435.5 490 c 128,-1,20
 448 460 448 460 448 424 c 0,21,22
 448 382 448 382 429.5 344 c 128,-1,23
 411 306 411 306 375.5 267 c 128,-1,24
 340 228 340 228 288.5 185.5 c 128,-1,25
 237 143 237 143 172 91 c 1,26,-1
 416 91 l 1,27,-1
 399 0 l 1,28,-1
 -12 0 l 1,0,-1
EndSplineSet
Validated: 1
Substitution2: "'pnum' Proportional Numbers in Latin lookup 15 subtable" two.onum
Substitution2: "'aalt' Access All Alternates in Latin lookup 0 subtable" two.onum
EndChar

StartChar: three.tnum
Encoding: 65606 -1 487
Width: 494
Flags: W
LayerCount: 2
Fore
SplineSet
183 -88 m 0,0,1
 120 -88 120 -88 66 -58 c 128,-1,2
 12 -28 12 -28 -24 24 c 1,3,-1
 45 80 l 1,4,5
 68 45 68 45 101.5 22 c 128,-1,6
 135 -1 135 -1 176 -1 c 0,7,8
 236 -1 236 -1 273 33 c 128,-1,9
 310 67 310 67 310 119 c 0,10,11
 310 142 310 142 301.5 161 c 128,-1,12
 293 180 293 180 274 193.5 c 128,-1,13
 255 207 255 207 223 214.5 c 128,-1,14
 191 222 191 222 145 222 c 1,15,-1
 160 300 l 1,16,17
 214 300 214 300 250.5 310.5 c 128,-1,18
 287 321 287 321 308.5 337.5 c 128,-1,19
 330 354 330 354 339.5 375.5 c 128,-1,20
 349 397 349 397 349 420 c 0,21,22
 349 457 349 457 326.5 479.5 c 128,-1,23
 304 502 304 502 261 502 c 0,24,25
 235 502 235 502 206 490 c 128,-1,26
 177 478 177 478 148 456 c 1,27,-1
 96 526 l 1,28,29
 141 558 141 558 186.5 573 c 128,-1,30
 232 588 232 588 280 588 c 0,31,32
 364 588 364 588 411 547 c 128,-1,33
 458 506 458 506 458 438 c 0,34,35
 458 375 458 375 421.5 329.5 c 128,-1,36
 385 284 385 284 317 260 c 1,37,-1
 317 256 l 1,38,39
 365 236 365 236 391 201.5 c 128,-1,40
 417 167 417 167 417 117 c 0,41,42
 417 69 417 69 399 31 c 128,-1,43
 381 -7 381 -7 349.5 -33.5 c 128,-1,44
 318 -60 318 -60 275.5 -74 c 128,-1,45
 233 -88 233 -88 183 -88 c 0,0,1
EndSplineSet
Validated: 1
Substitution2: "'pnum' Proportional Numbers in Latin lookup 15 subtable" three.onum
Substitution2: "'aalt' Access All Alternates in Latin lookup 0 subtable" three.onum
EndChar

StartChar: four.tnum
Encoding: 65607 -1 488
Width: 494
Flags: W
LayerCount: 2
Fore
SplineSet
233 -76 m 1,0,-1
 266 90 l 1,1,-1
 -6 90 l 1,2,-1
 8 163 l 1,3,-1
 338 576 l 1,4,-1
 462 576 l 1,5,-1
 382 173 l 1,6,-1
 460 173 l 1,7,-1
 443 90 l 1,8,-1
 365 90 l 1,9,-1
 332 -76 l 1,10,-1
 233 -76 l 1,0,-1
118 173 m 1,11,-1
 283 173 l 1,12,-1
 316 340 l 2,13,14
 323 371 323 371 331.5 405 c 128,-1,15
 340 439 340 439 348 474 c 1,16,-1
 344 474 l 1,17,18
 324 445 324 445 306 417 c 128,-1,19
 288 389 288 389 269 364 c 2,20,-1
 118 173 l 1,11,-1
EndSplineSet
Validated: 1
Substitution2: "'pnum' Proportional Numbers in Latin lookup 15 subtable" four.onum
Substitution2: "'aalt' Access All Alternates in Latin lookup 0 subtable" four.onum
EndChar

StartChar: five.tnum
Encoding: 65608 -1 489
Width: 494
Flags: W
LayerCount: 2
Fore
SplineSet
175 -88 m 0,0,1
 112 -88 112 -88 62 -58.5 c 128,-1,2
 12 -29 12 -29 -23 24 c 1,3,-1
 46 79 l 1,4,5
 69 46 69 46 100 23 c 128,-1,6
 131 0 131 0 179 0 c 0,7,8
 206 0 206 0 230.5 10 c 128,-1,9
 255 20 255 20 274 39 c 128,-1,10
 293 58 293 58 304 85 c 128,-1,11
 315 112 315 112 315 145 c 0,12,13
 315 200 315 200 288 228 c 128,-1,14
 261 256 261 256 214 256 c 0,15,16
 200 256 200 256 188.5 254 c 128,-1,17
 177 252 177 252 166 248.5 c 128,-1,18
 155 245 155 245 142.5 239 c 128,-1,19
 130 233 130 233 114 225 c 1,20,-1
 72 259 l 1,21,-1
 154 576 l 1,22,-1
 475 576 l 1,23,-1
 457 485 l 1,24,-1
 229 485 l 1,25,-1
 183 321 l 1,26,27
 217 337 217 337 255 337 c 0,28,29
 291 337 291 337 322 326 c 128,-1,30
 353 315 353 315 375.5 293 c 128,-1,31
 398 271 398 271 411 238.5 c 128,-1,32
 424 206 424 206 424 163 c 0,33,34
 424 105 424 105 403 58.5 c 128,-1,35
 382 12 382 12 347.5 -20.5 c 128,-1,36
 313 -53 313 -53 268 -70.5 c 128,-1,37
 223 -88 223 -88 175 -88 c 0,0,1
EndSplineSet
Validated: 1
Substitution2: "'pnum' Proportional Numbers in Latin lookup 15 subtable" five.onum
Substitution2: "'aalt' Access All Alternates in Latin lookup 0 subtable" five.onum
EndChar

StartChar: seven.tnum
Encoding: 65610 -1 491
Width: 494
Flags: W
LayerCount: 2
Fore
SplineSet
93 -76 m 1,0,1
 115 12 115 12 141 90 c 128,-1,2
 167 168 167 168 201 237 c 128,-1,3
 235 306 235 306 277.5 367.5 c 128,-1,4
 320 429 320 429 376 485 c 1,5,-1
 89 485 l 1,6,-1
 107 576 l 1,7,-1
 515 576 l 1,8,-1
 502 508 l 1,9,10
 429 439 429 439 379.5 368 c 128,-1,11
 330 297 330 297 296 224.5 c 128,-1,12
 262 152 262 152 241 77 c 128,-1,13
 220 2 220 2 204 -76 c 1,14,-1
 93 -76 l 1,0,1
EndSplineSet
Validated: 1
Substitution2: "'pnum' Proportional Numbers in Latin lookup 15 subtable" seven.onum
Substitution2: "'aalt' Access All Alternates in Latin lookup 0 subtable" seven.onum
EndChar

StartChar: nine.tnum
Encoding: 65612 -1 493
Width: 494
Flags: W
LayerCount: 2
Fore
SplineSet
236 241 m 0,0,1
 260 241 260 241 292.5 255.5 c 128,-1,2
 325 270 325 270 360 311 c 1,3,4
 361 327 361 327 361.5 342.5 c 128,-1,5
 362 358 362 358 362 375 c 0,6,7
 362 436 362 436 336.5 471.5 c 128,-1,8
 311 507 311 507 269 507 c 0,9,10
 242 507 242 507 220 493 c 128,-1,11
 198 479 198 479 182 457 c 128,-1,12
 166 435 166 435 157 407.5 c 128,-1,13
 148 380 148 380 148 353 c 0,14,15
 148 301 148 301 171 271 c 128,-1,16
 194 241 194 241 236 241 c 0,0,1
148 -87 m 0,17,18
 120 -87 120 -87 97 -79.5 c 128,-1,19
 74 -72 74 -72 56 -60 c 128,-1,20
 38 -48 38 -48 24 -33 c 128,-1,21
 10 -18 10 -18 0 -2 c 1,22,-1
 69 54 l 1,23,24
 85 29 85 29 105 14.5 c 128,-1,25
 125 0 125 0 154 0 c 0,26,27
 219 0 219 0 272 59.5 c 128,-1,28
 325 119 325 119 348 227 c 1,29,30
 316 196 316 196 277.5 180.5 c 128,-1,31
 239 165 239 165 209 165 c 0,32,33
 175 165 175 165 146 176 c 128,-1,34
 117 187 117 187 95.5 209.5 c 128,-1,35
 74 232 74 232 62 264.5 c 128,-1,36
 50 297 50 297 50 341 c 0,37,38
 50 389 50 389 66.5 434 c 128,-1,39
 83 479 83 479 113 513 c 128,-1,40
 143 547 143 547 184 567.5 c 128,-1,41
 225 588 225 588 274 588 c 0,42,43
 317 588 317 588 352 571.5 c 128,-1,44
 387 555 387 555 411.5 526 c 128,-1,45
 436 497 436 497 449 456.5 c 128,-1,46
 462 416 462 416 462 367 c 0,47,48
 462 267 462 267 438.5 183.5 c 128,-1,49
 415 100 415 100 373 40 c 128,-1,50
 331 -20 331 -20 273.5 -53.5 c 128,-1,51
 216 -87 216 -87 148 -87 c 0,17,18
EndSplineSet
Validated: 1
Substitution2: "'pnum' Proportional Numbers in Latin lookup 15 subtable" nine.onum
Substitution2: "'aalt' Access All Alternates in Latin lookup 0 subtable" nine.onum
EndChar

StartChar: one.onum
Encoding: 65614 -1 495
Width: 359
Flags: W
LayerCount: 2
Fore
SplineSet
91 0 m 1,0,-1
 183 457 l 1,1,-1
 69 457 l 1,2,-1
 82 525 l 1,3,4
 130 532 130 532 166 544.5 c 128,-1,5
 202 557 202 557 234 576 c 1,6,-1
 314 576 l 1,7,-1
 198 0 l 1,8,-1
 91 0 l 1,0,-1
EndSplineSet
Validated: 1
EndChar

StartChar: two.onum
Encoding: 65615 -1 496
Width: 471
Flags: W
LayerCount: 2
Fore
SplineSet
-12 0 m 1,0,-1
 0 62 l 1,1,2
 79 125 79 125 140.5 173.5 c 128,-1,3
 202 222 202 222 244 263 c 128,-1,4
 286 304 286 304 308 339.5 c 128,-1,5
 330 375 330 375 330 412 c 0,6,7
 330 450 330 450 310 476 c 128,-1,8
 290 502 290 502 253 502 c 0,9,10
 224 502 224 502 195 486.5 c 128,-1,11
 166 471 166 471 136 445 c 1,12,-1
 83 509 l 1,13,14
 128 547 128 547 173 567.5 c 128,-1,15
 218 588 218 588 266 588 c 0,16,17
 305 588 305 588 336 576 c 128,-1,18
 367 564 367 564 389 542 c 128,-1,19
 411 520 411 520 422.5 490 c 128,-1,20
 434 460 434 460 434 424 c 0,21,22
 434 382 434 382 416 344 c 128,-1,23
 398 306 398 306 363.5 267 c 128,-1,24
 329 228 329 228 279.5 185.5 c 128,-1,25
 230 143 230 143 168 91 c 1,26,-1
 397 91 l 1,27,-1
 380 0 l 1,28,-1
 -12 0 l 1,0,-1
EndSplineSet
Validated: 1
EndChar

StartChar: seven.onum
Encoding: 65620 -1 501
Width: 468
Flags: W
LayerCount: 2
Fore
SplineSet
78 -76 m 1,0,1
 100 13 100 13 125.5 91 c 128,-1,2
 151 169 151 169 184 238 c 128,-1,3
 217 307 217 307 259 368 c 128,-1,4
 301 429 301 429 356 485 c 1,5,-1
 78 485 l 1,6,-1
 96 576 l 1,7,-1
 496 576 l 1,8,-1
 482 508 l 1,9,10
 410 440 410 440 361 369.5 c 128,-1,11
 312 299 312 299 279 226 c 128,-1,12
 246 153 246 153 225.5 77.5 c 128,-1,13
 205 2 205 2 189 -76 c 1,14,-1
 78 -76 l 1,0,1
EndSplineSet
Validated: 1
EndChar

StartChar: period
Encoding: 46 46 504
Width: 267
Flags: W
LayerCount: 2
Fore
SplineSet
82 -12 m 0,0,1
 55 -12 55 -12 39 5.5 c 128,-1,2
 23 23 23 23 23 50 c 0,3,4
 23 66 23 66 29 81.5 c 128,-1,5
 35 97 35 97 46.5 109 c 128,-1,6
 58 121 58 121 73 128.5 c 128,-1,7
 88 136 88 136 106 136 c 0,8,9
 133 136 133 136 148.5 118 c 128,-1,10
 164 100 164 100 164 73 c 0,11,12
 164 57 164 57 158 41.5 c 128,-1,13
 152 26 152 26 141.5 14 c 128,-1,14
 131 2 131 2 115.5 -5 c 128,-1,15
 100 -12 100 -12 82 -12 c 0,0,1
EndSplineSet
Validated: 1
Substitution2: "'subs' Subscript in Latin lookup 14 subtable" period.subs
Substitution2: "'sups' Superscript in Latin lookup 13 subtable" period.sups
Substitution2: "'dnom' Denominators in Latin lookup 9 subtable" period.dnom
Substitution2: "'numr' Numerators in Latin lookup 8 subtable" period.numr
AlternateSubs2: "'aalt' Access All Alternates in Latin lookup 1 subtable" period.numr period.dnom period.sups period.subs
EndChar

StartChar: comma
Encoding: 44 44 505
Width: 267
Flags: W
LayerCount: 2
Fore
SplineSet
-16 -176 m 1,0,-1
 -29 -115 l 1,1,2
 24 -98 24 -98 54 -67.5 c 128,-1,3
 84 -37 84 -37 92 -2 c 1,4,5
 63 -2 63 -2 44.5 14 c 128,-1,6
 26 30 26 30 26 58 c 0,7,8
 26 88 26 88 47 112 c 128,-1,9
 68 136 68 136 104 136 c 0,10,11
 138 136 138 136 156 114 c 128,-1,12
 174 92 174 92 174 54 c 0,13,14
 174 12 174 12 160.5 -25.5 c 128,-1,15
 147 -63 147 -63 122 -93 c 128,-1,16
 97 -123 97 -123 62 -144.5 c 128,-1,17
 27 -166 27 -166 -16 -176 c 1,0,-1
EndSplineSet
Validated: 1
Substitution2: "'subs' Subscript in Latin lookup 14 subtable" comma.subs
Substitution2: "'sups' Superscript in Latin lookup 13 subtable" comma.sups
Substitution2: "'dnom' Denominators in Latin lookup 9 subtable" comma.dnom
Substitution2: "'numr' Numerators in Latin lookup 8 subtable" comma.numr
AlternateSubs2: "'aalt' Access All Alternates in Latin lookup 1 subtable" comma.numr comma.dnom comma.sups comma.subs
EndChar

StartChar: exclam
Encoding: 33 33 509
Width: 307
Flags: W
LayerCount: 2
Fore
SplineSet
109 212 m 1,0,-1
 165 561 l 1,1,-1
 182 671 l 1,2,-1
 289 671 l 1,3,-1
 265 561 l 1,4,-1
 181 212 l 1,5,-1
 109 212 l 1,0,-1
104 -12 m 0,6,7
 77 -12 77 -12 60.5 5.5 c 128,-1,8
 44 23 44 23 44 50 c 0,9,10
 44 66 44 66 50 81.5 c 128,-1,11
 56 97 56 97 67.5 109 c 128,-1,12
 79 121 79 121 94 128.5 c 128,-1,13
 109 136 109 136 127 136 c 0,14,15
 154 136 154 136 170 118 c 128,-1,16
 186 100 186 100 186 73 c 0,17,18
 186 57 186 57 180 41.5 c 128,-1,19
 174 26 174 26 163 14 c 128,-1,20
 152 2 152 2 137 -5 c 128,-1,21
 122 -12 122 -12 104 -12 c 0,6,7
EndSplineSet
Validated: 1
EndChar

StartChar: exclamdown
Encoding: 161 161 510
Width: 307
Flags: W
LayerCount: 2
Fore
SplineSet
19 -180 m 1,0,-1
 43 -70 l 1,1,-1
 128 280 l 1,2,-1
 200 280 l 1,3,-1
 143 -70 l 1,4,-1
 126 -180 l 1,5,-1
 19 -180 l 1,0,-1
181 355 m 0,6,7
 154 355 154 355 138.5 373 c 128,-1,8
 123 391 123 391 123 418 c 0,9,10
 123 434 123 434 129 449.5 c 128,-1,11
 135 465 135 465 145.5 477 c 128,-1,12
 156 489 156 489 171.5 496 c 128,-1,13
 187 503 187 503 205 503 c 0,14,15
 232 503 232 503 248 485.5 c 128,-1,16
 264 468 264 468 264 441 c 0,17,18
 264 426 264 426 258 410.5 c 128,-1,19
 252 395 252 395 241 382.5 c 128,-1,20
 230 370 230 370 214.5 362.5 c 128,-1,21
 199 355 199 355 181 355 c 0,6,7
EndSplineSet
Validated: 1
EndChar

StartChar: question
Encoding: 63 63 511
Width: 427
Flags: W
LayerCount: 2
Fore
SplineSet
145 217 m 1,0,1
 148 258 148 258 163.5 289 c 128,-1,2
 179 320 179 320 199.5 344.5 c 128,-1,3
 220 369 220 369 243.5 389.5 c 128,-1,4
 267 410 267 410 287 430 c 128,-1,5
 307 450 307 450 320 471.5 c 128,-1,6
 333 493 333 493 333 520 c 0,7,8
 333 555 333 555 313 575 c 128,-1,9
 293 595 293 595 258 595 c 0,10,11
 234 595 234 595 211 583 c 128,-1,12
 188 571 188 571 168 550 c 1,13,-1
 112 612 l 1,14,15
 144 644 144 644 185 663 c 128,-1,16
 226 682 226 682 271 682 c 0,17,18
 347 682 347 682 392.5 644 c 128,-1,19
 438 606 438 606 438 537 c 0,20,21
 438 497 438 497 424.5 467.5 c 128,-1,22
 411 438 411 438 390 413.5 c 128,-1,23
 369 389 369 389 344 367 c 128,-1,24
 319 345 319 345 296.5 322 c 128,-1,25
 274 299 274 299 257.5 272 c 128,-1,26
 241 245 241 245 237 209 c 1,27,-1
 145 217 l 1,0,1
151 -12 m 0,28,29
 124 -12 124 -12 108 5.5 c 128,-1,30
 92 23 92 23 92 50 c 0,31,32
 92 66 92 66 98 81.5 c 128,-1,33
 104 97 104 97 115 109 c 128,-1,34
 126 121 126 121 141.5 128.5 c 128,-1,35
 157 136 157 136 175 136 c 0,36,37
 202 136 202 136 217.5 118 c 128,-1,38
 233 100 233 100 233 73 c 0,39,40
 233 57 233 57 227 41.5 c 128,-1,41
 221 26 221 26 210.5 14 c 128,-1,42
 200 2 200 2 184.5 -5 c 128,-1,43
 169 -12 169 -12 151 -12 c 0,28,29
EndSplineSet
Validated: 1
EndChar

StartChar: questiondown
Encoding: 191 191 512
Width: 427
Flags: W
LayerCount: 2
Fore
SplineSet
164 -190 m 0,0,1
 89 -190 89 -190 43.5 -152 c 128,-1,2
 -2 -114 -2 -114 -2 -45 c 0,3,4
 -2 -5 -2 -5 11.5 24.5 c 128,-1,5
 25 54 25 54 46 78.5 c 128,-1,6
 67 103 67 103 92 125 c 128,-1,7
 117 147 117 147 139 170 c 128,-1,8
 161 193 161 193 177.5 220 c 128,-1,9
 194 247 194 247 198 283 c 1,10,-1
 290 275 l 1,11,12
 287 234 287 234 271.5 203 c 128,-1,13
 256 172 256 172 235.5 147.5 c 128,-1,14
 215 123 215 123 191.5 102.5 c 128,-1,15
 168 82 168 82 148 62 c 128,-1,16
 128 42 128 42 115 20.5 c 128,-1,17
 102 -1 102 -1 102 -28 c 0,18,19
 102 -63 102 -63 122 -83 c 128,-1,20
 142 -103 142 -103 177 -103 c 0,21,22
 201 -103 201 -103 224 -91 c 128,-1,23
 247 -79 247 -79 268 -58 c 1,24,-1
 323 -120 l 1,25,26
 291 -152 291 -152 250 -171 c 128,-1,27
 209 -190 209 -190 164 -190 c 0,0,1
260 356 m 0,28,29
 233 356 233 356 217.5 374 c 128,-1,30
 202 392 202 392 202 419 c 0,31,32
 202 435 202 435 208 450.5 c 128,-1,33
 214 466 214 466 225 478 c 128,-1,34
 236 490 236 490 251 497 c 128,-1,35
 266 504 266 504 284 504 c 0,36,37
 311 504 311 504 327 486.5 c 128,-1,38
 343 469 343 469 343 442 c 0,39,40
 343 426 343 426 337 410.5 c 128,-1,41
 331 395 331 395 320 383 c 128,-1,42
 309 371 309 371 293.5 363.5 c 128,-1,43
 278 356 278 356 260 356 c 0,28,29
EndSplineSet
Validated: 1
EndChar

StartChar: quotesingle
Encoding: 39 39 513
Width: 267
Flags: W
LayerCount: 2
Fore
SplineSet
124 394 m 1,0,-1
 146 561 l 1,1,-1
 163 671 l 1,2,-1
 269 671 l 1,3,-1
 245 561 l 1,4,-1
 196 394 l 1,5,-1
 124 394 l 1,0,-1
EndSplineSet
Validated: 1
EndChar

StartChar: quoteleft
Encoding: 8216 8216 515
Width: 267
Flags: W
LayerCount: 2
Fore
SplineSet
167 394 m 0,0,1
 138 394 138 394 120.5 415.5 c 128,-1,2
 103 437 103 437 103 476 c 0,3,4
 103 516 103 516 115 549 c 128,-1,5
 127 582 127 582 148 608.5 c 128,-1,6
 169 635 169 635 196.5 654 c 128,-1,7
 224 673 224 673 256 684 c 1,8,-1
 275 635 l 1,9,10
 249 624 249 624 229.5 609 c 128,-1,11
 210 594 210 594 197 578 c 128,-1,12
 184 562 184 562 177 546 c 128,-1,13
 170 530 170 530 170 517 c 1,14,-1
 175 517 l 2,15,16
 201 517 201 517 218.5 503 c 128,-1,17
 236 489 236 489 236 463 c 0,18,19
 236 435 236 435 217.5 414.5 c 128,-1,20
 199 394 199 394 167 394 c 0,0,1
EndSplineSet
Validated: 1
EndChar

StartChar: quoteright
Encoding: 8217 8217 516
Width: 267
Flags: W
LayerCount: 2
Fore
SplineSet
128 408 m 1,0,-1
 109 457 l 1,1,2
 134 468 134 468 154 483 c 128,-1,3
 174 498 174 498 187 514 c 128,-1,4
 200 530 200 530 207 546 c 128,-1,5
 214 562 214 562 214 575 c 1,6,-1
 209 575 l 2,7,8
 183 575 183 575 165.5 589 c 128,-1,9
 148 603 148 603 148 629 c 0,10,11
 148 657 148 657 167 677.5 c 128,-1,12
 186 698 186 698 218 698 c 0,13,14
 247 698 247 698 264 676.5 c 128,-1,15
 281 655 281 655 281 616 c 0,16,17
 281 576 281 576 269 543 c 128,-1,18
 257 510 257 510 236 483.5 c 128,-1,19
 215 457 215 457 187 438 c 128,-1,20
 159 419 159 419 128 408 c 1,0,-1
EndSplineSet
Validated: 1
EndChar

StartChar: guilsinglleft
Encoding: 8249 8249 521
Width: 262
Flags: W
LayerCount: 2
Fore
SplineSet
143 62 m 1,0,-1
 40 216 l 1,1,-1
 54 296 l 1,2,-1
 209 440 l 1,3,-1
 244 402 l 1,4,-1
 107 248 l 1,5,-1
 188 91 l 1,6,-1
 143 62 l 1,0,-1
EndSplineSet
Validated: 1
EndChar

StartChar: guilsinglright
Encoding: 8250 8250 522
Width: 262
Flags: W
LayerCount: 2
Fore
SplineSet
60 62 m 1,0,-1
 25 100 l 1,1,-1
 162 254 l 1,2,-1
 80 411 l 1,3,-1
 126 440 l 1,4,-1
 229 286 l 1,5,-1
 214 206 l 1,6,-1
 60 62 l 1,0,-1
EndSplineSet
Validated: 1
EndChar

StartChar: hyphen
Encoding: 45 45 525
Width: 310
Flags: W
LayerCount: 2
Fore
SplineSet
34 213 m 1,0,-1
 50 292 l 1,1,-1
 277 292 l 1,2,-1
 260 213 l 1,3,-1
 34 213 l 1,0,-1
EndSplineSet
Validated: 1
EndChar

StartChar: endash
Encoding: 8211 8211 527
Width: 463
Flags: W
LayerCount: 2
Fore
SplineSet
35 216 m 1,0,-1
 49 288 l 1,1,-1
 428 288 l 1,2,-1
 413 216 l 1,3,-1
 35 216 l 1,0,-1
EndSplineSet
Validated: 1
EndChar

StartChar: emdash
Encoding: 8212 8212 528
Width: 770
Flags: W
LayerCount: 2
Fore
SplineSet
35 216 m 1,0,-1
 49 288 l 1,1,-1
 736 288 l 1,2,-1
 721 216 l 1,3,-1
 35 216 l 1,0,-1
EndSplineSet
Validated: 1
EndChar

StartChar: figuredash
Encoding: 8210 8210 529
Width: 494
Flags: W
LayerCount: 2
Fore
SplineSet
35 216 m 1,0,-1
 49 288 l 1,1,-1
 460 288 l 1,2,-1
 444 216 l 1,3,-1
 35 216 l 1,0,-1
EndSplineSet
Validated: 1
EndChar

StartChar: bullet
Encoding: 8226 8226 532
Width: 313
Flags: W
LayerCount: 2
Fore
SplineSet
146 136 m 0,0,1
 100 136 100 136 70 167 c 128,-1,2
 40 198 40 198 40 248 c 0,3,4
 40 274 40 274 49 299.5 c 128,-1,5
 58 325 58 325 75 345 c 128,-1,6
 92 365 92 365 116 377.5 c 128,-1,7
 140 390 140 390 170 390 c 0,8,9
 215 390 215 390 245.5 359 c 128,-1,10
 276 328 276 328 276 278 c 0,11,12
 276 252 276 252 267 226.5 c 128,-1,13
 258 201 258 201 241 181 c 128,-1,14
 224 161 224 161 200 148.5 c 128,-1,15
 176 136 176 136 146 136 c 0,0,1
EndSplineSet
Validated: 1
EndChar

StartChar: underscore
Encoding: 95 95 533
Width: 482
Flags: W
LayerCount: 2
Fore
SplineSet
-42 -131 m 1,0,-1
 -28 -67 l 1,1,-1
 428 -67 l 1,2,-1
 415 -131 l 1,3,-1
 -42 -131 l 1,0,-1
EndSplineSet
Validated: 1
EndChar

StartChar: parenleft
Encoding: 40 40 534
Width: 310
Flags: W
LayerCount: 2
Fore
SplineSet
118 -178 m 1,0,1
 95 -114 95 -114 77.5 -32 c 128,-1,2
 60 50 60 50 60 132 c 0,3,4
 60 219 60 219 75.5 297 c 128,-1,5
 91 375 91 375 121 448 c 128,-1,6
 151 521 151 521 194.5 591 c 128,-1,7
 238 661 238 661 294 732 c 1,8,-1
 357 699 l 1,9,10
 251 561 251 561 199.5 418 c 128,-1,11
 148 275 148 275 148 123 c 0,12,13
 148 90 148 90 150.5 53.5 c 128,-1,14
 153 17 153 17 157.5 -19 c 128,-1,15
 162 -55 162 -55 169.5 -88.5 c 128,-1,16
 177 -122 177 -122 188 -150 c 1,17,-1
 118 -178 l 1,0,1
EndSplineSet
Validated: 1
Substitution2: "'subs' Subscript in Latin lookup 14 subtable" parenleft.subs
Substitution2: "'sups' Superscript in Latin lookup 13 subtable" parenleft.sups
Substitution2: "'dnom' Denominators in Latin lookup 9 subtable" parenleft.dnom
Substitution2: "'numr' Numerators in Latin lookup 8 subtable" parenleft.numr
AlternateSubs2: "'aalt' Access All Alternates in Latin lookup 1 subtable" parenleft.numr parenleft.dnom parenleft.sups parenleft.subs
EndChar

StartChar: parenright
Encoding: 41 41 535
Width: 312
Flags: W
LayerCount: 2
Fore
SplineSet
24 -178 m 1,0,-1
 -38 -144 l 1,1,2
 68 -7 68 -7 119 136.5 c 128,-1,3
 170 280 170 280 170 432 c 0,4,5
 170 465 170 465 167.5 501.5 c 128,-1,6
 165 538 165 538 160.5 574 c 128,-1,7
 156 610 156 610 148.5 643.5 c 128,-1,8
 141 677 141 677 131 705 c 1,9,-1
 200 732 l 1,10,11
 212 700 212 700 222.5 663.5 c 128,-1,12
 233 627 233 627 241 587 c 128,-1,13
 249 547 249 547 253.5 505.5 c 128,-1,14
 258 464 258 464 258 423 c 0,15,16
 258 336 258 336 242.5 257.5 c 128,-1,17
 227 179 227 179 197 106 c 128,-1,18
 167 33 167 33 123.5 -37 c 128,-1,19
 80 -107 80 -107 24 -178 c 1,0,-1
EndSplineSet
Validated: 1
Substitution2: "'subs' Subscript in Latin lookup 14 subtable" parenright.subs
Substitution2: "'sups' Superscript in Latin lookup 13 subtable" parenright.sups
Substitution2: "'dnom' Denominators in Latin lookup 9 subtable" parenright.dnom
Substitution2: "'numr' Numerators in Latin lookup 8 subtable" parenright.numr
AlternateSubs2: "'aalt' Access All Alternates in Latin lookup 1 subtable" parenright.numr parenright.dnom parenright.sups parenright.subs
EndChar

StartChar: bracketleft
Encoding: 91 91 536
Width: 311
Flags: W
LayerCount: 2
Fore
SplineSet
2 -152 m 1,0,-1
 174 708 l 1,1,-1
 359 708 l 1,2,-1
 349 649 l 1,3,-1
 243 649 l 1,4,-1
 95 -93 l 1,5,-1
 200 -93 l 1,6,-1
 187 -152 l 1,7,-1
 2 -152 l 1,0,-1
EndSplineSet
Validated: 1
EndChar

StartChar: bracketright
Encoding: 93 93 537
Width: 312
Flags: W
LayerCount: 2
Fore
SplineSet
-39 -152 m 1,0,-1
 -26 -93 l 1,1,-1
 78 -93 l 1,2,-1
 227 649 l 1,3,-1
 122 649 l 1,4,-1
 133 708 l 1,5,-1
 319 708 l 1,6,-1
 147 -152 l 1,7,-1
 -39 -152 l 1,0,-1
EndSplineSet
Validated: 1
EndChar

StartChar: braceleft
Encoding: 123 123 538
Width: 309
Flags: W
LayerCount: 2
Fore
SplineSet
138 -152 m 2,0,1
 88 -152 88 -152 67 -131.5 c 128,-1,2
 46 -111 46 -111 46 -68 c 0,3,4
 46 -40 46 -40 54.5 -3.5 c 128,-1,5
 63 33 63 33 72.5 69 c 128,-1,6
 82 105 82 105 90.5 136.5 c 128,-1,7
 99 168 99 168 99 188 c 0,8,9
 99 209 99 209 85 226.5 c 128,-1,10
 71 244 71 244 29 246 c 1,11,-1
 43 310 l 1,12,13
 68 311 68 311 86 318 c 128,-1,14
 104 325 104 325 115 336.5 c 128,-1,15
 126 348 126 348 132 361.5 c 128,-1,16
 138 375 138 375 141 389 c 0,17,18
 145 413 145 413 148 434 c 128,-1,19
 151 455 151 455 154 476.5 c 128,-1,20
 157 498 157 498 160.5 520.5 c 128,-1,21
 164 543 164 543 169 569 c 0,22,23
 177 609 177 609 188 635.5 c 128,-1,24
 199 662 199 662 215.5 678 c 128,-1,25
 232 694 232 694 254.5 701 c 128,-1,26
 277 708 277 708 309 708 c 2,27,-1
 364 708 l 1,28,-1
 351 649 l 1,29,-1
 329 649 l 2,30,31
 294 649 294 649 278 629 c 128,-1,32
 262 609 262 609 254 564 c 0,33,34
 246 522 246 522 239.5 480 c 128,-1,35
 233 438 233 438 225 393 c 0,36,37
 214 339 214 339 192.5 312.5 c 128,-1,38
 171 286 171 286 134 277 c 1,39,-1
 133 273 l 1,40,41
 183 259 183 259 183 207 c 0,42,43
 183 181 183 181 175.5 146 c 128,-1,44
 168 111 168 111 158.5 75 c 128,-1,45
 149 39 149 39 141.5 6 c 128,-1,46
 134 -27 134 -27 134 -49 c 0,47,48
 134 -72 134 -72 144 -82.5 c 128,-1,49
 154 -93 154 -93 183 -93 c 2,50,-1
 203 -93 l 1,51,-1
 191 -152 l 1,52,-1
 138 -152 l 2,0,1
EndSplineSet
Validated: 1
EndChar

StartChar: braceright
Encoding: 125 125 539
Width: 312
Flags: W
LayerCount: 2
Fore
SplineSet
-45 -152 m 1,0,-1
 -32 -93 l 1,1,-1
 -10 -93 l 2,2,3
 25 -93 25 -93 41 -73.5 c 128,-1,4
 57 -54 57 -54 65 -9 c 0,5,6
 73 33 73 33 79.5 75 c 128,-1,7
 86 117 86 117 94 162 c 0,8,9
 105 216 105 216 126.5 243 c 128,-1,10
 148 270 148 270 185 279 c 1,11,-1
 186 283 l 1,12,13
 159 291 159 291 147.5 307 c 128,-1,14
 136 323 136 323 136 349 c 0,15,16
 136 374 136 374 143.5 409 c 128,-1,17
 151 444 151 444 160.5 480 c 128,-1,18
 170 516 170 516 177.5 549 c 128,-1,19
 185 582 185 582 185 604 c 0,20,21
 185 627 185 627 175 638 c 128,-1,22
 165 649 165 649 136 649 c 2,23,-1
 116 649 l 1,24,-1
 128 708 l 1,25,-1
 181 708 l 2,26,27
 231 708 231 708 252 687 c 128,-1,28
 273 666 273 666 273 624 c 0,29,30
 273 595 273 595 264.5 559 c 128,-1,31
 256 523 256 523 246.5 487 c 128,-1,32
 237 451 237 451 228.5 419 c 128,-1,33
 220 387 220 387 220 367 c 0,34,35
 220 357 220 357 223 347 c 128,-1,36
 226 337 226 337 234 329 c 128,-1,37
 242 321 242 321 255.5 316 c 128,-1,38
 269 311 269 311 290 310 c 1,39,-1
 276 246 l 1,40,41
 250 245 250 245 232.5 238 c 128,-1,42
 215 231 215 231 204 219.5 c 128,-1,43
 193 208 193 208 187 194.5 c 128,-1,44
 181 181 181 181 178 167 c 0,45,46
 169 120 169 120 164.5 79 c 128,-1,47
 160 38 160 38 150 -14 c 0,48,49
 142 -54 142 -54 131 -80.5 c 128,-1,50
 120 -107 120 -107 103.5 -123 c 128,-1,51
 87 -139 87 -139 64 -145.5 c 128,-1,52
 41 -152 41 -152 10 -152 c 2,53,-1
 -45 -152 l 1,0,-1
EndSplineSet
Validated: 1
EndChar

StartChar: slash
Encoding: 47 47 540
Width: 334
Flags: W
LayerCount: 2
Fore
SplineSet
-70 -160 m 1,0,-1
 332 710 l 1,1,-1
 406 710 l 1,2,-1
 2 -160 l 1,3,-1
 -70 -160 l 1,0,-1
EndSplineSet
Validated: 1
Substitution2: "'frac' Diagonal Fractions in Latin lookup 10 subtable" slash.frac
EndChar

StartChar: bar
Encoding: 124 124 541
Width: 243
Flags: W
LayerCount: 2
Fore
SplineSet
92 -250 m 1,0,-1
 92 750 l 1,1,-1
 161 750 l 1,2,-1
 161 -250 l 1,3,-1
 92 -250 l 1,0,-1
EndSplineSet
Validated: 1
EndChar

StartChar: backslash
Encoding: 92 92 542
Width: 334
Flags: W
LayerCount: 2
Fore
SplineSet
182 -160 m 1,0,-1
 86 710 l 1,1,-1
 157 710 l 1,2,-1
 254 -160 l 1,3,-1
 182 -160 l 1,0,-1
EndSplineSet
Validated: 1
EndChar

StartChar: brokenbar
Encoding: 166 166 543
Width: 243
Flags: W
LayerCount: 2
Fore
SplineSet
92 299 m 1,0,-1
 92 750 l 1,1,-1
 161 750 l 1,2,-1
 161 299 l 1,3,-1
 92 299 l 1,0,-1
92 -250 m 1,4,-1
 92 209 l 1,5,-1
 161 209 l 1,6,-1
 161 -250 l 1,7,-1
 92 -250 l 1,4,-1
EndSplineSet
Validated: 1
EndChar

StartChar: asterisk
Encoding: 42 42 544
Width: 421
Flags: W
LayerCount: 2
Fore
SplineSet
174 399 m 1,0,-1
 132 438 l 1,1,-1
 204 532 l 1,2,-1
 113 584 l 1,3,-1
 138 636 l 1,4,-1
 240 603 l 1,5,-1
 269 713 l 1,6,-1
 327 709 l 1,7,-1
 319 596 l 1,8,-1
 427 610 l 1,9,-1
 436 554 l 1,10,-1
 329 519 l 1,11,-1
 367 417 l 1,12,-1
 315 387 l 1,13,-1
 258 478 l 1,14,-1
 174 399 l 1,0,-1
EndSplineSet
Validated: 1
EndChar

StartChar: dagger
Encoding: 8224 8224 545
Width: 462
Flags: W
LayerCount: 2
Fore
SplineSet
120 -80 m 1,0,-1
 238 471 l 1,1,-1
 91 464 l 1,2,-1
 109 553 l 1,3,-1
 251 546 l 1,4,-1
 278 712 l 1,5,-1
 367 712 l 1,6,-1
 327 546 l 1,7,-1
 473 553 l 1,8,-1
 456 464 l 1,9,-1
 313 471 l 1,10,-1
 209 -80 l 1,11,-1
 120 -80 l 1,0,-1
EndSplineSet
Validated: 1
EndChar

StartChar: daggerdbl
Encoding: 8225 8225 546
Width: 462
Flags: W
LayerCount: 2
Fore
SplineSet
121 -80 m 1,0,-1
 159 84 l 1,1,-1
 14 78 l 1,2,-1
 31 166 l 1,3,-1
 175 158 l 1,4,-1
 199 316 l 1,5,-1
 238 474 l 1,6,-1
 91 464 l 1,7,-1
 108 553 l 1,8,-1
 251 546 l 1,9,-1
 278 712 l 1,10,-1
 366 712 l 1,11,-1
 327 546 l 1,12,-1
 473 553 l 1,13,-1
 456 464 l 1,14,-1
 313 474 l 1,15,-1
 288 316 l 1,16,-1
 250 158 l 1,17,-1
 397 166 l 1,18,-1
 379 78 l 1,19,-1
 235 84 l 1,20,-1
 210 -80 l 1,21,-1
 121 -80 l 1,0,-1
EndSplineSet
Validated: 1
EndChar

StartChar: section
Encoding: 167 167 547
Width: 491
Flags: W
LayerCount: 2
Fore
SplineSet
145 339 m 0,0,1
 145 314 145 314 161 295.5 c 128,-1,2
 177 277 177 277 201 261 c 128,-1,3
 225 245 225 245 253.5 229.5 c 128,-1,4
 282 214 282 214 306 195 c 1,5,6
 333 207 333 207 348 226.5 c 128,-1,7
 363 246 363 246 363 279 c 0,8,9
 363 303 363 303 347.5 322 c 128,-1,10
 332 341 332 341 308.5 357.5 c 128,-1,11
 285 374 285 374 257.5 389.5 c 128,-1,12
 230 405 230 405 205 424 c 1,13,14
 179 412 179 412 162 391.5 c 128,-1,15
 145 371 145 371 145 339 c 0,0,1
187 -70 m 0,16,17
 140 -70 140 -70 93 -49 c 128,-1,18
 46 -28 46 -28 8 10 c 1,19,-1
 63 77 l 1,20,21
 88 51 88 51 122.5 31 c 128,-1,22
 157 11 157 11 193 11 c 0,23,24
 225 11 225 11 245.5 28.5 c 128,-1,25
 266 46 266 46 266 75 c 0,26,27
 266 97 266 97 250 113.5 c 128,-1,28
 234 130 234 130 210.5 145.5 c 128,-1,29
 187 161 187 161 159 177 c 128,-1,30
 131 193 131 193 107.5 213.5 c 128,-1,31
 84 234 84 234 68 261 c 128,-1,32
 52 288 52 288 52 326 c 0,33,34
 52 378 52 378 82 415.5 c 128,-1,35
 112 453 112 453 159 473 c 1,36,37
 142 501 142 501 142 533 c 0,38,39
 142 567 142 567 154 595.5 c 128,-1,40
 166 624 166 624 188 644 c 128,-1,41
 210 664 210 664 240 675.5 c 128,-1,42
 270 687 270 687 306 687 c 0,43,44
 352 687 352 687 393.5 666 c 128,-1,45
 435 645 435 645 467 611 c 1,46,-1
 410 550 l 1,47,48
 390 572 390 572 363 588.5 c 128,-1,49
 336 605 336 605 305 605 c 0,50,51
 279 605 279 605 259.5 589.5 c 128,-1,52
 240 574 240 574 240 545 c 0,53,54
 240 525 240 525 256 508.5 c 128,-1,55
 272 492 272 492 296 476.5 c 128,-1,56
 320 461 320 461 348.5 444 c 128,-1,57
 377 427 377 427 401 405.5 c 128,-1,58
 425 384 425 384 441 356.5 c 128,-1,59
 457 329 457 329 457 292 c 0,60,61
 457 235 457 235 429.5 199.5 c 128,-1,62
 402 164 402 164 352 141 c 1,63,64
 364 117 364 117 364 88 c 0,65,66
 364 53 364 53 351 24 c 128,-1,67
 338 -5 338 -5 314.5 -26 c 128,-1,68
 291 -47 291 -47 258.5 -58.5 c 128,-1,69
 226 -70 226 -70 187 -70 c 0,16,17
EndSplineSet
Validated: 1
EndChar

StartChar: paragraph
Encoding: 182 182 548
Width: 572
Flags: W
LayerCount: 2
Fore
SplineSet
307 -80 m 1,0,-1
 453 654 l 1,1,-1
 560 654 l 1,2,-1
 414 -80 l 1,3,-1
 307 -80 l 1,0,-1
289 213 m 2,4,5
 245 213 245 213 205.5 224.5 c 128,-1,6
 166 236 166 236 136 259 c 128,-1,7
 106 282 106 282 88.5 315.5 c 128,-1,8
 71 349 71 349 71 393 c 0,9,10
 71 460 71 460 94.5 509.5 c 128,-1,11
 118 559 118 559 157.5 591 c 128,-1,12
 197 623 197 623 248 638.5 c 128,-1,13
 299 654 299 654 354 654 c 2,14,-1
 400 654 l 1,15,-1
 312 213 l 1,16,-1
 289 213 l 2,4,5
EndSplineSet
Validated: 1
EndChar

StartChar: copyright
Encoding: 169 169 549
Width: 668
Flags: W
LayerCount: 2
Fore
SplineSet
298 -10 m 0,0,1
 240 -10 240 -10 191.5 10.5 c 128,-1,2
 143 31 143 31 107.5 68 c 128,-1,3
 72 105 72 105 52.5 156 c 128,-1,4
 33 207 33 207 33 268 c 0,5,6
 33 344 33 344 60 414 c 128,-1,7
 87 484 87 484 135.5 537.5 c 128,-1,8
 184 591 184 591 251.5 622.5 c 128,-1,9
 319 654 319 654 401 654 c 0,10,11
 459 654 459 654 507.5 633.5 c 128,-1,12
 556 613 556 613 591.5 576 c 128,-1,13
 627 539 627 539 646.5 488.5 c 128,-1,14
 666 438 666 438 666 377 c 0,15,16
 666 300 666 300 639 230 c 128,-1,17
 612 160 612 160 563.5 107 c 128,-1,18
 515 54 515 54 447.5 22 c 128,-1,19
 380 -10 380 -10 298 -10 c 0,0,1
302 41 m 0,20,21
 369 41 369 41 426.5 68.5 c 128,-1,22
 484 96 484 96 525 142 c 128,-1,23
 566 188 566 188 589.5 248 c 128,-1,24
 613 308 613 308 613 372 c 0,25,26
 613 421 613 421 598.5 463.5 c 128,-1,27
 584 506 584 506 556.5 537 c 128,-1,28
 529 568 529 568 489 586 c 128,-1,29
 449 604 449 604 397 604 c 0,30,31
 329 604 329 604 272 576.5 c 128,-1,32
 215 549 215 549 174 503 c 128,-1,33
 133 457 133 457 109.5 397 c 128,-1,34
 86 337 86 337 86 273 c 0,35,36
 86 224 86 224 100.5 181.5 c 128,-1,37
 115 139 115 139 142.5 108 c 128,-1,38
 170 77 170 77 210 59 c 128,-1,39
 250 41 250 41 302 41 c 0,20,21
328 126 m 0,40,41
 260 126 260 126 218.5 166 c 128,-1,42
 177 206 177 206 177 279 c 0,43,44
 177 333 177 333 196.5 376.5 c 128,-1,45
 216 420 216 420 247 450.5 c 128,-1,46
 278 481 278 481 316 497.5 c 128,-1,47
 354 514 354 514 392 514 c 0,48,49
 427 514 427 514 451.5 498 c 128,-1,50
 476 482 476 482 492 462 c 1,51,-1
 444 417 l 1,52,53
 430 433 430 433 416 440.5 c 128,-1,54
 402 448 402 448 382 448 c 0,55,56
 360 448 360 448 337.5 436 c 128,-1,57
 315 424 315 424 297 403 c 128,-1,58
 279 382 279 382 267.5 353 c 128,-1,59
 256 324 256 324 256 290 c 0,60,61
 256 242 256 242 279.5 217 c 128,-1,62
 303 192 303 192 344 192 c 0,63,64
 369 192 369 192 388 201.5 c 128,-1,65
 407 211 407 211 430 226 c 1,66,-1
 462 176 l 1,67,68
 431 152 431 152 398.5 139 c 128,-1,69
 366 126 366 126 328 126 c 0,40,41
EndSplineSet
Validated: 1
EndChar

StartChar: uni2117
Encoding: 8471 8471 550
Width: 668
Flags: W
LayerCount: 2
Fore
SplineSet
298 -10 m 0,0,1
 240 -10 240 -10 191.5 10.5 c 128,-1,2
 143 31 143 31 107.5 68 c 128,-1,3
 72 105 72 105 52.5 156 c 128,-1,4
 33 207 33 207 33 268 c 0,5,6
 33 344 33 344 60 414 c 128,-1,7
 87 484 87 484 135.5 537.5 c 128,-1,8
 184 591 184 591 251.5 622.5 c 128,-1,9
 319 654 319 654 401 654 c 0,10,11
 459 654 459 654 507.5 633.5 c 128,-1,12
 556 613 556 613 591.5 576 c 128,-1,13
 627 539 627 539 646.5 488.5 c 128,-1,14
 666 438 666 438 666 377 c 0,15,16
 666 300 666 300 639 230 c 128,-1,17
 612 160 612 160 563.5 107 c 128,-1,18
 515 54 515 54 447.5 22 c 128,-1,19
 380 -10 380 -10 298 -10 c 0,0,1
302 41 m 0,20,21
 369 41 369 41 426.5 68.5 c 128,-1,22
 484 96 484 96 525 142 c 128,-1,23
 566 188 566 188 589.5 248 c 128,-1,24
 613 308 613 308 613 372 c 0,25,26
 613 421 613 421 598.5 463.5 c 128,-1,27
 584 506 584 506 556.5 537 c 128,-1,28
 529 568 529 568 489 586 c 128,-1,29
 449 604 449 604 397 604 c 0,30,31
 329 604 329 604 272 576.5 c 128,-1,32
 215 549 215 549 174 503 c 128,-1,33
 133 457 133 457 109.5 397 c 128,-1,34
 86 337 86 337 86 273 c 0,35,36
 86 224 86 224 100.5 181.5 c 128,-1,37
 115 139 115 139 142.5 108 c 128,-1,38
 170 77 170 77 210 59 c 128,-1,39
 250 41 250 41 302 41 c 0,20,21
189 138 m 1,40,-1
 261 502 l 1,41,-1
 392 502 l 2,42,43
 449 502 449 502 486.5 477.5 c 128,-1,44
 524 453 524 453 524 401 c 0,45,46
 524 361 524 361 508.5 331 c 128,-1,47
 493 301 493 301 467.5 281.5 c 128,-1,48
 442 262 442 262 409 252.5 c 128,-1,49
 376 243 376 243 340 243 c 2,50,-1
 288 243 l 1,51,-1
 268 138 l 1,52,-1
 189 138 l 1,40,-1
300 301 m 1,53,-1
 344 301 l 2,54,55
 395 301 395 301 420.5 324 c 128,-1,56
 446 347 446 347 446 387 c 0,57,58
 446 413 446 413 427.5 427 c 128,-1,59
 409 441 409 441 374 441 c 2,60,-1
 328 441 l 1,61,-1
 300 301 l 1,53,-1
EndSplineSet
Validated: 1
EndChar

StartChar: registered
Encoding: 174 174 551
Width: 425
Flags: W
LayerCount: 2
Fore
SplineSet
245 318 m 0,0,1
 211 318 211 318 180.5 330.5 c 128,-1,2
 150 343 150 343 127 366 c 128,-1,3
 104 389 104 389 90.5 420.5 c 128,-1,4
 77 452 77 452 77 490 c 0,5,6
 77 533 77 533 92 573 c 128,-1,7
 107 613 107 613 134 644 c 128,-1,8
 161 675 161 675 198.5 693.5 c 128,-1,9
 236 712 236 712 281 712 c 0,10,11
 315 712 315 712 345 699 c 128,-1,12
 375 686 375 686 398 663 c 128,-1,13
 421 640 421 640 435 608.5 c 128,-1,14
 449 577 449 577 449 539 c 0,15,16
 449 496 449 496 433.5 456 c 128,-1,17
 418 416 418 416 391 385.5 c 128,-1,18
 364 355 364 355 326.5 336.5 c 128,-1,19
 289 318 289 318 245 318 c 0,0,1
248 358 m 0,20,21
 282 358 282 358 310.5 372.5 c 128,-1,22
 339 387 339 387 360 411 c 128,-1,23
 381 435 381 435 393 467 c 128,-1,24
 405 499 405 499 405 535 c 0,25,26
 405 564 405 564 396 589 c 128,-1,27
 387 614 387 614 370.5 632 c 128,-1,28
 354 650 354 650 330.5 660.5 c 128,-1,29
 307 671 307 671 278 671 c 0,30,31
 244 671 244 671 215.5 656.5 c 128,-1,32
 187 642 187 642 166 618 c 128,-1,33
 145 594 145 594 133 562 c 128,-1,34
 121 530 121 530 121 494 c 0,35,36
 121 436 121 436 155 397 c 128,-1,37
 189 358 189 358 248 358 c 0,20,21
173 417 m 1,38,-1
 214 616 l 1,39,-1
 288 616 l 2,40,41
 317 616 317 616 335 600.5 c 128,-1,42
 353 585 353 585 353 558 c 0,43,44
 353 536 353 536 340 518.5 c 128,-1,45
 327 501 327 501 304 493 c 1,46,-1
 330 417 l 1,47,-1
 283 417 l 1,48,-1
 263 482 l 1,49,-1
 233 482 l 1,50,-1
 219 417 l 1,51,-1
 173 417 l 1,38,-1
240 517 m 1,52,-1
 259 517 l 2,53,54
 280 517 280 517 291.5 527 c 128,-1,55
 303 537 303 537 303 553 c 0,56,57
 303 565 303 565 296 572.5 c 128,-1,58
 289 580 289 580 273 580 c 2,59,-1
 252 580 l 1,60,-1
 240 517 l 1,52,-1
EndSplineSet
Validated: 1
EndChar

StartChar: trademark
Encoding: 8482 8482 552
Width: 632
Flags: W
LayerCount: 2
Fore
SplineSet
118 364 m 1,0,-1
 166 610 l 1,1,-1
 74 610 l 1,2,-1
 87 676 l 1,3,-1
 341 676 l 1,4,-1
 328 610 l 1,5,-1
 239 610 l 1,6,-1
 190 364 l 1,7,-1
 118 364 l 1,0,-1
323 364 m 1,8,-1
 384 676 l 1,9,-1
 469 676 l 1,10,-1
 491 572 l 1,11,-1
 500 496 l 1,12,-1
 504 496 l 1,13,-1
 540 572 l 1,14,-1
 604 676 l 1,15,-1
 691 676 l 1,16,-1
 630 364 l 1,17,-1
 559 364 l 1,18,-1
 583 485 l 1,19,-1
 619 602 l 1,20,-1
 615 602 l 1,21,-1
 504 411 l 1,22,-1
 465 411 l 1,23,-1
 429 602 l 1,24,-1
 425 602 l 1,25,-1
 416 485 l 1,26,-1
 392 364 l 1,27,-1
 323 364 l 1,8,-1
EndSplineSet
Validated: 1
EndChar

StartChar: uni2120
Encoding: 8480 8480 553
Width: 622
Flags: W
LayerCount: 2
Fore
SplineSet
150 352 m 0,0,1
 114 352 114 352 87 365.5 c 128,-1,2
 60 379 60 379 38 408 c 1,3,-1
 86 447 l 1,4,5
 100 430 100 430 117 419.5 c 128,-1,6
 134 409 134 409 154 409 c 0,7,8
 177 409 177 409 191.5 419.5 c 128,-1,9
 206 430 206 430 206 447 c 0,10,11
 206 460 206 460 198 467.5 c 128,-1,12
 190 475 190 475 176 483 c 2,13,-1
 137 505 l 2,14,15
 121 514 121 514 107 532.5 c 128,-1,16
 93 551 93 551 93 580 c 0,17,18
 93 602 93 602 102 621 c 128,-1,19
 111 640 111 640 127.5 654 c 128,-1,20
 144 668 144 668 166 676 c 128,-1,21
 188 684 188 684 214 684 c 0,22,23
 244 684 244 684 266.5 671.5 c 128,-1,24
 289 659 289 659 308 641 c 1,25,-1
 265 597 l 1,26,27
 251 611 251 611 237 619.5 c 128,-1,28
 223 628 223 628 208 628 c 0,29,30
 185 628 185 628 173 616.5 c 128,-1,31
 161 605 161 605 161 593 c 0,32,33
 161 580 161 580 170.5 571 c 128,-1,34
 180 562 180 562 192 556 c 2,35,-1
 229 536 l 2,36,37
 249 525 249 525 262.5 507 c 128,-1,38
 276 489 276 489 276 460 c 0,39,40
 276 439 276 439 266.5 419.5 c 128,-1,41
 257 400 257 400 240.5 385 c 128,-1,42
 224 370 224 370 200.5 361 c 128,-1,43
 177 352 177 352 150 352 c 0,0,1
313 364 m 1,44,-1
 374 676 l 1,45,-1
 459 676 l 1,46,-1
 481 572 l 1,47,-1
 490 496 l 1,48,-1
 494 496 l 1,49,-1
 530 572 l 1,50,-1
 594 676 l 1,51,-1
 681 676 l 1,52,-1
 620 364 l 1,53,-1
 549 364 l 1,54,-1
 573 485 l 1,55,-1
 609 602 l 1,56,-1
 605 602 l 1,57,-1
 494 411 l 1,58,-1
 455 411 l 1,59,-1
 419 602 l 1,60,-1
 415 602 l 1,61,-1
 406 485 l 1,62,-1
 382 364 l 1,63,-1
 313 364 l 1,44,-1
EndSplineSet
Validated: 1
EndChar

StartChar: at
Encoding: 64 64 554
Width: 840
Flags: W
LayerCount: 2
Fore
SplineSet
366 -162 m 0,0,1
 300 -162 300 -162 241.5 -141 c 128,-1,2
 183 -120 183 -120 139 -79 c 128,-1,3
 95 -38 95 -38 69.5 22.5 c 128,-1,4
 44 83 44 83 44 163 c 0,5,6
 44 268 44 268 81 358 c 128,-1,7
 118 448 118 448 180 514 c 128,-1,8
 242 580 242 580 323 617.5 c 128,-1,9
 404 655 404 655 492 655 c 0,10,11
 566 655 566 655 624 632 c 128,-1,12
 682 609 682 609 722 568.5 c 128,-1,13
 762 528 762 528 783 472.5 c 128,-1,14
 804 417 804 417 804 353 c 0,15,16
 804 277 804 277 785.5 219 c 128,-1,17
 767 161 767 161 736 122 c 128,-1,18
 705 83 705 83 664.5 63 c 128,-1,19
 624 43 624 43 579 43 c 0,20,21
 544 43 544 43 518 62.5 c 128,-1,22
 492 82 492 82 484 118 c 1,23,-1
 481 118 l 1,24,25
 460 89 460 89 430 70.5 c 128,-1,26
 400 52 400 52 368 52 c 0,27,28
 343 52 343 52 321.5 61.5 c 128,-1,29
 300 71 300 71 283.5 89 c 128,-1,30
 267 107 267 107 257.5 133 c 128,-1,31
 248 159 248 159 248 192 c 0,32,33
 248 238 248 238 264 281.5 c 128,-1,34
 280 325 280 325 307 359 c 128,-1,35
 334 393 334 393 370 413.5 c 128,-1,36
 406 434 406 434 447 434 c 0,37,38
 494 434 494 434 518 385 c 1,39,-1
 520 385 l 1,40,-1
 535 426 l 1,41,-1
 602 426 l 1,42,-1
 552 207 l 2,43,44
 541 162 541 162 552 137 c 128,-1,45
 563 112 563 112 599 112 c 0,46,47
 621 112 621 112 644.5 127 c 128,-1,48
 668 142 668 142 687.5 171 c 128,-1,49
 707 200 707 200 719.5 242.5 c 128,-1,50
 732 285 732 285 732 341 c 0,51,52
 732 392 732 392 718 437 c 128,-1,53
 704 482 704 482 674 515.5 c 128,-1,54
 644 549 644 549 596.5 569 c 128,-1,55
 549 589 549 589 482 589 c 0,56,57
 416 589 416 589 351.5 557.5 c 128,-1,58
 287 526 287 526 235.5 470.5 c 128,-1,59
 184 415 184 415 152 339.5 c 128,-1,60
 120 264 120 264 120 176 c 0,61,62
 120 109 120 109 141 58.5 c 128,-1,63
 162 8 162 8 197 -26 c 128,-1,64
 232 -60 232 -60 278.5 -77 c 128,-1,65
 325 -94 325 -94 375 -94 c 0,66,67
 407 -94 407 -94 440.5 -85 c 128,-1,68
 474 -76 474 -76 502 -59 c 1,69,-1
 532 -119 l 1,70,71
 450 -162 450 -162 366 -162 c 0,0,1
389 122 m 0,72,73
 408 122 408 122 427 135 c 128,-1,74
 446 148 446 148 466 177 c 1,75,-1
 500 326 l 1,76,77
 489 347 489 347 476.5 355.5 c 128,-1,78
 464 364 464 364 449 364 c 0,79,80
 423 364 423 364 401 348.5 c 128,-1,81
 379 333 379 333 363.5 309 c 128,-1,82
 348 285 348 285 339 256 c 128,-1,83
 330 227 330 227 330 200 c 0,84,85
 330 161 330 161 346 141.5 c 128,-1,86
 362 122 362 122 389 122 c 0,72,73
EndSplineSet
Validated: 33
Substitution2: "'case' Case-Sensitive Forms in Latin lookup 19 subtable" at.case
Substitution2: "'aalt' Access All Alternates in Latin lookup 0 subtable" at.case
EndChar

StartChar: at.case
Encoding: 65623 -1 555
Width: 818
Flags: W
LayerCount: 2
Fore
SplineSet
367 -26 m 0,0,1
 308 -26 308 -26 257.5 -7 c 128,-1,2
 207 12 207 12 170 48 c 128,-1,3
 133 84 133 84 112.5 136 c 128,-1,4
 92 188 92 188 92 253 c 0,5,6
 92 350 92 350 127 431 c 128,-1,7
 162 512 162 512 219 570.5 c 128,-1,8
 276 629 276 629 349.5 661 c 128,-1,9
 423 693 423 693 501 693 c 0,10,11
 571 693 571 693 624 672.5 c 128,-1,12
 677 652 677 652 712 616.5 c 128,-1,13
 747 581 747 581 764.5 532.5 c 128,-1,14
 782 484 782 484 782 428 c 0,15,16
 782 359 782 359 766 306 c 128,-1,17
 750 253 750 253 722.5 217 c 128,-1,18
 695 181 695 181 659 162.5 c 128,-1,19
 623 144 623 144 583 144 c 0,20,21
 549 144 549 144 525 163 c 128,-1,22
 501 182 501 182 494 218 c 1,23,-1
 491 218 l 1,24,25
 471 189 471 189 441 171 c 128,-1,26
 411 153 411 153 382 153 c 0,27,28
 337 153 337 153 305.5 188.5 c 128,-1,29
 274 224 274 224 274 288 c 0,30,31
 274 328 274 328 288.5 367 c 128,-1,32
 303 406 303 406 327.5 436.5 c 128,-1,33
 352 467 352 467 386 486 c 128,-1,34
 420 505 420 505 459 505 c 0,35,36
 503 505 503 505 525 456 c 1,37,-1
 527 456 l 1,38,-1
 542 498 l 1,39,-1
 609 498 l 1,40,-1
 563 307 l 2,41,42
 552 262 552 262 562 237.5 c 128,-1,43
 572 213 572 213 605 213 c 0,44,45
 623 213 623 213 642 227 c 128,-1,46
 661 241 661 241 676.5 267.5 c 128,-1,47
 692 294 692 294 702 333 c 128,-1,48
 712 372 712 372 712 422 c 0,49,50
 712 465 712 465 700 503 c 128,-1,51
 688 541 688 541 661.5 569 c 128,-1,52
 635 597 635 597 593.5 613.5 c 128,-1,53
 552 630 552 630 494 630 c 0,54,55
 434 630 434 630 375.5 602.5 c 128,-1,56
 317 575 317 575 270.5 526 c 128,-1,57
 224 477 224 477 195 411 c 128,-1,58
 166 345 166 345 166 268 c 0,59,60
 166 212 166 212 182 169.5 c 128,-1,61
 198 127 198 127 226.5 97.5 c 128,-1,62
 255 68 255 68 294.5 53 c 128,-1,63
 334 38 334 38 382 38 c 0,64,65
 413 38 413 38 448.5 46 c 128,-1,66
 484 54 484 54 510 70 c 1,67,-1
 525 13 l 1,68,69
 487 -9 487 -9 446 -17.5 c 128,-1,70
 405 -26 405 -26 367 -26 c 0,0,1
405 222 m 0,71,72
 423 222 423 222 440.5 235 c 128,-1,73
 458 248 458 248 478 277 c 1,74,-1
 505 398 l 1,75,76
 495 419 495 419 483.5 427 c 128,-1,77
 472 435 472 435 458 435 c 0,78,79
 435 435 435 435 416 421.5 c 128,-1,80
 397 408 397 408 383.5 388 c 128,-1,81
 370 368 370 368 362.5 343 c 128,-1,82
 355 318 355 318 355 296 c 0,83,84
 355 259 355 259 369 240.5 c 128,-1,85
 383 222 383 222 405 222 c 0,71,72
EndSplineSet
Validated: 33
EndChar

StartChar: numbersign
Encoding: 35 35 556
Width: 493
Flags: W
LayerCount: 2
Fore
SplineSet
36 0 m 1,0,-1
 98 196 l 1,1,-1
 21 196 l 1,2,-1
 38 269 l 1,3,-1
 120 269 l 1,4,-1
 161 401 l 1,5,-1
 83 401 l 1,6,-1
 101 474 l 1,7,-1
 184 474 l 1,8,-1
 240 650 l 1,9,-1
 307 650 l 1,10,-1
 251 474 l 1,11,-1
 363 474 l 1,12,-1
 419 650 l 1,13,-1
 486 650 l 1,14,-1
 430 474 l 1,15,-1
 507 474 l 1,16,-1
 489 401 l 1,17,-1
 407 401 l 1,18,-1
 366 269 l 1,19,-1
 444 269 l 1,20,-1
 427 196 l 1,21,-1
 343 196 l 1,22,-1
 281 0 l 1,23,-1
 215 0 l 1,24,-1
 277 196 l 1,25,-1
 164 196 l 1,26,-1
 102 0 l 1,27,-1
 36 0 l 1,0,-1
187 269 m 1,28,-1
 300 269 l 1,29,-1
 341 401 l 1,30,-1
 228 401 l 1,31,-1
 187 269 l 1,28,-1
EndSplineSet
Validated: 1
EndChar

StartChar: zero.dnom
Encoding: 65628 -1 585
Width: 367
Flags: W
LayerCount: 2
Fore
SplineSet
144 -12 m 0,0,1
 115 -12 115 -12 90.5 -0.5 c 128,-1,2
 66 11 66 11 49 31.5 c 128,-1,3
 32 52 32 52 22.5 80.5 c 128,-1,4
 13 109 13 109 13 144 c 0,5,6
 13 193 13 193 26 240 c 128,-1,7
 39 287 39 287 63 323 c 128,-1,8
 87 359 87 359 121.5 381 c 128,-1,9
 156 403 156 403 200 403 c 0,10,11
 229 403 229 403 253 391.5 c 128,-1,12
 277 380 277 380 294.5 360 c 128,-1,13
 312 340 312 340 321.5 311 c 128,-1,14
 331 282 331 282 331 248 c 0,15,16
 331 198 331 198 318 151 c 128,-1,17
 305 104 305 104 281 68 c 128,-1,18
 257 32 257 32 222 10 c 128,-1,19
 187 -12 187 -12 144 -12 c 0,0,1
150 54 m 0,20,21
 174 54 174 54 192.5 70 c 128,-1,22
 211 86 211 86 224.5 113 c 128,-1,23
 238 140 238 140 245 174 c 128,-1,24
 252 208 252 208 252 244 c 0,25,26
 252 286 252 286 238.5 311.5 c 128,-1,27
 225 337 225 337 194 337 c 0,28,29
 170 337 170 337 151.5 321 c 128,-1,30
 133 305 133 305 119.5 278.5 c 128,-1,31
 106 252 106 252 99 217.5 c 128,-1,32
 92 183 92 183 92 147 c 0,33,34
 92 105 92 105 105.5 79.5 c 128,-1,35
 119 54 119 54 150 54 c 0,20,21
EndSplineSet
Validated: 1
EndChar

StartChar: one.dnom
Encoding: 65629 -1 586
Width: 366
Flags: W
LayerCount: 2
Fore
SplineSet
118 0 m 1,0,-1
 178 298 l 1,1,-1
 90 298 l 1,2,-1
 100 349 l 1,3,4
 120 352 120 352 135.5 355.5 c 128,-1,5
 151 359 151 359 164.5 364 c 128,-1,6
 178 369 178 369 189.5 375.5 c 128,-1,7
 201 382 201 382 214 390 c 1,8,-1
 276 390 l 1,9,-1
 200 0 l 1,10,-1
 118 0 l 1,0,-1
EndSplineSet
Validated: 1
EndChar

StartChar: two.dnom
Encoding: 65630 -1 587
Width: 358
Flags: W
LayerCount: 2
Fore
SplineSet
-2 0 m 1,0,-1
 6 47 l 1,1,2
 63 86 63 86 104.5 117.5 c 128,-1,3
 146 149 146 149 173 177 c 128,-1,4
 200 205 200 205 213 230 c 128,-1,5
 226 255 226 255 226 279 c 0,6,7
 226 304 226 304 212.5 318 c 128,-1,8
 199 332 199 332 170 332 c 0,9,10
 152 332 152 332 134 320 c 128,-1,11
 116 308 116 308 99 291 c 1,12,-1
 54 339 l 1,13,14
 84 368 84 368 114.5 385 c 128,-1,15
 145 402 145 402 184 402 c 0,16,17
 241 402 241 402 274 373 c 128,-1,18
 307 344 307 344 307 293 c 0,19,20
 307 235 307 235 263 183 c 128,-1,21
 219 131 219 131 138 68 c 1,22,-1
 278 68 l 1,23,-1
 265 0 l 1,24,-1
 -2 0 l 1,0,-1
EndSplineSet
Validated: 1
EndChar

StartChar: three.dnom
Encoding: 65631 -1 588
Width: 356
Flags: W
LayerCount: 2
Fore
SplineSet
139 -12 m 0,0,1
 88 -12 88 -12 53 11 c 128,-1,2
 18 34 18 34 -2 68 c 1,3,-1
 52 106 l 1,4,5
 66 82 66 82 85.5 67.5 c 128,-1,6
 105 53 105 53 133 53 c 0,7,8
 165 53 165 53 186 68.5 c 128,-1,9
 207 84 207 84 207 113 c 0,10,11
 207 139 207 139 186 156.5 c 128,-1,12
 165 174 165 174 111 174 c 1,13,-1
 122 225 l 1,14,15
 153 225 153 225 173.5 231 c 128,-1,16
 194 237 194 237 206 246.5 c 128,-1,17
 218 256 218 256 223 268.5 c 128,-1,18
 228 281 228 281 228 293 c 0,19,20
 228 313 228 313 214 325.5 c 128,-1,21
 200 338 200 338 176 338 c 0,22,23
 156 338 156 338 139 331.5 c 128,-1,24
 122 325 122 325 101 310 c 1,25,-1
 67 364 l 1,26,27
 99 385 99 385 128.5 393.5 c 128,-1,28
 158 402 158 402 193 402 c 0,29,30
 244 402 244 402 276 376 c 128,-1,31
 308 350 308 350 308 306 c 0,32,33
 308 268 308 268 286.5 240.5 c 128,-1,34
 265 213 265 213 223 198 c 1,35,36
 254 184 254 184 270 161 c 128,-1,37
 286 138 286 138 286 112 c 0,38,39
 286 82 286 82 274.5 59 c 128,-1,40
 263 36 263 36 242.5 20.5 c 128,-1,41
 222 5 222 5 195.5 -3.5 c 128,-1,42
 169 -12 169 -12 139 -12 c 0,0,1
EndSplineSet
Validated: 1
EndChar

StartChar: four.dnom
Encoding: 65632 -1 589
Width: 359
Flags: W
LayerCount: 2
Fore
SplineSet
162 0 m 1,0,-1
 181 97 l 1,1,-1
 2 97 l 1,2,-1
 10 140 l 1,3,-1
 214 390 l 1,4,-1
 309 390 l 1,5,-1
 262 152 l 1,6,-1
 320 152 l 1,7,-1
 308 97 l 1,8,-1
 251 97 l 1,9,-1
 232 0 l 1,10,-1
 162 0 l 1,0,-1
88 152 m 1,11,-1
 193 152 l 1,12,-1
 205 214 l 1,13,-1
 232 328 l 1,14,-1
 228 328 l 1,15,-1
 164 244 l 1,16,-1
 88 152 l 1,11,-1
EndSplineSet
Validated: 1
EndChar

StartChar: five.dnom
Encoding: 65633 -1 590
Width: 356
Flags: W
LayerCount: 2
Fore
SplineSet
138 -12 m 0,0,1
 87 -12 87 -12 52.5 11 c 128,-1,2
 18 34 18 34 -2 68 c 1,3,-1
 52 106 l 1,4,5
 66 82 66 82 86 67.5 c 128,-1,6
 106 53 106 53 137 53 c 0,7,8
 152 53 152 53 165.5 58.5 c 128,-1,9
 179 64 179 64 190 74.5 c 128,-1,10
 201 85 201 85 207.5 99.5 c 128,-1,11
 214 114 214 114 214 132 c 0,12,13
 214 162 214 162 197 178.5 c 128,-1,14
 180 195 180 195 153 195 c 0,15,16
 135 195 135 195 119.5 189 c 128,-1,17
 104 183 104 183 87 171 c 1,18,-1
 58 200 l 1,19,-1
 111 390 l 1,20,-1
 327 390 l 1,21,-1
 314 322 l 1,22,-1
 162 322 l 1,23,-1
 138 241 l 1,24,25
 150 247 150 247 162.5 249.5 c 128,-1,26
 175 252 175 252 184 252 c 0,27,28
 232 252 232 252 262.5 221.5 c 128,-1,29
 293 191 293 191 293 138 c 0,30,31
 293 105 293 105 280.5 77.5 c 128,-1,32
 268 50 268 50 246.5 30 c 128,-1,33
 225 10 225 10 197 -1 c 128,-1,34
 169 -12 169 -12 138 -12 c 0,0,1
EndSplineSet
Validated: 1
EndChar

StartChar: six.dnom
Encoding: 65634 -1 591
Width: 357
Flags: W
LayerCount: 2
Fore
SplineSet
151 -12 m 0,0,1
 122 -12 122 -12 98 -0.5 c 128,-1,2
 74 11 74 11 57 31 c 128,-1,3
 40 51 40 51 30 79.5 c 128,-1,4
 20 108 20 108 20 142 c 0,5,6
 20 206 20 206 37.5 254.5 c 128,-1,7
 55 303 55 303 83.5 336 c 128,-1,8
 112 369 112 369 149 385.5 c 128,-1,9
 186 402 186 402 226 402 c 0,10,11
 290 402 290 402 331 359 c 1,12,-1
 286 309 l 1,13,14
 272 323 272 323 256.5 330 c 128,-1,15
 241 337 241 337 219 337 c 0,16,17
 176 337 176 337 144 304 c 128,-1,18
 112 271 112 271 101 206 c 1,19,20
 117 222 117 222 140 233 c 128,-1,21
 163 244 163 244 189 244 c 0,22,23
 239 244 239 244 267 214.5 c 128,-1,24
 295 185 295 185 295 138 c 0,25,26
 295 104 295 104 283 76.5 c 128,-1,27
 271 49 271 49 251 29.5 c 128,-1,28
 231 10 231 10 205 -1 c 128,-1,29
 179 -12 179 -12 151 -12 c 0,0,1
158 53 m 0,30,31
 182 53 182 53 202 75 c 128,-1,32
 222 97 222 97 222 133 c 0,33,34
 222 159 222 159 208 173.5 c 128,-1,35
 194 188 194 188 169 188 c 0,36,37
 152 188 152 188 132.5 178.5 c 128,-1,38
 113 169 113 169 96 150 c 1,39,-1
 96 143 l 2,40,41
 96 93 96 93 114 73 c 128,-1,42
 132 53 132 53 158 53 c 0,30,31
EndSplineSet
Validated: 1
EndChar

StartChar: seven.dnom
Encoding: 65635 -1 592
Width: 358
Flags: W
LayerCount: 2
Fore
SplineSet
66 0 m 1,0,1
 90 94 90 94 132 170.5 c 128,-1,2
 174 247 174 247 243 322 c 1,3,-1
 63 322 l 1,4,-1
 76 390 l 1,5,-1
 347 390 l 1,6,-1
 340 346 l 1,7,8
 296 303 296 303 265.5 261.5 c 128,-1,9
 235 220 235 220 213.5 178 c 128,-1,10
 192 136 192 136 178 92 c 128,-1,11
 164 48 164 48 153 0 c 1,12,-1
 66 0 l 1,0,1
EndSplineSet
Validated: 1
EndChar

StartChar: eight.dnom
Encoding: 65636 -1 593
Width: 358
Flags: W
LayerCount: 2
Fore
SplineSet
137 -12 m 0,0,1
 80 -12 80 -12 45 17.5 c 128,-1,2
 10 47 10 47 10 92 c 0,3,4
 10 113 10 113 18 130.5 c 128,-1,5
 26 148 26 148 39 163 c 128,-1,6
 52 178 52 178 68.5 190 c 128,-1,7
 85 202 85 202 102 210 c 1,8,-1
 104 214 l 1,9,10
 87 229 87 229 76 248 c 128,-1,11
 65 267 65 267 65 290 c 0,12,13
 65 315 65 315 76 335.5 c 128,-1,14
 87 356 87 356 105 371 c 128,-1,15
 123 386 123 386 147.5 394 c 128,-1,16
 172 402 172 402 199 402 c 0,17,18
 250 402 250 402 281 375.5 c 128,-1,19
 312 349 312 349 312 304 c 0,20,21
 312 267 312 267 289.5 240 c 128,-1,22
 267 213 267 213 238 197 c 1,23,-1
 238 193 l 1,24,25
 259 178 259 178 273 157.5 c 128,-1,26
 287 137 287 137 287 107 c 0,27,28
 287 81 287 81 275 59 c 128,-1,29
 263 37 263 37 243 21.5 c 128,-1,30
 223 6 223 6 195.5 -3 c 128,-1,31
 168 -12 168 -12 137 -12 c 0,0,1
193 227 m 1,32,33
 241 261 241 261 241 296 c 0,34,35
 241 319 241 319 227 331.5 c 128,-1,36
 213 344 213 344 193 344 c 0,37,38
 169 344 169 344 152.5 330 c 128,-1,39
 136 316 136 316 136 292 c 0,40,41
 136 269 136 269 152 253.5 c 128,-1,42
 168 238 168 238 193 227 c 1,32,33
143 44 m 0,43,44
 172 44 172 44 192.5 61 c 128,-1,45
 213 78 213 78 213 106 c 256,46,47
 213 134 213 134 193 148.5 c 128,-1,48
 173 163 173 163 145 177 c 1,49,50
 86 147 86 147 86 101 c 0,51,52
 86 76 86 76 102.5 60 c 128,-1,53
 119 44 119 44 143 44 c 0,43,44
EndSplineSet
Validated: 1
EndChar

StartChar: nine.dnom
Encoding: 65637 -1 594
Width: 358
Flags: W
LayerCount: 2
Fore
SplineSet
164 202 m 0,0,1
 181 202 181 202 200.5 211.5 c 128,-1,2
 220 221 220 221 237 240 c 1,3,-1
 237 247 l 2,4,5
 237 297 237 297 219 317 c 128,-1,6
 201 337 201 337 175 337 c 0,7,8
 151 337 151 337 131.5 315 c 128,-1,9
 112 293 112 293 112 257 c 0,10,11
 112 231 112 231 125.5 216.5 c 128,-1,12
 139 202 139 202 164 202 c 0,0,1
108 -12 m 0,13,14
 43 -12 43 -12 2 31 c 1,15,-1
 47 81 l 1,16,17
 61 67 61 67 76.5 60 c 128,-1,18
 92 53 92 53 114 53 c 0,19,20
 157 53 157 53 189 86 c 128,-1,21
 221 119 221 119 232 184 c 1,22,23
 215 168 215 168 192.5 157 c 128,-1,24
 170 146 170 146 144 146 c 0,25,26
 94 146 94 146 66 175.5 c 128,-1,27
 38 205 38 205 38 252 c 0,28,29
 38 286 38 286 50 313.5 c 128,-1,30
 62 341 62 341 82 360.5 c 128,-1,31
 102 380 102 380 128 391 c 128,-1,32
 154 402 154 402 182 402 c 256,33,34
 210 402 210 402 234.5 390.5 c 128,-1,35
 259 379 259 379 276 359 c 128,-1,36
 293 339 293 339 303 310.5 c 128,-1,37
 313 282 313 282 313 248 c 0,38,39
 313 184 313 184 296 135.5 c 128,-1,40
 279 87 279 87 250.5 54 c 128,-1,41
 222 21 222 21 185 4.5 c 128,-1,42
 148 -12 148 -12 108 -12 c 0,13,14
EndSplineSet
Validated: 1
EndChar

StartChar: parenleft.dnom
Encoding: 65638 -1 595
Width: 241
Flags: W
LayerCount: 2
Fore
SplineSet
82 -84 m 1,0,1
 62 -41 62 -41 50.5 8.5 c 128,-1,2
 39 58 39 58 39 112 c 0,3,4
 39 164 39 164 47.5 209.5 c 128,-1,5
 56 255 56 255 74.5 297.5 c 128,-1,6
 93 340 93 340 121.5 382.5 c 128,-1,7
 150 425 150 425 190 472 c 1,8,-1
 243 446 l 1,9,10
 178 362 178 362 146.5 281.5 c 128,-1,11
 115 201 115 201 115 112 c 0,12,13
 115 71 115 71 121.5 24.5 c 128,-1,14
 128 -22 128 -22 142 -59 c 1,15,-1
 82 -84 l 1,0,1
EndSplineSet
Validated: 1
EndChar

StartChar: parenright.dnom
Encoding: 65639 -1 596
Width: 240
Flags: W
LayerCount: 2
Fore
SplineSet
27 -84 m 1,0,-1
 -26 -58 l 1,1,2
 39 26 39 26 70.5 106.5 c 128,-1,3
 102 187 102 187 102 276 c 0,4,5
 102 317 102 317 95.5 363 c 128,-1,6
 89 409 89 409 75 446 c 1,7,-1
 135 472 l 1,8,9
 155 429 155 429 166.5 379.5 c 128,-1,10
 178 330 178 330 178 276 c 0,11,12
 178 223 178 223 169.5 178 c 128,-1,13
 161 133 161 133 142.5 90.5 c 128,-1,14
 124 48 124 48 95.5 5.5 c 128,-1,15
 67 -37 67 -37 27 -84 c 1,0,-1
EndSplineSet
Validated: 1
EndChar

StartChar: period.dnom
Encoding: 65640 -1 597
Width: 184
Flags: W
LayerCount: 2
Fore
SplineSet
41 -8 m 0,0,1
 21 -8 21 -8 9 4.5 c 128,-1,2
 -3 17 -3 17 -3 37 c 0,3,4
 -3 63 -3 63 14.5 81.5 c 128,-1,5
 32 100 32 100 58 100 c 0,6,7
 78 100 78 100 90 87 c 128,-1,8
 102 74 102 74 102 55 c 0,9,10
 102 28 102 28 84.5 10 c 128,-1,11
 67 -8 67 -8 41 -8 c 0,0,1
EndSplineSet
Validated: 1
EndChar

StartChar: comma.dnom
Encoding: 65641 -1 598
Width: 184
Flags: W
LayerCount: 2
Fore
SplineSet
-24 -121 m 1,0,-1
 -35 -76 l 1,1,2
 0 -63 0 -63 20.5 -45.5 c 128,-1,3
 41 -28 41 -28 46 0 c 1,4,-1
 44 0 l 2,5,6
 26 0 26 0 13 12 c 128,-1,7
 0 24 0 24 0 44 c 0,8,9
 0 71 0 71 17.5 85.5 c 128,-1,10
 35 100 35 100 59 100 c 0,11,12
 81 100 81 100 94.5 83 c 128,-1,13
 108 66 108 66 108 38 c 0,14,15
 108 -19 108 -19 73 -60 c 128,-1,16
 38 -101 38 -101 -24 -121 c 1,0,-1
EndSplineSet
Validated: 1
EndChar

StartChar: a.sups
Encoding: 7491 7491 616
Width: 360
Flags: W
LayerCount: 2
Fore
SplineSet
81 496 m 0,0,1
 81 542 81 542 96 582.5 c 128,-1,2
 111 623 111 623 135.5 653 c 128,-1,3
 160 683 160 683 192 700.5 c 128,-1,4
 224 718 224 718 258 718 c 0,5,6
 281 718 281 718 299.5 706.5 c 128,-1,7
 318 695 318 695 329 673 c 1,8,-1
 333 673 l 1,9,-1
 347 710 l 1,10,-1
 409 710 l 1,11,-1
 345 385 l 1,12,-1
 282 385 l 1,13,-1
 286 430 l 1,14,-1
 282 430 l 1,15,16
 259 405 259 405 231.5 391 c 128,-1,17
 204 377 204 377 175 377 c 0,18,19
 132 377 132 377 106.5 407.5 c 128,-1,20
 81 438 81 438 81 496 c 0,0,1
205 440 m 256,21,22
 225 440 225 440 247.5 453.5 c 128,-1,23
 270 467 270 467 290 495 c 1,24,-1
 313 617 l 1,25,26
 303 637 303 637 289.5 646 c 128,-1,27
 276 655 276 655 262 655 c 0,28,29
 243 655 243 655 224.5 643 c 128,-1,30
 206 631 206 631 192 611 c 128,-1,31
 178 591 178 591 169 563.5 c 128,-1,32
 160 536 160 536 160 506 c 0,33,34
 160 472 160 472 172.5 456 c 128,-1,35
 185 440 185 440 205 440 c 256,21,22
EndSplineSet
Validated: 1
Substitution2: "'ss02' Style Set 2 in Latin lookup 21 subtable" a.supa
Substitution2: "'aalt' Access All Alternates in Latin lookup 0 subtable" a.supa
EndChar

StartChar: b.sups
Encoding: 7495 7495 617
Width: 365
Flags: W
LayerCount: 2
Fore
SplineSet
111 385 m 1,0,-1
 49 385 l 1,1,-1
 142 850 l 1,2,-1
 220 850 l 1,3,-1
 198 740 l 1,4,-1
 180 675 l 1,5,-1
 183 675 l 1,6,7
 204 694 204 694 229.5 706 c 128,-1,8
 255 718 255 718 283 718 c 0,9,10
 326 718 326 718 351.5 687.5 c 128,-1,11
 377 657 377 657 377 599 c 0,12,13
 377 552 377 552 362 511.5 c 128,-1,14
 347 471 347 471 322.5 441 c 128,-1,15
 298 411 298 411 266 394 c 128,-1,16
 234 377 234 377 200 377 c 0,17,18
 177 377 177 377 159 388.5 c 128,-1,19
 141 400 141 400 130 422 c 1,20,-1
 126 422 l 1,21,-1
 111 385 l 1,0,-1
254 655 m 0,22,23
 234 655 234 655 212 643.5 c 128,-1,24
 190 632 190 632 170 606 c 1,25,-1
 146 478 l 1,26,27
 156 458 156 458 169 449 c 128,-1,28
 182 440 182 440 196 440 c 0,29,30
 215 440 215 440 233.5 452 c 128,-1,31
 252 464 252 464 266 484 c 128,-1,32
 280 504 280 504 289 531.5 c 128,-1,33
 298 559 298 559 298 589 c 0,34,35
 298 623 298 623 285.5 639 c 128,-1,36
 273 655 273 655 254 655 c 0,22,23
EndSplineSet
Validated: 1
EndChar

StartChar: c.sups
Encoding: 7580 7580 618
Width: 294
Flags: W
LayerCount: 2
Fore
SplineSet
184 377 m 0,0,1
 129 377 129 377 92.5 411 c 128,-1,2
 56 445 56 445 56 506 c 0,3,4
 56 547 56 547 70 585 c 128,-1,5
 84 623 84 623 109 652.5 c 128,-1,6
 134 682 134 682 168.5 700 c 128,-1,7
 203 718 203 718 244 718 c 0,8,9
 273 718 273 718 296 707 c 128,-1,10
 319 696 319 696 334 679 c 1,11,-1
 289 632 l 1,12,13
 278 644 278 644 267 650 c 128,-1,14
 256 656 256 656 240 656 c 0,15,16
 217 656 217 656 197.5 643.5 c 128,-1,17
 178 631 178 631 164 611 c 128,-1,18
 150 591 150 591 142 566 c 128,-1,19
 134 541 134 541 134 516 c 0,20,21
 134 477 134 477 153.5 458 c 128,-1,22
 173 439 173 439 200 439 c 0,23,24
 218 439 218 439 232 445.5 c 128,-1,25
 246 452 246 452 259 460 c 1,26,-1
 284 411 l 1,27,28
 269 398 269 398 242.5 387.5 c 128,-1,29
 216 377 216 377 184 377 c 0,0,1
EndSplineSet
Validated: 1
EndChar

StartChar: d.sups
Encoding: 7496 7496 619
Width: 372
Flags: W
LayerCount: 2
Fore
SplineSet
307 676 m 1,0,-1
 314 741 l 1,1,-1
 335 848 l 1,2,-1
 412 848 l 1,3,-1
 320 385 l 1,4,-1
 258 385 l 1,5,-1
 262 430 l 1,6,-1
 258 430 l 1,7,8
 235 405 235 405 207 391 c 128,-1,9
 179 377 179 377 151 377 c 0,10,11
 108 377 108 377 82.5 407.5 c 128,-1,12
 57 438 57 438 57 496 c 0,13,14
 57 542 57 542 72 582.5 c 128,-1,15
 87 623 87 623 111.5 653 c 128,-1,16
 136 683 136 683 168 700.5 c 128,-1,17
 200 718 200 718 234 718 c 0,18,19
 257 718 257 718 275 707 c 128,-1,20
 293 696 293 696 303 676 c 1,21,-1
 307 676 l 1,0,-1
180 440 m 0,22,23
 200 440 200 440 223 453.5 c 128,-1,24
 246 467 246 467 266 495 c 1,25,-1
 288 617 l 1,26,27
 278 637 278 637 265 646 c 128,-1,28
 252 655 252 655 238 655 c 0,29,30
 219 655 219 655 200.5 643 c 128,-1,31
 182 631 182 631 168 611 c 128,-1,32
 154 591 154 591 145 563.5 c 128,-1,33
 136 536 136 536 136 506 c 0,34,35
 136 472 136 472 148.5 456 c 128,-1,36
 161 440 161 440 180 440 c 0,22,23
EndSplineSet
Validated: 1
EndChar

StartChar: e.sups
Encoding: 7497 7497 620
Width: 328
Flags: W
LayerCount: 2
Fore
SplineSet
56 516 m 0,0,1
 56 561 56 561 72 598 c 128,-1,2
 88 635 88 635 113.5 662 c 128,-1,3
 139 689 139 689 171 703.5 c 128,-1,4
 203 718 203 718 236 718 c 0,5,6
 266 718 266 718 286.5 708 c 128,-1,7
 307 698 307 698 319.5 681 c 128,-1,8
 332 664 332 664 337.5 642.5 c 128,-1,9
 343 621 343 621 343 597 c 0,10,11
 343 575 343 575 337.5 555.5 c 128,-1,12
 332 536 332 536 327 526 c 1,13,-1
 129 526 l 1,14,15
 126 482 126 482 148 459 c 128,-1,16
 170 436 170 436 209 436 c 0,17,18
 227 436 227 436 243 442.5 c 128,-1,19
 259 449 259 449 275 459 c 1,20,-1
 299 408 l 1,21,22
 275 394 275 394 246.5 385.5 c 128,-1,23
 218 377 218 377 189 377 c 0,24,25
 129 377 129 377 92.5 413.5 c 128,-1,26
 56 450 56 450 56 516 c 0,0,1
137 576 m 1,27,-1
 275 576 l 1,28,29
 277 583 277 583 277.5 588.5 c 128,-1,30
 278 594 278 594 278 601 c 0,31,32
 278 624 278 624 267 641 c 128,-1,33
 256 658 256 658 227 658 c 0,34,35
 201 658 201 658 174.5 636.5 c 128,-1,36
 148 615 148 615 137 576 c 1,27,-1
EndSplineSet
Validated: 33
EndChar

StartChar: f.sups
Encoding: 7584 7584 621
Width: 209
Flags: W
LayerCount: 2
Fore
SplineSet
60 385 m 1,0,-1
 113 649 l 1,1,-1
 71 649 l 1,2,-1
 81 706 l 1,3,-1
 125 710 l 1,4,-1
 133 747 l 2,5,6
 143 798 143 798 172 830.5 c 128,-1,7
 201 863 201 863 253 863 c 0,8,9
 287 863 287 863 319 846 c 1,10,-1
 294 791 l 1,11,12
 288 795 288 795 279 798 c 128,-1,13
 270 801 270 801 260 801 c 0,14,15
 222 801 222 801 210 746 c 2,16,-1
 203 710 l 1,17,-1
 266 710 l 1,18,-1
 254 649 l 1,19,-1
 190 649 l 1,20,-1
 137 385 l 1,21,-1
 60 385 l 1,0,-1
EndSplineSet
Validated: 1
EndChar

StartChar: g.sups
Encoding: 7501 7501 622
Width: 360
Flags: W
LayerCount: 2
Fore
SplineSet
323 710 m 1,0,-1
 385 710 l 1,1,-1
 319 380 l 2,2,3
 305 310 305 310 262.5 273 c 128,-1,4
 220 236 220 236 154 236 c 0,5,6
 125 236 125 236 92 246.5 c 128,-1,7
 59 257 59 257 30 280 c 1,8,-1
 63 333 l 1,9,10
 83 319 83 319 107 308 c 128,-1,11
 131 297 131 297 157 297 c 0,12,13
 190 297 190 297 212.5 319 c 128,-1,14
 235 341 235 341 246 379 c 2,15,-1
 260 430 l 1,16,-1
 256 430 l 1,17,18
 232 411 232 411 206.5 400 c 128,-1,19
 181 389 181 389 152 389 c 0,20,21
 108 389 108 389 83 419 c 128,-1,22
 58 449 58 449 58 503 c 0,23,24
 58 547 58 547 72.5 586 c 128,-1,25
 87 625 87 625 111.5 654.5 c 128,-1,26
 136 684 136 684 167.5 701 c 128,-1,27
 199 718 199 718 234 718 c 0,28,29
 257 718 257 718 275 706.5 c 128,-1,30
 293 695 293 695 304 673 c 1,31,-1
 308 673 l 1,32,-1
 323 710 l 1,0,-1
182 452 m 256,33,34
 202 452 202 452 224 462.5 c 128,-1,35
 246 473 246 473 265 495 c 1,36,-1
 288 617 l 1,37,38
 278 637 278 637 265 646 c 128,-1,39
 252 655 252 655 238 655 c 0,40,41
 218 655 218 655 200 643.5 c 128,-1,42
 182 632 182 632 168 612.5 c 128,-1,43
 154 593 154 593 145.5 567 c 128,-1,44
 137 541 137 541 137 513 c 0,45,46
 137 482 137 482 149.5 467 c 128,-1,47
 162 452 162 452 182 452 c 256,33,34
EndSplineSet
Validated: 1
Substitution2: "'ss03' Style Set 3 in Latin lookup 22 subtable" g.supa
Substitution2: "'aalt' Access All Alternates in Latin lookup 0 subtable" g.supa
EndChar

StartChar: h.sups
Encoding: 688 688 623
Width: 361
Flags: W
LayerCount: 2
Fore
SplineSet
49 385 m 1,0,-1
 142 850 l 1,1,-1
 220 850 l 1,2,-1
 198 740 l 1,3,-1
 180 670 l 1,4,-1
 183 670 l 1,5,6
 206 690 206 690 233 704 c 128,-1,7
 260 718 260 718 290 718 c 0,8,9
 332 718 332 718 350 696 c 128,-1,10
 368 674 368 674 368 634 c 0,11,12
 368 623 368 623 366 611.5 c 128,-1,13
 364 600 364 600 362 589 c 2,14,-1
 321 385 l 1,15,-1
 244 385 l 1,16,-1
 282 579 l 2,17,18
 288 601 288 601 288 612 c 0,19,20
 288 652 288 652 252 652 c 0,21,22
 233 652 233 652 213.5 640 c 128,-1,23
 194 628 194 628 170 603 c 1,24,-1
 127 385 l 1,25,-1
 49 385 l 1,0,-1
EndSplineSet
Validated: 1
EndChar

StartChar: i.sups
Encoding: 8305 8305 624
Width: 172
Flags: W
LayerCount: 2
Fore
SplineSet
169 765 m 0,0,1
 152 765 152 765 138.5 774.5 c 128,-1,2
 125 784 125 784 125 804 c 256,3,4
 125 824 125 824 140 838 c 128,-1,5
 155 852 155 852 176 852 c 0,6,7
 193 852 193 852 206.5 842.5 c 128,-1,8
 220 833 220 833 220 813 c 256,9,10
 220 793 220 793 205 779 c 128,-1,11
 190 765 190 765 169 765 c 0,0,1
49 385 m 1,12,-1
 114 710 l 1,13,-1
 191 710 l 1,14,-1
 127 385 l 1,15,-1
 49 385 l 1,12,-1
EndSplineSet
Validated: 1
EndChar

StartChar: j.sups
Encoding: 690 690 625
Width: 172
Flags: W
LayerCount: 2
Fore
SplineSet
8 245 m 0,0,1
 -24 245 -24 245 -53 259 c 1,2,-1
 -28 314 l 1,3,4
 -21 311 -21 311 -13.5 308.5 c 128,-1,5
 -6 306 -6 306 2 306 c 0,6,7
 21 306 21 306 30 319.5 c 128,-1,8
 39 333 39 333 44 360 c 2,9,-1
 114 710 l 1,10,-1
 191 710 l 1,11,-1
 121 354 l 2,12,13
 111 305 111 305 85 275 c 128,-1,14
 59 245 59 245 8 245 c 0,0,1
169 765 m 0,15,16
 152 765 152 765 138.5 774.5 c 128,-1,17
 125 784 125 784 125 804 c 256,18,19
 125 824 125 824 140 838 c 128,-1,20
 155 852 155 852 176 852 c 0,21,22
 193 852 193 852 206.5 842.5 c 128,-1,23
 220 833 220 833 220 813 c 256,24,25
 220 793 220 793 205 779 c 128,-1,26
 190 765 190 765 169 765 c 0,15,16
EndSplineSet
Validated: 1
EndChar

StartChar: k.sups
Encoding: 7503 7503 626
Width: 340
Flags: W
LayerCount: 2
Fore
SplineSet
49 385 m 1,0,-1
 142 850 l 1,1,-1
 220 850 l 1,2,-1
 162 565 l 1,3,-1
 166 565 l 1,4,-1
 304 710 l 1,5,-1
 389 710 l 1,6,-1
 257 571 l 1,7,-1
 337 385 l 1,8,-1
 260 385 l 1,9,-1
 204 526 l 1,10,-1
 143 467 l 1,11,-1
 127 385 l 1,12,-1
 49 385 l 1,0,-1
EndSplineSet
Validated: 1
EndChar

StartChar: l.sups
Encoding: 737 737 627
Width: 172
Flags: W
LayerCount: 2
Fore
SplineSet
67 473 m 2,0,-1
 142 850 l 1,1,-1
 220 850 l 1,2,-1
 143 466 l 2,3,4
 141 462 141 462 141 458.5 c 128,-1,5
 141 455 141 455 141 453 c 0,6,7
 141 439 141 439 154 439 c 0,8,9
 156 439 156 439 158.5 439.5 c 128,-1,10
 161 440 161 440 165 442 c 1,11,-1
 165 384 l 1,12,13
 157 381 157 381 146 379 c 128,-1,14
 135 377 135 377 121 377 c 0,15,16
 90 377 90 377 76 392.5 c 128,-1,17
 62 408 62 408 62 435 c 0,18,19
 62 443 62 443 63.5 452.5 c 128,-1,20
 65 462 65 462 67 473 c 2,0,-1
EndSplineSet
Validated: 1
Substitution2: "'ss01' Style Set 1 in Latin lookup 20 subtable" l.supa
Substitution2: "'aalt' Access All Alternates in Latin lookup 0 subtable" l.supa
EndChar

StartChar: m.sups
Encoding: 7504 7504 628
Width: 545
Flags: W
LayerCount: 2
Fore
SplineSet
50 385 m 1,0,-1
 114 710 l 1,1,-1
 176 710 l 1,2,-1
 174 665 l 1,3,-1
 178 665 l 1,4,5
 202 687 202 687 229 702.5 c 128,-1,6
 256 718 256 718 286 718 c 0,7,8
 322 718 322 718 338 701.5 c 128,-1,9
 354 685 354 685 360 659 c 1,10,11
 388 683 388 683 416 700.5 c 128,-1,12
 444 718 444 718 474 718 c 0,13,14
 516 718 516 718 533.5 696.5 c 128,-1,15
 551 675 551 675 551 633 c 0,16,17
 551 624 551 624 549.5 612 c 128,-1,18
 548 600 548 600 545 588 c 2,19,-1
 505 385 l 1,20,-1
 428 385 l 1,21,-1
 466 579 l 2,22,23
 468 589 468 589 469.5 597 c 128,-1,24
 471 605 471 605 471 613 c 0,25,26
 471 652 471 652 437 652 c 0,27,28
 422 652 422 652 401.5 639.5 c 128,-1,29
 381 627 381 627 359 603 c 1,30,-1
 316 385 l 1,31,-1
 240 385 l 1,32,-1
 278 579 l 2,33,34
 280 589 280 589 282 596.5 c 128,-1,35
 284 604 284 604 284 612 c 0,36,37
 284 652 284 652 247 652 c 0,38,39
 233 652 233 652 212.5 639.5 c 128,-1,40
 192 627 192 627 170 603 c 1,41,-1
 127 385 l 1,42,-1
 50 385 l 1,0,-1
EndSplineSet
Validated: 1
EndChar

StartChar: n.sups
Encoding: 8319 8319 629
Width: 362
Flags: W
LayerCount: 2
Fore
SplineSet
49 385 m 1,0,-1
 114 710 l 1,1,-1
 176 710 l 1,2,-1
 174 665 l 1,3,-1
 178 665 l 1,4,5
 203 687 203 687 230.5 702.5 c 128,-1,6
 258 718 258 718 290 718 c 0,7,8
 332 718 332 718 350 696 c 128,-1,9
 368 674 368 674 368 634 c 0,10,11
 368 622 368 622 366 611.5 c 128,-1,12
 364 601 364 601 362 589 c 2,13,-1
 321 385 l 1,14,-1
 244 385 l 1,15,-1
 282 579 l 2,16,17
 285 590 285 590 286 597.5 c 128,-1,18
 287 605 287 605 287 612 c 0,19,20
 287 652 287 652 252 652 c 0,21,22
 233 652 233 652 213.5 640 c 128,-1,23
 194 628 194 628 170 603 c 1,24,-1
 127 385 l 1,25,-1
 49 385 l 1,0,-1
EndSplineSet
Validated: 1
EndChar

StartChar: o.sups
Encoding: 7506 7506 630
Width: 353
Flags: W
LayerCount: 2
Fore
SplineSet
180 377 m 0,0,1
 126 377 126 377 91 412 c 128,-1,2
 56 447 56 447 56 510 c 0,3,4
 56 557 56 557 71.5 595.5 c 128,-1,5
 87 634 87 634 112.5 661 c 128,-1,6
 138 688 138 688 171 703 c 128,-1,7
 204 718 204 718 238 718 c 0,8,9
 293 718 293 718 328 683 c 128,-1,10
 363 648 363 648 363 585 c 0,11,12
 363 538 363 538 347.5 499.5 c 128,-1,13
 332 461 332 461 306 434 c 128,-1,14
 280 407 280 407 247 392 c 128,-1,15
 214 377 214 377 180 377 c 0,0,1
187 439 m 0,16,17
 208 439 208 439 226 450.5 c 128,-1,18
 244 462 244 462 257.5 481.5 c 128,-1,19
 271 501 271 501 278.5 527 c 128,-1,20
 286 553 286 553 286 583 c 0,21,22
 286 618 286 618 272.5 637 c 128,-1,23
 259 656 259 656 232 656 c 0,24,25
 211 656 211 656 193 644.5 c 128,-1,26
 175 633 175 633 161.5 613.5 c 128,-1,27
 148 594 148 594 140.5 568 c 128,-1,28
 133 542 133 542 133 512 c 0,29,30
 133 477 133 477 146.5 458 c 128,-1,31
 160 439 160 439 187 439 c 0,16,17
EndSplineSet
Validated: 1
EndChar

StartChar: p.sups
Encoding: 7510 7510 631
Width: 364
Flags: W
LayerCount: 2
Fore
SplineSet
126 422 m 1,0,-1
 120 352 l 1,1,-1
 100 250 l 1,2,-1
 22 250 l 1,3,-1
 114 710 l 1,4,-1
 176 710 l 1,5,-1
 177 673 l 1,6,-1
 181 673 l 1,7,8
 205 694 205 694 230 706 c 128,-1,9
 255 718 255 718 283 718 c 0,10,11
 326 718 326 718 351.5 687.5 c 128,-1,12
 377 657 377 657 377 599 c 0,13,14
 377 552 377 552 362 511.5 c 128,-1,15
 347 471 347 471 322.5 441 c 128,-1,16
 298 411 298 411 266 394 c 128,-1,17
 234 377 234 377 200 377 c 0,18,19
 178 377 178 377 159.5 388.5 c 128,-1,20
 141 400 141 400 130 422 c 1,21,-1
 126 422 l 1,0,-1
254 655 m 0,22,23
 234 655 234 655 212 643.5 c 128,-1,24
 190 632 190 632 170 606 c 1,25,-1
 146 478 l 1,26,27
 156 458 156 458 168 449 c 128,-1,28
 180 440 180 440 194 440 c 0,29,30
 213 440 213 440 231.5 452 c 128,-1,31
 250 464 250 464 265 484 c 128,-1,32
 280 504 280 504 289 531.5 c 128,-1,33
 298 559 298 559 298 589 c 0,34,35
 298 623 298 623 285.5 639 c 128,-1,36
 273 655 273 655 254 655 c 0,22,23
EndSplineSet
Validated: 1
EndChar

